<?xml version="1.0" encoding="UTF-8" standalone="no"?>
<!-- Created with Inkscape (http://www.inkscape.org/) -->

<svg
   width="89.575668mm"
   height="62.94532mm"
   viewBox="0 0 89.575668 62.94532"
   version="1.1"
   id="svg1"
   xmlns="http://www.w3.org/2000/svg"
   xmlns:svg="http://www.w3.org/2000/svg">
  <defs
     id="defs1" />
  <g
     id="layer1"
     transform="translate(-73.81875,-212.46087)">
    <path
       id="path2313-1"
       style="fill:#ffffff;stroke-width:0.264583"
       d="m 91.681978,212.46946 c -0.431408,0.0728 -0.783555,0.41412 -0.982369,0.79013 -0.274277,0.61856 -0.03671,1.30058 0.138206,1.91175 0.459274,1.41989 1.046204,2.79543 1.479724,4.22427 1.002512,3.19704 1.8385,6.4463 2.525988,9.7253 0.336706,1.6541 0.65973,3.32386 0.669144,5.01821 -0.0047,0.64606 0.03462,1.35753 -0.337404,1.92034 -0.379212,0.49155 -0.970476,0.74756 -1.51248,1.01594 -0.916575,0.40954 -1.979401,0.69834 -2.968509,0.38274 -0.598252,-0.1826 -1.03079,-0.67649 -1.309833,-1.21649 -0.600451,-1.14463 -0.918157,-2.409 -1.253424,-3.64981 -0.681392,-2.65497 -1.229299,-5.3619 -1.832067,-8.04738 -0.330367,-1.4338 -0.622425,-2.87763 -1.01245,-4.29667 -0.128291,-0.43262 -0.549301,-0.81775 -1.023712,-0.72812 -0.576691,0.10636 -0.887791,0.69978 -1.00729,1.22322 -0.165717,0.87276 -0.13952,1.76802 -0.159234,2.65262 -0.0011,2.6572 0.09751,5.31559 0.317918,7.96375 0.07619,0.87946 0.16338,1.76374 0.407291,2.61535 -0.689205,-1.37963 -1.331769,-2.78765 -1.811311,-4.25523 -0.367083,-1.0257 -0.820809,-2.01698 -1.290669,-2.9987 -0.509672,-1.14415 -0.915292,-2.3331 -1.282671,-3.52271 -0.672393,-1.99183 -1.510943,-3.93763 -2.60908,-5.73376 -0.419102,-0.64331 -0.846473,-1.32274 -1.496191,-1.75722 -0.414541,-0.27255 -1.085007,-0.25442 -1.364258,0.20154 -0.238208,0.45471 -0.126062,0.98939 -0.09474,1.47826 0.177669,1.5111 0.360367,3.02322 0.624819,4.52202 0.407878,2.18025 1.169353,4.27097 1.84547,6.37734 0.863203,2.51954 1.906998,4.97367 3.006241,7.39808 0.646218,1.38235 1.280438,2.77693 2.078223,4.0802 0.161462,0.27008 0.369472,0.5069 0.609264,0.70745 0.531725,0.61188 0.85172,1.3741 1.399254,1.97388 1.25285,1.4358 2.690548,2.69834 4.168693,3.89603 1.097283,0.90501 2.305436,1.65998 3.436154,2.52028 0.588513,0.52034 1.245722,0.95288 1.893142,1.39478 0.910132,0.72525 1.708173,1.58076 2.480622,2.44808 1.459822,1.68149 2.866186,3.41847 4.481973,4.95579 0.804528,0.76724 1.726598,1.39737 2.693708,1.94092 1.49632,0.87213 2.97812,1.76979 4.48413,2.62492 2.24862,1.21726 4.64638,2.14542 7.09405,2.87588 1.63277,0.46884 3.30045,0.88294 5.00419,0.9591 0.79506,-0.0163 1.5451,0.30757 2.25851,0.62261 1.23947,0.62787 2.48966,1.24814 3.81243,1.68371 1.88608,0.64565 3.87779,0.86871 5.8438,1.13077 1.93934,0.23139 3.88262,0.46036 5.8356,0.53204 1.28824,-0.0181 2.5797,0.0291 3.85542,0.21956 0.61408,0.0869 1.20263,0.1887 1.7903,0.30298 1.48723,0.30051 2.97182,0.61933 4.47478,0.83414 0.89741,0.13734 1.81891,0.17498 2.68035,0.48781 0.55217,0.20337 1.14391,0.43559 1.51952,0.91051 0.11795,0.15732 -0.0267,0.35035 0.015,0.52762 0.0319,0.78952 0.63235,1.55315 1.43585,1.65944 0.3508,0.0707 0.74304,-0.005 1.04569,0.2281 0.31107,0.20979 0.71509,0.27564 1.06333,0.11845 1.08002,-0.3693 1.93511,-1.16297 2.78502,-1.89354 0.82576,-0.74853 1.66345,-1.48658 2.44894,-2.27754 0.40855,-0.46604 0.76997,-0.97469 1.09758,-1.50032 0.57528,-1.03658 0.86093,-2.305 0.51211,-3.46335 -0.178,-0.545 -0.48714,-1.08457 -1.01441,-1.35529 -0.4009,-0.24434 -0.85553,-0.47294 -1.34029,-0.38588 -0.0977,-0.0258 -0.37905,0.14665 -0.3121,-0.007 0.40104,-1.20105 0.94692,-2.34508 1.46441,-3.49832 0.93204,-2.1804 1.43081,-4.50949 1.98886,-6.80477 0.22817,-1.03319 0.5193,-2.06215 0.58752,-3.12214 0.0169,-0.47339 0.1379,-0.93725 0.18096,-1.40944 0.21709,-1.67694 0.24734,-3.37509 0.10824,-5.05991 -0.12734,-1.61924 -0.33001,-3.21938 -0.45851,-4.83657 -0.16069,-1.43363 -0.37177,-2.86199 -0.61979,-4.28269 -0.19565,-0.90484 -0.39786,-1.79893 -0.52268,-2.7234 -0.043,-0.75352 -0.30779,-1.47135 -0.52311,-2.18842 -0.45967,-1.38337 -0.9525,-2.76214 -1.5984,-4.07094 -0.30834,-0.59718 -0.73556,-1.16361 -1.3147,-1.51907 -0.4019,-0.2609 -1.01658,-0.11244 -1.1973,0.34843 -0.20627,0.54716 -0.0872,1.14651 -0.0438,1.71238 0.18554,1.6341 0.52901,3.24516 0.73779,4.87585 0.099,1.08286 0.14967,2.17005 0.23164,3.24746 0.10989,1.7646 0.18631,3.53372 0.13423,5.30189 -0.0138,0.43432 -0.0366,0.92604 -0.065,1.38213 -0.0282,0.46506 -0.0683,0.93767 -0.1113,1.42695 -0.0497,0.50662 -0.10044,1.00737 -0.16623,1.49307 -0.15124,0.93598 -0.31606,1.90973 -0.49513,2.81628 -0.0983,0.47916 -0.19037,0.91673 -0.30548,1.39754 -0.53259,2.25831 -1.24379,4.48259 -2.25302,6.57562 -0.16884,0.36028 -0.31069,0.73532 -0.4668,1.09865 -0.15494,0.25534 -0.32787,0.51293 -0.48018,0.73421 -0.43169,0.68871 -1.02438,1.32224 -1.81151,1.5907 -0.9752,0.35039 -2.06141,0.0919 -2.94189,-0.39401 -0.89932,-0.52942 -1.40104,-1.49296 -1.85113,-2.39559 -0.85467,-1.79563 -1.49197,-3.68271 -2.28427,-5.50544 -1.25085,-2.92925 -2.59963,-5.82237 -4.16983,-8.5956 -1.21749,-2.16783 -2.74236,-4.1678 -4.53859,-5.88857 -0.61882,-0.56794 -1.25652,-1.15655 -2.04222,-1.48204 -0.39156,-0.17002 -0.93153,-0.11294 -1.15541,0.29062 -0.22346,0.36057 -0.12367,0.80473 0.042,1.16656 0.58308,1.41381 1.27604,2.78036 1.99815,4.12769 0.23282,0.42999 0.48247,0.8525 0.78359,1.23741 0.48032,0.85326 0.84558,1.76891 1.15706,2.69588 0.14247,0.34886 0.10171,0.73749 0.25612,1.08243 0.17687,0.46794 0.50962,0.855 0.69042,1.32224 0.79249,1.77221 1.41171,3.61624 2.00788,5.46199 0.48917,1.50944 0.89113,3.04456 1.28613,4.58064 0.46371,1.74175 0.95971,3.47446 1.45399,5.20776 -0.89233,0.0118 -1.80771,-0.0175 -2.65342,-0.33135 -0.81501,-0.2325 -1.69442,-0.38338 -2.50285,-0.51356 -1.29452,-0.22775 -2.54954,-0.51013 -3.82891,-0.80781 -2.43857,-0.48858 -4.92811,-0.6401 -7.40757,-0.75715 -0.70609,-0.0365 -1.41217,-0.0729 -2.11826,-0.10936 -1.11929,-0.6834 -2.26403,-1.33381 -3.29296,-2.15245 -0.97268,-0.72028 -1.79287,-1.61519 -2.66927,-2.44404 -1.62041,-1.58981 -3.26472,-3.15775 -4.81327,-4.81855 -0.40676,-0.41506 -0.72992,-0.8976 -1.03404,-1.3901 -0.50799,-0.75423 -0.98063,-1.54217 -1.59682,-2.21509 -0.11712,-0.12702 -0.26496,-0.22828 -0.41709,-0.30092 -0.31265,-0.7467 -0.76659,-1.42479 -1.18329,-2.1164 -1.04225,-1.63541 -2.10816,-3.26074 -2.98481,-4.99361 -0.53386,-1.04996 -1.09813,-2.0864 -1.57601,-3.16348 -0.18729,-0.39809 -0.2636,-0.8487 -0.1563,-1.28033 0.37457,-1.77141 0.54954,-3.57686 0.74777,-5.37428 0.20388,-2.07595 0.40905,-4.15515 0.45533,-6.24175 -0.009,-0.85709 0.002,-1.74827 -0.32409,-2.55571 -0.18182,-0.46321 -0.65743,-0.83831 -1.17248,-0.75781 -0.52084,0.10535 -0.77228,0.64087 -0.96847,1.08079 -0.60714,1.4682 -0.71922,3.06917 -1.08258,4.6022 -0.10577,0.45999 -0.21293,0.92848 -0.34989,1.37521 -0.0846,-0.26285 -0.15213,-0.47989 -0.22884,-0.75361 -0.37386,-1.38657 -0.67235,-2.79208 -1.03791,-4.18083 -0.24991,-0.95544 -0.4523,-1.92258 -0.627706,-2.89402 -0.100608,-0.44318 -0.329325,-0.97094 -0.826823,-1.06247 -0.474493,-0.0937 -0.863653,0.31016 -1.045933,0.70641 -0.362347,0.76156 -0.470289,1.61361 -0.533299,2.44585 -0.119994,-0.2359 -0.223994,-0.469 -0.319283,-0.69046 -0.475549,-1.09845 -0.944145,-2.20933 -1.582928,-3.22506 -0.423503,-0.60807 -0.749409,-1.27518 -1.089951,-1.93069 -0.531183,-0.88637 -1.205434,-1.70479 -2.042158,-2.31815 -0.213942,-0.13899 -0.468619,-0.23505 -0.726569,-0.19534 z m 10.622612,31.62544 c 0.36926,0.8198 0.72848,1.64522 1.09241,2.46659 0.44839,0.7576 1.06648,1.41295 1.4263,2.22202 0.0844,0.46342 0.40138,0.84244 0.6657,1.21896 0.57881,0.7022 1.08491,1.47022 1.43343,2.31358 0.23985,0.51353 0.53922,1.00225 0.93737,1.40876 0.25566,0.30671 0.50154,0.62144 0.73949,0.94206 -1.23012,-0.59155 -2.23623,-1.55037 -3.10873,-2.58319 -0.98559,-1.18608 -1.83386,-2.49776 -2.44248,-3.91709 -0.54051,-1.38371 -0.87216,-2.85015 -0.99568,-4.33007 0.006,-0.0774 -0.0543,-0.45911 0.0278,-0.23491 0.0748,0.16443 0.14959,0.32886 0.22439,0.49329 z" />
    <path
       id="path2313-6"
       style="display:inline;fill:#000000;stroke-width:0.264583"
       d="m 158.303,244.88917 -0.26097,1.52704 c -0.55644,3.25562 -1.49015,6.43736 -2.56573,8.74365 -0.35814,0.76796 -0.65113,1.44907 -0.65113,1.5136 0,0.0645 -0.37306,0.64628 -0.82889,1.29295 -1.00494,1.42573 -2.51136,1.95982 -4.14444,1.46967 -1.93244,-0.58 -2.66491,-1.58912 -4.40542,-6.06939 -1.82375,-4.69457 -4.3469,-9.914 -6.07095,-12.55893 -2.35241,-3.60892 -5.98155,-6.84108 -5.98155,-5.32732 0,0.4423 2.26598,5.02482 2.72387,5.50871 0.39727,0.41981 1.50947,3.11588 1.50947,3.65869 0,0.21947 0.16124,0.63384 0.35812,0.92087 0.73625,1.07339 2.57831,6.30042 3.44733,9.78235 0.21791,0.87313 0.74367,2.8079 1.1684,4.29948 l 0.77205,2.71198 h -1.26814 c -0.69752,0 -1.58782,-0.12166 -1.97869,-0.27027 -0.39084,-0.1486 -1.44074,-0.38338 -2.33267,-0.52141 -0.89191,-0.13804 -2.63364,-0.49562 -3.87057,-0.79478 -1.3485,-0.32615 -3.78503,-0.62332 -6.08542,-0.74208 l -3.83645,-0.19792 -1.7167,-1.04335 c -0.94426,-0.57383 -2.25395,-1.56311 -2.91041,-2.19831 -4.87312,-4.71522 -6.6311,-6.49975 -7.05538,-7.16184 -1.38028,-2.15386 -1.97439,-2.94504 -2.21124,-2.94504 -0.1437,0 -0.26148,-0.126 -0.26148,-0.27957 0,-0.15357 -0.62508,-1.25329 -1.38906,-2.44378 -1.80483,-2.81239 -2.08628,-3.30207 -3.52847,-6.14019 -1.18033,-2.32279 -1.20323,-2.41373 -0.92449,-3.70417 0.40804,-1.8891 1.08128,-8.60285 1.10742,-11.04428 0.0208,-1.94681 -0.24677,-2.84634 -0.84697,-2.84634 -0.42217,0 -0.96823,1.45106 -1.29398,3.43958 -0.17881,1.09141 -0.5068,2.56925 -0.72915,3.28455 -0.39482,1.27023 -0.41235,1.28566 -0.73795,0.66146 -0.18335,-0.3515 -0.52799,-1.47215 -0.76636,-2.4908 -0.23836,-1.01864 -0.60331,-2.50693 -0.810801,-3.30729 -0.20746,-0.80037 -0.446963,-1.90169 -0.532265,-2.4474 -0.270616,-1.73094 -1.114914,-1.03974 -1.370978,1.12242 -0.121917,1.02945 -0.06941,1.43687 0.20774,1.61592 0.265404,0.17148 0.188,0.21365 -0.272851,0.14882 -0.522976,-0.0736 -0.801355,-0.46541 -1.485697,-2.09237 -0.463153,-1.10112 -1.079722,-2.3405 -1.369943,-2.75436 -0.290222,-0.41385 -0.727665,-1.18013 -0.972035,-1.70274 -0.244366,-0.5226 -0.851537,-1.34485 -1.349271,-1.82728 -0.761442,-0.73801 -0.969532,-0.82368 -1.31258,-0.53898 -0.592468,0.49171 -0.52193,0.93356 0.639755,4.01629 1.559369,4.13807 3.691088,12.81306 3.881932,15.79749 0.186452,2.91581 -0.03719,3.52038 -1.613339,4.35942 -2.214922,1.17911 -4.162113,1.06143 -5.138703,-0.31006 -0.858843,-1.20613 -1.481516,-3.29306 -2.815334,-9.43405 -0.803423,-3.69903 -1.424408,-6.42223 -1.613855,-7.0776 -0.219591,-0.75966 -0.835784,-0.52563 -1.044895,0.39687 -0.343265,1.51431 -0.0052,10.76453 0.456819,12.50157 0.439627,1.65276 0.539967,2.84003 0.223242,2.64428 -0.400769,-0.24769 -2.224891,-3.98519 -2.775542,-5.68699 -0.258972,-0.80037 -0.800399,-2.11423 -1.203026,-2.91972 -0.402627,-0.80549 -0.999948,-2.34702 -1.327568,-3.42563 -1.174004,-3.86516 -3.418451,-7.94215 -4.372342,-7.94215 -0.526237,0 -0.531683,0.13037 -0.132808,3.175 0.438245,3.34514 0.590825,3.96153 2.161108,8.73125 1.31952,4.00804 4.748517,11.53641 5.458063,11.98273 0.182491,0.11479 0.647412,0.74711 1.033013,1.40508 0.740502,1.26357 3.986585,4.23724 6.491076,5.94692 0.82125,0.56063 1.654688,1.17287 1.852083,1.36013 0.197392,0.18726 0.852636,0.66101 1.456243,1.05317 0.603594,0.39215 1.936514,1.70158 2.962092,2.90989 3.53745,4.16774 4.606417,5.21981 6.355687,6.25234 0.96538,0.56983 2.93204,1.72687 4.36976,2.57141 3.64347,2.14025 9.66673,4.08759 12.64625,4.08865 0.58286,1.8e-4 1.6437,0.34857 2.64584,0.86868 2.03977,1.05864 3.62772,1.64997 5.38675,2.00659 2.31118,0.46856 8.12747,1.11771 9.77976,1.09141 2.10749,-0.0335 3.7954,0.16541 6.73809,0.79426 1.34202,0.2868 3.21982,0.60155 4.17287,0.69919 2.11016,0.21619 3.88826,1.2162 3.66696,2.0624 -0.076,0.2905 0.047,0.73226 0.27286,0.98186 0.43043,0.57963 1.12631,0.37403 1.53944,0.51418 0.38465,0.13048 0.5745,0.39228 0.87023,0.30747 1.04728,-0.30035 1.94179,-1.05468 4.60644,-3.53363 l 0.31419,-0.30128 c 0.40645,-0.36941 0.7016,-0.82574 1.02164,-1.2671 0.66148,-0.90704 1.08608,-2.38051 0.67577,-3.51481 -0.16418,-0.38491 -0.27982,-0.71355 -0.78193,-0.98214 -0.47131,-0.25213 -0.68357,-0.48089 -1.59916,-0.11827 -0.25466,0.10086 -0.46302,0.0901 -0.46302,-0.0243 0,-0.41444 0.64171,-2.13257 1.38079,-3.69745 0.7539,-1.59621 1.22869,-3.07243 1.95285,-6.07301 0.76867,-3.18496 0.89969,-3.85907 0.89969,-4.61884 0,0 0.36798,-1.94367 0.36956,-4.08419 0.002,-2.19531 -0.36477,-4.61026 -0.49528,-6.36992 -0.11543,-1.55632 -0.63496,-4.63851 -0.63496,-4.63851 -0.31125,-1.38245 -0.56485,-2.73437 -0.56379,-3.00395 0.003,-0.85326 -1.58572,-5.2894 -2.26446,-6.32261 -0.35851,-0.54571 -0.84551,-0.99219 -1.0821,-0.99219 -0.48009,0 -0.50286,0.58945 0.293,5.26325 0.22849,1.34181 0.22438,1.78742 0.30809,3.04044 0.0373,0.55836 0.25861,3.20368 0.2541,5.71152 -0.005,2.94086 -0.37926,5.5531 -0.37926,5.5531 z M 91.915838,213.92982 c 0.148715,-0.0796 0.344615,0.0982 0.751377,0.61702 1.159642,1.47919 2.234084,3.41998 3.254581,5.87922 0.543481,1.30969 1.177693,2.79797 1.409732,3.30729 0.23204,0.50933 0.454766,1.49159 0.495062,2.18282 0.07445,1.27713 -0.241506,1.69329 -0.54932,0.72347 -0.09303,-0.29316 -0.279918,-0.46484 -0.414962,-0.38137 -0.135043,0.0835 -0.245464,-0.0894 -0.245464,-0.38448 0,-0.36542 0.124941,-0.48858 0.392223,-0.38602 0.331682,0.12727 0.347282,0.0213 0.100769,-0.68575 -0.1837,-0.527 -0.423497,-0.78585 -0.648022,-0.6997 -0.268656,0.1031 -0.317884,-0.0559 -0.199988,-0.64543 0.09911,-0.49556 0.04754,-0.78187 -0.141076,-0.78187 -0.163698,0 -0.297656,-0.18024 -0.297656,-0.40049 0,-0.22026 -0.110551,-0.60721 -0.245462,-0.8599 -0.134885,-0.25268 -0.328123,-0.69753 -0.429432,-0.98857 -0.163275,-0.46902 -0.209974,-0.43895 -0.413412,0.26459 -0.169915,0.58761 -0.132003,0.86655 0.146762,1.07435 0.517578,0.3858 0.643565,1.74608 0.176734,1.90893 -0.276649,0.0965 -0.326581,-0.0377 -0.200507,-0.54002 0.111628,-0.44478 0.04732,-0.71474 -0.192235,-0.80667 -0.448654,-0.17217 -0.732613,-1.53355 -0.403077,-1.93218 0.156686,-0.18953 0.0986,-0.41695 -0.161745,-0.63304 -0.242888,-0.20158 -0.341321,-0.54224 -0.24443,-0.84749 0.119327,-0.37594 0.0114,-0.54963 -0.410311,-0.65991 -0.444976,-0.11636 -0.537998,-0.28642 -0.418063,-0.76429 0.110623,-0.44079 0.0098,-0.69252 -0.35605,-0.88832 -0.624271,-0.3341 -1.203576,-1.9586 -0.895037,-2.50993 0.04514,-0.0807 0.08944,-0.13572 0.139009,-0.16226 z m -16.64136,3.18895 c 0.537893,0 2.435357,4.07216 3.205488,6.87917 0.259514,0.94588 0.798714,2.37463 1.197861,3.175 0.399148,0.80036 0.992807,2.26777 1.319816,3.2613 0.575373,1.74811 1.666782,4.03311 2.888713,6.04769 0.773697,1.27559 3.809418,3.85354 5.320604,4.51859 0.65568,0.28855 1.687031,0.53007 2.29185,0.5364 1.547585,0.0162 3.951909,-1.24777 4.794022,-2.52026 0.362559,-0.54788 0.821669,-0.99581 1.020609,-0.99581 0.243814,0 0.361736,-0.33531 0.361736,-1.02784 0,-0.80496 0.114617,-1.05741 0.529167,-1.16582 0.343931,-0.0899 0.529166,-0.008 0.529166,0.23358 0,0.20466 0.248203,0.37258 0.551389,0.37258 0.303633,0 0.504947,0.13883 0.448035,0.30955 -0.131498,0.39449 -1.262716,0.49177 -1.26814,0.10903 -0.0081,-0.57162 -0.516956,0.52388 -0.520898,1.12138 -0.0021,0.33782 -0.191598,0.80191 -0.420648,1.03095 -0.239871,0.23987 -0.30883,0.48403 -0.16278,0.57619 0.139436,0.088 0.297678,0.39401 0.351917,0.68006 0.07734,0.40777 0.312894,0.51932 1.089338,0.51625 0.637831,-0.003 0.990121,0.11814 0.990121,0.33951 0,0.18905 -0.182764,0.34417 -0.406176,0.34417 -0.32975,0 -0.350353,0.10339 -0.110587,0.55139 0.162427,0.3035 0.241448,0.60604 0.175699,0.67179 -0.246698,0.24668 -1.471454,-0.51381 -1.596284,-0.99116 -0.163539,-0.62536 -0.608367,-0.64472 -0.766879,-0.0336 -0.173911,0.67054 0.03736,1.1156 0.453202,0.95601 0.198226,-0.0761 0.722418,0.20822 1.165304,0.63149 0.635659,0.60745 0.737502,0.83864 0.482656,1.09709 -0.2545,0.25812 -0.224176,0.40042 0.143145,0.67179 0.412538,0.30477 0.420132,0.38215 0.06615,0.67593 -0.514933,0.42736 -0.516975,0.82454 -0.0031,0.62735 0.483764,-0.18563 0.550659,0.70249 0.08785,1.1653 -0.235373,0.23538 -0.200704,0.35031 0.144177,0.48266 0.677549,0.26 0.810239,-0.0314 0.770499,-1.68982 l -0.0362,-1.50895 0.34882,1.25367 c 0.19174,0.68978 0.60509,1.74682 0.91881,2.3487 0.47633,0.91384 0.49947,1.06694 0.13901,0.92862 -0.23741,-0.0911 -0.54126,-0.16537 -0.6749,-0.16537 -0.13361,0 -0.24288,-0.17859 -0.24288,-0.39687 0,-0.32883 -0.0837,-0.31749 -0.48731,0.0661 -0.591549,0.56219 -0.492661,0.85901 0.22324,0.67179 0.40693,-0.10642 0.52866,-0.008 0.52866,0.42685 0,0.3109 0.2927,1.02932 0.6506,1.59628 0.68014,1.07741 1.20148,1.55734 1.20148,1.10639 0,-0.14552 -0.12059,-0.33924 -0.2682,-0.43046 -0.38979,-0.24091 -1.38391,-2.27013 -1.20148,-2.45257 0.0851,-0.0851 0.55613,0.23429 1.04645,0.70952 0.65143,0.63139 0.85147,1.01838 0.74362,1.43713 -0.12739,0.49464 -0.0908,0.52628 0.26769,0.23254 0.35412,-0.2902 0.49464,-0.21229 0.95446,0.52916 1.0786,1.73925 3.01032,3.16621 5.27978,3.90054 1.34043,0.43372 2.76143,1.67933 2.07274,1.81695 -0.50892,0.1017 -0.54483,0.3538 -0.1111,0.78754 0.35266,0.35267 0.77776,0.42796 0.67489,0.11938 -0.21328,-0.63985 0.47996,-0.29956 1.66244,0.81649 1.37276,1.29565 1.44805,1.53727 0.52296,1.67845 -0.36155,0.0552 -0.46826,-0.0376 -0.36174,-0.31523 0.0831,-0.21657 0.0622,-0.39378 -0.0465,-0.39378 v -5.2e-4 c -0.10869,0 -0.33257,0.18508 -0.49765,0.41082 -0.25958,0.35501 -0.38082,0.30141 -0.8971,-0.39687 -0.32827,-0.44402 -0.72675,-0.8077 -0.88573,-0.8077 -0.18905,0 -0.17344,0.13982 0.0455,0.40359 0.39555,0.47663 0.18537,0.7846 -0.38602,0.56534 -0.23254,-0.0892 -0.33744,-0.32742 -0.24753,-0.56173 0.0984,-0.25652 0.007,-0.4072 -0.24753,-0.4072 -0.22196,0 -0.61153,-0.0798 -0.86558,-0.17725 -0.34192,-0.1312 -0.40505,-0.0851 -0.24288,0.17725 0.16219,0.26239 0.099,0.30844 -0.24288,0.17724 -0.25405,-0.0975 -0.57123,-0.17724 -0.70487,-0.17724 -0.13361,0 -0.24288,-0.11907 -0.24288,-0.26459 0,-0.14552 0.13396,-0.23482 0.29766,-0.19844 0.16372,0.0364 0.35237,-0.0826 0.4191,-0.26458 0.0777,-0.21203 -0.0292,-0.27304 -0.29766,-0.17001 -0.23045,0.0884 -0.4191,0.0573 -0.4191,-0.0687 0,-0.12608 -0.26789,-0.39605 -0.59531,-0.59996 -0.54758,-0.341 -0.56574,-0.3351 -0.22686,0.0749 0.20272,0.24518 0.29462,0.5198 0.20464,0.60979 -0.22193,0.22191 -0.96997,-0.42462 -0.96997,-0.8382 0,-0.50066 -0.7138,-1.03301 -0.84749,-0.632 -0.0746,0.22393 -0.31791,0.17733 -0.83302,-0.1602 -0.44927,-0.29436 -0.66999,-0.62597 -0.57723,-0.86764 0.15764,-0.41081 -0.2817,-1.11828 -0.69453,-1.11828 -0.13282,0 -0.1139,0.23812 0.0419,0.52917 0.37502,0.70071 0.0711,0.67587 -0.51005,-0.0419 -0.28263,-0.34905 -0.5913,-0.4917 -0.79323,-0.3669 -0.23797,0.14708 -0.24952,0.28482 -0.0424,0.49195 0.34123,0.34124 0.37636,0.71056 0.0677,0.71056 -0.12084,0 -0.57958,-0.50602 -1.01958,-1.12448 -0.77158,-1.0845 -0.84672,-1.71472 -0.25011,-2.1022 0.56451,-0.36662 -0.11602,-0.55736 -0.75965,-0.21291 -0.36335,0.19447 -0.70009,0.30374 -0.74827,0.24288 -0.0482,-0.0608 -0.614033,-0.69266 -1.257288,-1.40457 -0.930087,-1.02931 -1.047517,-1.25619 -0.574125,-1.1069 0.719244,0.22681 0.774163,-0.13317 0.111623,-0.73278 -0.558403,-0.50534 -0.868119,-0.56449 -0.773081,-0.14779 0.03638,0.15951 -0.201745,0.39353 -0.529167,0.52038 -0.533056,0.20652 -0.595312,0.1506 -0.595312,-0.53278 0,-0.41975 -0.148828,-0.81612 -0.330729,-0.88109 -0.181901,-0.065 -0.24515,-0.21006 -0.14056,-0.32246 0.104616,-0.11239 0.490389,-0.008 0.857313,0.23255 0.652566,0.42757 0.666129,0.4232 0.613397,-0.21394 -0.03926,-0.47448 -0.140348,-0.5799 -0.37207,-0.38758 -0.22783,0.18907 -0.372835,0.0914 -0.51108,-0.34416 -0.106177,-0.33453 -0.384037,-0.76493 -0.617532,-0.95653 -0.333534,-0.27369 -0.349875,-0.3789 -0.07545,-0.49196 0.253736,-0.10454 0.194853,-0.25261 -0.21549,-0.54002 -0.310647,-0.21759 -0.636383,-0.32376 -0.723987,-0.23616 -0.0876,0.0876 -0.03694,0.15916 0.112654,0.15916 0.149596,0 0.214744,0.29766 0.145212,0.66146 -0.09533,0.49862 -0.01405,0.66146 0.329697,0.66146 0.307152,0 0.403749,0.13671 0.295587,0.41858 -0.08832,0.23018 -0.160713,0.65381 -0.160713,0.94154 0,0.74473 -0.335997,0.44107 -1.051616,-0.95033 -0.361791,-0.70345 -0.780446,-1.17855 -1.003038,-1.13895 -0.210105,0.0374 -0.562594,-0.20019 -0.783415,-0.52761 -0.362625,-0.53769 -0.359717,-0.59531 0.02791,-0.59531 0.236008,0 0.428913,0.17859 0.428913,0.39687 0,0.21828 0.231222,0.39688 0.513665,0.39688 0.590917,0 1.057465,-0.57855 0.591695,-0.73381 -0.171291,-0.0571 -0.31161,-0.21284 -0.31161,-0.34623 0,-0.3656 0.732155,-0.29151 0.867648,0.0879 0.06495,0.18189 0.199618,0.25563 0.299207,0.16381 0.09962,-0.0918 -0.0114,-0.35971 -0.247015,-0.59531 -0.453946,-0.45395 -2.242757,-0.59896 -2.242757,-0.1819 0,0.14616 -0.349218,0.13499 -0.859896,-0.0274 -0.472942,-0.15038 -1.115914,-0.26335 -1.428853,-0.25115 -0.312936,0.0122 -0.642331,-0.16853 -0.731739,-0.40152 -0.129104,-0.33644 -0.03925,-0.38904 0.436665,-0.2558 1.309709,0.36666 2.848407,0.49051 2.848407,0.22944 0,-0.14711 0.371885,-0.34164 0.826307,-0.43253 0.716383,-0.14328 0.780243,-0.22071 0.480073,-0.58239 -0.286967,-0.34577 -0.281265,-0.45861 0.03359,-0.65785 0.208941,-0.1322 0.52865,-0.24231 0.710551,-0.24443 0.181901,-0.002 0.340435,-0.21249 0.351917,-0.46715 0.01363,-0.30241 0.06898,-0.34233 0.159679,-0.11575 0.108665,0.27154 0.243925,0.25183 0.622702,-0.0909 0.266145,-0.24085 0.419566,-0.60568 0.341064,-0.81029 -0.07853,-0.20461 -0.01122,-0.37207 0.149863,-0.37207 0.161105,0 0.293005,-0.11906 0.293005,-0.26458 0,-0.48067 -0.578552,-0.27592 -1.495515,0.52916 -0.569728,0.50023 -1.194361,0.79375 -1.688788,0.79375 -0.920218,0 -1.051094,0.43276 -0.189135,0.62529 0.327422,0.0731 -0.150794,0.10377 -1.062466,0.0677 -1.818915,-0.072 -1.884352,0.31333 -0.09405,0.55346 1.220642,0.16372 1.333309,0.32692 0.56017,0.80977 -0.425288,0.26571 -0.516855,0.26501 -0.463021,-0.003 0.04852,-0.24125 -0.344612,-0.32018 -1.421617,-0.28474 -1.003358,0.033 -1.486363,-0.0533 -1.480013,-0.26458 0.02405,-0.80009 -0.09594,-1.2392 -0.338481,-1.2392 -0.145521,0 -0.264583,0.23391 -0.264583,0.52038 0,0.35428 -0.126926,0.47256 -0.396875,0.36897 -0.218282,-0.0838 -0.396875,-0.3251 -0.396875,-0.5364 0,-0.2113 -0.119306,-0.31077 -0.2651,-0.22066 -0.145793,0.0901 -0.379793,-0.13872 -0.520382,-0.5085 -0.170781,-0.44918 -0.390131,-0.62068 -0.660942,-0.51676 -0.222941,0.0855 -0.40566,0.0326 -0.40566,-0.11782 0,-0.15042 0.20836,-0.32826 0.463021,-0.39481 0.254662,-0.0666 0.01654,-0.13453 -0.529166,-0.15141 -0.545704,-0.0169 -0.992188,-0.14562 -0.992188,-0.28629 0,-0.14067 -0.416719,-0.67252 -0.926042,-1.18184 -0.509322,-0.50932 -0.926041,-1.05274 -0.926041,-1.20768 0,-0.15494 -0.18201,-0.35176 -0.404628,-0.43718 -0.243564,-0.0935 -0.345929,-0.34095 -0.256831,-0.62167 0.0891,-0.28072 -0.01326,-0.52872 -0.256831,-0.62218 -0.222617,-0.0854 -0.404627,-0.33314 -0.404627,-0.55087 0,-0.21773 -0.247512,-0.5286 -0.549838,-0.6904 -0.319958,-0.17124 -0.488016,-0.45375 -0.402559,-0.67645 0.08075,-0.21042 -0.08063,-0.61031 -0.358634,-0.88831 -0.433351,-0.43335 -0.451684,-0.55032 -0.126606,-0.82011 0.535072,-0.44407 0.470709,-0.77876 -0.149863,-0.77876 -0.291042,0 -0.529167,-0.11536 -0.529167,-0.25632 0,-0.14095 -0.178593,-0.18814 -0.396875,-0.10438 -0.251314,0.0964 -0.396875,-0.004 -0.396875,-0.27285 0,-0.23386 0.0893,-0.42479 0.198438,-0.42479 0.109141,0 0.198437,-0.29765 0.198437,-0.66145 0,-0.36381 -0.01998,-0.66146 -0.04444,-0.66146 -0.527618,0 -0.75766,0.41366 -0.666109,1.19786 0.11989,1.02695 -0.181028,1.19369 -0.68833,0.38137 -0.289594,-0.46371 -0.241705,-0.66072 0.350883,-1.43764 l 0.686781,-0.9002 -0.546737,-0.54674 c -0.336992,-0.33699 -0.547254,-0.89017 -0.547254,-1.44074 0,-0.4915 -0.180993,-1.04394 -0.402558,-1.22783 -0.24034,-0.19946 -0.337526,-0.54019 -0.240813,-0.84491 0.09543,-0.30068 -0.01558,-0.7072 -0.269751,-0.98805 -0.237469,-0.2624 -0.407842,-0.58113 -0.378272,-0.70849 0.02957,-0.12735 -0.100981,-0.58869 -0.29042,-1.02526 l -0.344683,-0.79375 -0.173114,0.66146 c -0.152109,0.57994 -0.196369,0.60167 -0.35967,0.17674 -0.285546,-0.74303 -0.222438,-1.44119 0.144177,-1.59061 0.23064,-0.094 0.160824,-0.281 -0.230992,-0.61753 -0.639117,-0.54893 -1.058973,-2.46652 -0.54002,-2.46652 z m 23.73757,3.96874 c 0.286991,0 1.079252,4.23587 0.898652,4.80488 -0.110649,0.34859 -0.07507,0.49079 0.09612,0.38499 0.29056,-0.17958 0.7023,0.87688 1.23506,3.16879 0.23787,1.02322 0.24762,1.44497 0.0346,1.53376 -0.17741,0.074 -0.0733,0.3137 0.26303,0.60513 0.60394,0.52337 1.32952,2.77652 1.04335,3.2396 -0.0971,0.15701 -0.0519,0.28577 0.10025,0.28577 0.33147,0 1.13188,1.81454 0.93844,2.12752 -0.0746,0.12066 0.16414,0.51915 0.53072,0.88573 0.8041,0.8041 0.84506,1.22263 0.13746,1.40767 -0.76861,0.20099 -0.65033,0.69088 0.13074,0.54157 0.95605,-0.18277 1.47824,0.51665 0.78548,1.05213 -0.50561,0.39083 -0.50372,0.39741 0.0822,0.2589 0.45715,-0.10809 0.5842,-0.0366 0.52917,0.29765 -0.0456,0.27668 0.1356,0.46953 0.48834,0.51987 0.63111,0.09 2.23977,2.73467 1.76061,2.8944 -0.15451,0.0515 -0.21999,0.32623 -0.14572,0.61029 0.14716,0.5627 0.50164,0.6867 0.65422,0.22893 0.0527,-0.1581 0.41575,0.16213 0.80667,0.71158 0.57663,0.81044 0.64998,1.07376 0.38912,1.39527 -0.26601,0.32788 -0.24355,0.36749 0.12919,0.22789 0.5859,-0.21943 1.88999,1.27887 1.71049,1.96525 -0.0852,0.326 0.017,0.48666 0.3111,0.48938 0.24106,0.002 0.61681,0.12369 0.83509,0.26975 0.34284,0.2294 0.32483,0.32294 -0.13229,0.68781 -0.51231,0.40896 -0.50541,0.41844 0.22169,0.29198 0.76671,-0.13336 1.13913,0.14837 3.10472,2.35024 0.37417,0.41915 1.38399,1.35754 2.24431,2.08515 2.60839,2.206 2.97537,2.61707 2.43292,2.72489 -0.25466,0.0506 -0.46302,0.32115 -0.46302,0.60152 0,0.51608 -0.12978,0.57557 -0.7276,0.33434 -0.4948,-0.19965 -0.39926,-0.56064 0.19843,-0.75034 0.29105,-0.0924 0.52917,-0.33878 0.52917,-0.54725 0,-0.56806 -0.88244,-0.45658 -1.26762,0.1602 -0.18529,0.29668 -0.45424,0.46725 -0.59738,0.37878 -0.14314,-0.0885 -0.18843,-0.27673 -0.10077,-0.41857 0.2245,-0.36326 -0.41264,-1.05938 -0.77618,-0.84802 -0.16542,0.0962 -0.0924,-0.0634 0.16226,-0.35449 0.50046,-0.57213 0.61101,-1.14877 0.22014,-1.14877 -0.58769,0 -1.03507,0.33841 -0.90278,0.68316 0.16266,0.42394 -0.32267,0.51746 -0.57413,0.11059 -0.0899,-0.14552 -0.38165,-0.26459 -0.64854,-0.26459 -0.26688,0 -0.56047,-0.19573 -0.65215,-0.4346 -0.13576,-0.3538 -0.0959,-0.37519 0.21549,-0.11678 0.29826,0.24754 0.50307,0.24146 0.93276,-0.0269 0.63135,-0.39428 0.59916,-0.79973 -0.0713,-0.89813 -0.35435,-0.052 -0.42294,0.0637 -0.29972,0.50591 0.15232,0.54677 0.13592,0.54384 -0.35088,-0.0615 -0.28086,-0.34921 -0.45281,-0.85523 -0.38241,-1.12448 0.14015,-0.53592 -0.11471,-0.61797 -0.72347,-0.23306 -0.44402,0.28074 -1.68638,-0.6828 -1.42523,-1.10536 0.19743,-0.31945 -0.69563,-1.29906 -1.00821,-1.10588 -0.13745,0.0849 -0.10422,0.316 0.077,0.53434 0.24172,0.29126 0.24493,0.45892 0.0129,0.69091 -0.23199,0.23199 -0.30644,0.20505 -0.30644,-0.1111 0,-0.22957 -0.17596,-0.56346 -0.39119,-0.74208 -0.28427,-0.23592 -0.32047,-0.45766 -0.1323,-0.80925 0.35232,-0.65832 0.32783,-0.7829 -0.15347,-0.7829 -0.22688,0 -0.34208,-0.11465 -0.2558,-0.25425 0.1802,-0.29158 -0.40327,-1.33325 -0.74673,-1.33325 -0.1261,0 -0.1644,0.16842 -0.0853,0.37466 0.0791,0.20623 -0.0271,0.44066 -0.23617,0.52089 -0.44971,0.17257 -0.45672,0.13329 -0.12764,-0.73225 0.2067,-0.54367 0.16557,-0.69244 -0.22686,-0.81701 -0.26386,-0.0837 -0.69589,-0.63056 -0.95963,-1.21543 -0.31408,-0.69651 -0.6068,-1.01466 -0.84852,-0.9219 -0.26834,0.10297 -0.32328,-0.002 -0.20154,-0.38603 0.1193,-0.37585 0.0468,-0.5271 -0.2527,-0.5271 -0.23122,0 -0.56186,-0.32742 -0.73484,-0.7276 -0.17298,-0.40018 -0.53154,-1.01637 -0.79633,-1.36891 -0.37076,-0.49366 -0.40468,-0.68833 -0.14883,-0.84646 0.23312,-0.14407 0.13665,-0.27804 -0.32298,-0.4501 -0.50657,-0.18961 -0.68952,-0.15223 -0.80719,0.16536 -0.13551,0.36575 -0.1705,0.36387 -0.31625,-0.016 -0.09,-0.23462 -0.0475,-0.46492 0.094,-0.51212 0.1416,-0.0472 -0.11552,-1.00086 -0.57103,-2.11925 -0.65487,-1.60792 -0.89763,-1.96854 -1.16168,-1.72186 -0.24104,0.22516 -0.26452,0.53403 -0.0842,1.11001 0.13737,0.43891 0.31325,1.00676 0.39119,1.26142 0.078,0.25467 0.24713,0.46302 0.37569,0.46302 0.30673,0 0.30118,-0.0381 -0.1633,-1.1498 -0.21828,-0.52241 -0.39127,-1.10275 -0.38447,-1.28932 0.007,-0.18658 0.24177,0.24773 0.52193,0.96531 0.31306,0.8018 0.41723,1.4157 0.27079,1.59215 -0.14904,0.17959 0.10528,1.06631 0.67903,2.3673 0.50453,1.14405 0.87517,2.12257 0.8232,2.17454 -0.15097,0.15097 -2.83652,-5.31064 -2.83652,-5.76863 0,-0.22796 -0.17859,-0.84184 -0.39687,-1.36426 -0.21828,-0.52242 -0.39187,-1.45994 -0.38602,-2.08308 l 0.0103,-1.13275 0.40618,0.74931 c 0.22341,0.41222 0.34295,0.91462 0.26561,1.11621 -0.0774,0.20159 -0.027,0.43644 0.11214,0.52245 0.22609,0.13974 0.36475,-0.20902 0.28784,-0.72502 -0.0155,-0.1039 0.14882,-0.12082 0.36535,-0.0377 0.21654,0.0831 0.39378,0.019 0.39378,-0.14211 0,-0.16109 -0.17779,-0.29249 -0.39533,-0.29249 -0.82558,0 -3.087217,-6.58682 -2.50321,-7.29051 0.24186,-0.29141 0.24335,-0.38241 0.005,-0.38241 -0.171949,0 -0.22812,-0.13729 -0.124535,-0.30489 0.103585,-0.1676 -0.02694,-0.46194 -0.289904,-0.65422 -0.371581,-0.2717 -0.500486,-0.8064 -0.578776,-2.39779 -0.05982,-1.21548 -0.231408,-2.13082 -0.422199,-2.25206 -0.241905,-0.15371 -0.232613,-0.20521 0.03721,-0.20825 0.25826,-0.003 0.330057,-0.29956 0.257349,-1.06196 -0.05551,-0.58208 -0.02878,-1.05833 0.05943,-1.05833 z m 5.095812,0.13901 c 0.062,-0.0216 0.1295,0.0347 0.2067,0.15658 0.30367,0.47944 0.30677,2.54199 0.004,2.72903 -0.12972,0.0801 -0.18884,0.80138 -0.13177,1.60301 0.083,1.16596 0.0243,1.45779 -0.29352,1.45779 -0.21852,0 -0.3974,0.11906 -0.3974,0.26458 0,0.14552 0.11906,0.26458 0.26459,0.26458 0.14552,0 0.26458,0.24505 0.26458,0.54468 0,0.29962 -0.11906,0.4713 -0.26458,0.38137 -0.14553,-0.09 -0.40137,-0.0788 -0.56896,0.0248 -0.2123,0.13122 -0.16267,0.29212 0.16433,0.53123 0.43278,0.31646 0.43612,0.37624 0.0403,0.77205 -0.23604,0.23602 -0.44126,0.3314 -0.45579,0.21187 -0.0145,-0.11954 -0.11622,0.0806 -0.22634,0.44442 l -0.20051,0.66146 -0.1912,-0.69764 c -0.12687,-0.46233 0.028,-1.39849 0.4594,-2.77812 0.35788,-1.14445 0.7318,-2.91393 0.83096,-3.93258 0.1759,-1.8068 0.30917,-2.57415 0.49506,-2.63911 z m -19.785873,1.02578 c 0.01828,-0.006 0.03905,0.003 0.06201,0.0259 0.445228,0.436 1.149128,4.07464 0.971516,5.0214 -0.126373,0.67363 -0.05766,0.9377 0.294555,1.13481 0.335597,0.18781 0.466556,0.62165 0.48731,1.61282 0.01561,0.74568 0.105878,1.35675 0.200503,1.35754 0.160227,0.002 0.870895,2.45544 0.8816,3.04426 0.0026,0.14552 0.08202,0.32411 0.176734,0.39687 0.09471,0.0728 0.4519,0.82504 0.79375,1.67174 0.60507,1.49865 0.931619,1.81429 2.606042,2.52129 0.631706,0.26673 0.62125,0.27688 -0.235643,0.22583 -0.521748,-0.0311 -0.946383,0.0852 -1.01441,0.2775 -0.07362,0.20813 0.130554,0.33073 0.550871,0.33073 0.367339,0 0.721992,0.0893 0.788067,0.19844 0.06607,0.10914 -0.03466,0.34108 -0.223759,0.51573 -0.27002,0.24938 -0.467066,0.21034 -0.919324,-0.1819 -0.316732,-0.27471 -0.74487,-0.43478 -0.951364,-0.35554 -0.494753,0.18986 -0.482603,-0.2883 0.0181,-0.70383 0.504362,-0.41858 0.239678,-0.86458 -0.393774,-0.66353 -0.597432,0.18962 -0.942978,-0.29554 -0.548804,-0.77049 0.215164,-0.25926 0.193021,-0.43111 -0.08578,-0.66249 -0.269682,-0.22381 -0.427644,-0.23049 -0.556038,-0.0227 -0.322347,0.52157 -1.698929,0.0808 -1.715656,-0.54932 -0.0021,-0.0839 0.353052,-0.10025 0.789614,-0.0362 1.013386,0.14873 1.048965,-0.38834 0.146246,-2.20917 -0.564123,-1.13787 -0.649319,-1.21456 -0.661458,-0.59428 -0.0077,0.39159 -0.121354,0.77872 -0.252698,0.85989 -0.31278,0.19331 -0.785945,-1.19391 -0.984954,-2.88716 -0.124074,-1.05567 -0.06574,-1.42559 0.2682,-1.70274 0.535114,-0.4441 0.548439,-0.81803 0.02946,-0.81803 -0.291904,0 -0.396875,-0.30451 -0.396875,-1.15032 0,-0.63249 -0.07498,-2.2696 -0.166396,-3.63802 -0.09888,-1.48013 -0.08551,-2.21011 0.04237,-2.24896 z m -7.813476,0.42271 c 0.14552,0 0.264583,0.11906 0.264583,0.26458 0,0.14553 -0.119063,0.26459 -0.264583,0.26459 -0.145521,0 -0.264584,-0.11906 -0.264584,-0.26459 0,-0.14552 0.119063,-0.26458 0.264584,-0.26458 z m -0.04444,1.02734 c 0.05232,-0.0121 0.118949,0.0171 0.19689,0.0951 0.08371,0.0837 0.111633,0.49034 0.06253,0.90382 l -0.08888,0.7519 -0.208256,-0.75913 c -0.151003,-0.55066 -0.119245,-0.95532 0.03772,-0.99167 z m 19.27066,0.56844 c 0.04579,0.0295 0.0662,0.0909 0.04392,0.19017 -0.04612,0.20551 0.25931,1.96583 0.482142,2.77812 0.06988,0.25467 0.0021,0.46302 -0.150379,0.46302 -0.349832,0 -0.663464,-1.19301 -0.418063,-1.59008 0.101045,-0.16347 -0.02619,-0.45065 -0.28267,-0.6382 -0.281358,-0.20574 -0.39996,-0.51366 -0.299207,-0.77618 0.121743,-0.31727 0.486895,-0.51527 0.624253,-0.42685 z m -18.460889,1.84381 c 0.297402,0 0.574728,0.68825 0.362768,0.90021 -0.318498,0.31849 -0.59893,0.14468 -0.59893,-0.37104 0,-0.29104 0.106209,-0.52917 0.236162,-0.52917 z m 19.840133,1.08004 c 0.149624,0.0263 0.365845,0.19661 0.632002,0.50746 0.249185,0.29105 0.365088,0.51505 0.25735,0.49816 -0.769964,-0.12066 -1.121897,-0.32453 -1.121897,-0.65008 0,-0.26416 0.08292,-0.38179 0.232545,-0.35554 z m 61.374545,0.63976 0.52865,0.6537 c 0.29096,0.35974 0.46345,0.75988 0.38344,0.88935 -0.08,0.12948 -0.0188,0.31416 0.13591,0.4098 0.15472,0.0956 0.35146,0.75805 0.43718,1.47226 0.0857,0.71421 0.2962,1.4677 0.46767,1.67432 0.24561,0.29595 0.21642,0.42924 -0.13849,0.62787 -0.24778,0.13866 -0.44092,0.45433 -0.42943,0.70176 0.0126,0.27182 0.0733,0.31984 0.15348,0.12144 0.1007,-0.2492 0.22719,-0.23378 0.52503,0.0641 0.21587,0.21587 0.31851,0.51275 0.22789,0.65939 -0.0906,0.14664 -0.0389,0.26665 0.11524,0.26665 0.15412,0 0.27807,0.38695 0.27595,0.8599 -0.003,0.57148 -0.0787,0.74149 -0.22737,0.50694 -0.38254,-0.60347 -0.57741,0.3629 -0.25787,1.27951 0.20513,0.58847 0.19801,1.01281 -0.0264,1.55443 -0.17661,0.42639 -0.22681,1.06903 -0.11782,1.50327 0.16989,0.67692 0.21201,0.70282 0.39325,0.23926 0.11174,-0.28574 0.22603,-1.23373 0.25373,-2.10685 l 0.0501,-1.5875 0.26975,1.12138 c 0.21691,0.90171 0.18034,1.35575 -0.18603,2.3151 -0.25067,0.65638 -0.55181,1.19373 -0.66973,1.19373 -0.11792,0 -0.28828,0.19184 -0.37827,0.42633 -0.1198,0.31218 -0.0506,0.38264 0.25838,0.26407 0.27006,-0.10363 0.3805,-0.0428 0.30644,0.16898 -0.0636,0.182 -0.32355,0.29312 -0.57774,0.24701 -0.28051,-0.0509 -0.39224,0.0301 -0.2837,0.20567 0.0983,0.15912 0.36606,0.25625 0.59479,0.21601 0.27649,-0.0486 0.4502,0.16921 0.5178,0.64957 0.0792,0.5628 0.0118,0.68802 -0.30386,0.56689 -0.31131,-0.11946 -0.41224,0.0505 -0.43563,0.73278 -0.0168,0.48851 -0.009,1.09667 0.0165,1.35133 0.0419,0.41199 -0.24626,0.58506 -0.66095,0.39688 -0.30456,-0.13823 -0.96698,1.65738 -0.77876,2.11098 0.16767,0.40404 0.2375,0.36728 0.50901,-0.26562 0.32261,-0.75194 0.68007,-0.71416 0.68007,0.0718 0,0.24219 0.29765,0.60008 0.66145,0.79478 0.79637,0.4262 0.85762,0.79375 0.1323,0.79375 -0.30287,0 -0.52917,-0.1768 -0.52917,-0.4129 0,-0.71913 -0.45194,-0.16544 -0.60151,0.73691 -0.24196,1.45985 -1.26831,3.90932 -1.63815,3.90932 -0.19227,0 -0.41801,0.17859 -0.50177,0.39688 -0.0891,0.23214 -0.004,0.39687 0.20515,0.39687 0.2989,0 0.29746,0.17468 -0.009,1.06505 -0.54359,1.57776 -1.77307,3.41943 -1.89446,2.83756 -0.15693,-0.7521 -0.50076,-0.53498 -0.95653,0.60409 -0.23484,0.58695 -0.57541,1.10556 -0.75654,1.15291 -0.18114,0.0473 -0.7459,0.21194 -1.25523,0.36535 -0.50932,0.15341 -1.16416,0.33926 -1.4552,0.41341 -0.59978,0.15281 -1.7077,-0.28843 -2.14458,-0.85421 -0.16084,-0.20834 -0.47665,-0.30807 -0.70176,-0.2217 -0.55504,0.21299 -0.78818,-0.0734 -0.42065,-0.51624 0.37955,-0.45732 0.0576,-0.81674 -0.35863,-0.40049 -0.42527,0.42526 -1.25697,-0.33482 -1.0852,-0.99168 0.0697,-0.26635 -0.002,-0.5642 -0.16072,-0.66197 -0.15917,-0.0984 -0.28784,0.003 -0.28784,0.22634 0,0.23332 -0.1532,0.34583 -0.36225,0.26562 -0.21669,-0.0832 -0.44497,0.10607 -0.56896,0.47129 -0.19174,0.56476 -0.21545,0.54617 -0.31626,-0.2496 -0.0599,-0.47294 -0.22028,-0.8599 -0.35656,-0.8599 -0.13632,0 -0.24805,-0.22579 -0.24805,-0.50126 0,-0.57401 -0.59246,-0.88265 -1.2268,-0.63924 -0.29795,0.11434 -0.3937,0.0499 -0.30747,-0.2067 0.0767,-0.22809 0.39865,-0.33979 0.82889,-0.28784 0.57475,0.0694 0.67103,0.001 0.5271,-0.37414 -0.11991,-0.31244 -0.0774,-0.39788 0.13332,-0.26768 0.17026,0.10522 0.30954,0.41432 0.30954,0.6873 0,0.27298 0.12346,0.82156 0.2744,1.21853 0.19984,0.5256 0.35361,0.64221 0.56586,0.42995 0.21228,-0.21227 0.12419,-0.63728 -0.32504,-1.56425 -0.33928,-0.70012 -0.62419,-1.36209 -0.63252,-1.47123 -0.008,-0.10914 -0.11367,-0.16867 -0.23462,-0.13229 -0.12093,0.0364 -0.38466,-0.23151 -0.586,-0.59531 -0.40736,-0.73608 -0.51794,-1.41372 -0.13075,-0.8015 0.13536,0.21406 0.33829,0.2968 0.45114,0.18397 0.1846,-0.18462 -0.20906,-0.56892 -0.7953,-0.77567 -0.12237,-0.0432 -0.24143,-0.69941 -0.26458,-1.45883 -0.0248,-0.81496 -0.16358,-1.38114 -0.33797,-1.38131 -0.33459,-2.6e-4 -1.4242,-2.45679 -1.4242,-3.21065 0,-0.27164 -0.1755,-0.49351 -0.39016,-0.49351 -0.2962,0 -0.35014,0.19952 -0.22427,0.82889 0.12337,0.61686 0.0773,0.79987 -0.17984,0.71417 -0.42309,-0.14104 -0.88559,-1.27848 -0.51986,-1.27848 0.14084,0 0.2558,-0.11906 0.2558,-0.26458 0,-0.14552 -0.23813,-0.26459 -0.52917,-0.26459 -0.66024,0 -0.67865,-0.55108 -0.0444,-1.33428 0.55324,-0.68321 0.45844,-1.84072 -0.1509,-1.84072 -0.33036,0 -0.34041,0.0698 -0.0574,0.41083 0.28559,0.34413 0.24837,0.49643 -0.22841,0.93018 -0.31342,0.28513 -0.52339,0.44835 -0.46664,0.36328 0.0568,-0.0851 -0.0547,-0.4583 -0.24753,-0.82992 -0.35943,-0.6928 -0.26773,-1.40353 0.18087,-1.40353 0.13854,0 0.1772,-0.12134 0.0858,-0.26924 -0.0914,-0.14789 -0.25313,-0.21539 -0.35915,-0.14986 -0.10604,0.0655 -0.36538,0.008 -0.57671,-0.12764 -0.3344,-0.21506 -0.33298,-0.28125 0.0124,-0.50798 0.35695,-0.23431 0.19333,-0.38247 -0.33073,-0.29972 -0.10914,0.0172 -0.19843,-0.21357 -0.19843,-0.51315 0,-0.52059 -0.89674,-1.84737 -2.40399,-3.55637 -0.38502,-0.43656 -0.76238,-1.05483 -0.83871,-1.37356 -0.22349,-0.93328 0.48197,-0.30831 2.80913,2.48874 2.46682,2.96491 4.47769,6.73605 7.58869,14.23065 2.14944,5.17817 2.45133,5.73327 3.49694,6.42597 0.84024,0.55665 1.34138,0.66707 3.22254,0.709 1.81684,0.0405 2.25602,-0.0275 2.3828,-0.36794 0.18875,-0.50684 0.62197,-1.226 1.37098,-2.27479 0.51527,-0.72149 1.64449,-3.34575 2.08359,-4.84312 0.19773,-0.67436 0.39707,-0.62619 0.50695,0.12247 0.0389,0.26496 -0.10363,0.65605 -0.31678,0.8692 -0.34036,0.34035 -0.32759,0.40952 0.10749,0.56844 0.34345,0.12545 0.56875,0.0287 0.73432,-0.31574 0.13139,-0.27327 0.33975,-0.49661 0.46302,-0.49661 0.1233,0 0.22428,-0.17489 0.22428,-0.38861 0,-0.2368 -0.15513,-0.32944 -0.39688,-0.23668 -0.30128,0.11562 -0.39687,-0.0493 -0.39687,-0.68523 0,-0.51259 -0.10651,-0.77173 -0.27492,-0.66766 -0.29078,0.17973 -0.22348,-0.2626 0.40411,-2.65203 0.19111,-0.7276 0.4263,-1.88846 0.52245,-2.57969 0.12353,-0.88797 0.29572,-1.25677 0.58756,-1.25677 0.33165,0 0.35026,-0.0762 0.0935,-0.3855 -0.17587,-0.21191 -0.24012,-0.51454 -0.14262,-0.67232 0.23783,-0.3848 0.34441,-7.20541 0.11782,-7.54114 -0.0982,-0.14552 -0.25303,-1.57427 -0.34365,-3.175 -0.0907,-1.60072 -0.23472,-3.44619 -0.32039,-4.10104 z m -80.630735,0.14933 c 0.07599,0.0148 0.16749,0.0703 0.270267,0.17311 0.193897,0.1939 0.202499,0.43962 0.02687,0.75345 -0.238004,0.42529 -0.276823,0.41447 -0.448554,-0.12661 -0.16533,-0.52091 -0.07657,-0.84439 0.151413,-0.79995 z m 18.438667,0.51211 c 0.13806,0 0.322456,0.44018 0.409795,0.97824 0.258286,1.59167 -0.129892,1.49515 -0.475941,-0.11834 -0.106256,-0.49543 -0.07845,-0.8599 0.06615,-0.8599 z m 1.231966,0.27595 c 0.216996,-0.0171 0.485865,0.16213 0.691433,0.54622 0.337976,0.63153 0.07511,0.98955 -0.610817,0.83251 -0.284639,-0.0652 -0.463021,-0.35356 -0.463021,-0.74827 0,-0.40028 0.165413,-0.61338 0.382405,-0.63046 z m 0.307475,1.84078 c 0.279003,0 0.369967,0.14395 0.264583,0.41858 -0.08832,0.23018 -0.160713,0.46831 -0.160713,0.52917 0,0.0609 -0.119062,0.11059 -0.264583,0.11059 -0.145521,0 -0.264583,-0.23813 -0.264583,-0.52917 0,-0.30964 0.176508,-0.52917 0.425296,-0.52917 z m -0.941027,0.31471 c 0.0074,0.045 0.07814,0.58818 0.157096,1.20665 0.159464,1.24957 -0.07053,1.53489 -0.319876,0.39687 -0.08771,-0.40018 -0.203626,-0.87283 -0.257866,-1.05006 -0.05427,-0.17725 0.01482,-0.39252 0.153996,-0.47853 0.139171,-0.086 0.259268,-0.1199 0.26665,-0.0749 z m -11.590507,0.54622 c -0.06234,0.0252 -0.0646,0.19981 -0.0646,0.54777 0,0.7233 0.171749,0.84949 0.688848,0.5054 0.199089,-0.13248 0.135893,-0.35672 -0.198437,-0.70384 -0.241181,-0.2504 -0.363471,-0.37455 -0.425815,-0.34933 z m 12.97337,0.009 c 0.134837,-0.0954 0.418698,0.31529 0.530714,0.90123 0.09274,0.48507 -0.0053,0.83063 -0.299204,1.0542 -0.279347,0.21252 -0.317857,0.33518 -0.106455,0.34055 0.479293,0.0122 0.406577,0.98126 -0.08785,1.17099 -0.230162,0.0883 -0.456523,0.16071 -0.503328,0.16071 -0.04683,0 -0.126304,-0.61088 -0.176734,-1.35702 -0.06173,-0.91334 0.01611,-1.39768 0.238744,-1.48311 0.181901,-0.0698 0.33073,-0.29978 0.33073,-0.51108 0,-0.15667 0.02843,-0.24467 0.07338,-0.27647 z m -18.58078,0.54467 c 0.256122,0.0888 0.506463,0.48096 0.511598,0.9002 0.0062,0.50549 -0.472553,0.39361 -0.780833,-0.18242 -0.193989,-0.36247 -0.188153,-0.56682 0.02016,-0.69556 0.07776,-0.0481 0.163708,-0.0518 0.249081,-0.0222 z m 22.211561,1.4955 c -0.14552,0 -0.26458,0.11906 -0.26458,0.26458 0,0.14553 0.11906,0.26459 0.26458,0.26459 0.14552,0 0.26458,-0.11906 0.26458,-0.26459 0,-0.14552 -0.11906,-0.26458 -0.26458,-0.26458 z m -21.376986,0.37207 c 0.07324,0.003 0.155382,0.0624 0.239263,0.19482 0.125103,0.19744 0.229288,0.62704 0.23151,0.95447 0.0054,0.79656 -0.473281,0.76036 -0.676963,-0.0512 -0.150902,-0.60125 -0.01352,-1.10646 0.20619,-1.09813 z m 18.527035,0.7875 c 0.03975,-0.0505 0.104188,0.009 0.204121,0.16329 0.141076,0.21829 0.258228,0.54571 0.26045,0.72761 0.0021,0.1819 -0.114929,0.33073 -0.26045,0.33073 -0.145521,0 -0.26267,-0.32742 -0.260448,-0.72761 0.0016,-0.28349 0.01656,-0.44356 0.05633,-0.49402 z m -13.119613,0.44235 c 0.196943,0.0469 0.359151,0.2136 0.359151,0.47025 0,0.26679 -0.183563,0.48525 -0.408244,0.48525 -0.491615,0 -0.742606,-0.34164 -0.517798,-0.70539 0.138274,-0.22373 0.369948,-0.297 0.566891,-0.25011 z m -4.32997,0.35347 c 0.06936,-0.0694 0.196501,0.0576 0.282671,0.28215 0.178908,0.46622 0.02627,0.54822 -0.234609,0.12609 -0.09592,-0.1552 -0.117417,-0.33889 -0.04806,-0.40824 z m -0.515728,0.95342 c 0.161554,-0.0712 0.511024,0.16423 0.719336,0.55346 0.16243,0.3035 0.245157,0.60182 0.183967,0.66301 -0.129032,0.12903 -0.990121,-0.77343 -0.990121,-1.03767 0,-0.0975 0.03297,-0.15505 0.08682,-0.1788 z m 14.591874,0.55708 c 0.244623,-0.0509 0.402558,0.0649 0.402558,0.36226 0,0.25236 -0.153165,0.32944 -0.436666,0.22066 -0.361288,-0.13865 -0.405863,-0.0456 -0.259416,0.53795 0.104934,0.41812 0.06741,0.70486 -0.0925,0.70486 -0.148299,0 -0.26975,-0.19738 -0.26975,-0.43821 0,-0.38911 -0.06094,-0.3828 -0.546735,0.0568 -0.496676,0.44947 -0.507209,0.52377 -0.11679,0.80925 0.387085,0.28305 0.369848,0.35624 -0.173633,0.73691 -0.693658,0.48586 -1.014926,0.53596 -1.014926,0.15813 0,-0.14552 0.119063,-0.26458 0.264584,-0.26458 0.145521,0 0.264583,-0.13395 0.264583,-0.29766 0,-0.18962 -0.288105,-0.24014 -0.79375,-0.13901 -1.220279,0.24406 -1.027173,-0.53872 0.21549,-0.87333 0.555175,-0.1495 1.290688,-0.57094 1.634011,-0.93638 0.347199,-0.36958 0.678318,-0.58678 0.922941,-0.63769 z m 3.577042,1.13585 c 0.436192,0.0155 0.754346,0.14749 0.706932,0.29301 -0.10533,0.32328 -1.053605,0.49048 -1.312579,0.23151 -0.375073,-0.37508 -0.170693,-0.55209 0.605647,-0.52452 z m -12.378057,0.28009 c 0.07276,-0.0728 0.285326,0.0522 0.472323,0.2775 0.186994,0.22531 0.280501,0.46881 0.20774,0.54157 -0.07276,0.0728 -0.285329,-0.0517 -0.472323,-0.27699 -0.186997,-0.22531 -0.280501,-0.46932 -0.20774,-0.54208 z m -4.150651,0.53483 c 0.106015,-0.0282 0.286276,0.13902 0.512114,0.48369 0.263236,0.40175 0.422063,0.78717 0.352951,0.85628 -0.220215,0.22022 -1.063387,-0.89125 -0.945163,-1.24592 0.01786,-0.0536 0.04476,-0.0846 0.0801,-0.0941 z m 1.439706,0.40411 c 0.143505,0 0.453012,0.29353 0.688329,0.65267 0.235315,0.35914 0.386993,0.77138 0.336931,0.91571 -0.05006,0.14434 -0.360087,-0.14972 -0.688845,-0.65319 -0.328758,-0.50347 -0.47992,-0.91519 -0.336415,-0.91519 z m 15.095204,0.0341 c 0.14682,5.3e-4 0.302673,0.0284 0.457335,0.0884 0.431509,0.16728 0.427989,0.20534 -0.05064,0.55759 -0.670322,0.49333 -1.20613,0.48157 -1.20613,-0.0269 0,-0.37564 0.358971,-0.62106 0.799436,-0.61908 z m -7.133931,1.02422 c 0.299627,0 0.471305,0.11907 0.38137,0.26459 -0.08994,0.14552 -0.334976,0.26458 -0.544669,0.26458 -0.209692,0 -0.381373,-0.11906 -0.381373,-0.26458 0,-0.14552 0.245042,-0.26459 0.544672,-0.26459 z m -7.85327,0.57878 c 0.01804,-0.007 0.03796,-2.6e-4 0.05995,0.0217 0.08792,0.0879 0.09762,0.31646 0.02119,0.50746 -0.08446,0.21106 -0.146984,0.14803 -0.159682,-0.1602 -0.0086,-0.20918 0.02442,-0.34903 0.07855,-0.36897 z m 1.749766,0.49041 c 0.285679,0.0328 0.616138,0.1689 0.796332,0.38602 0.265777,0.32025 0.259424,0.39064 -0.03359,0.36587 -0.748091,-0.0632 -1.289328,-0.28051 -1.289328,-0.5178 0,-0.19646 0.240903,-0.26685 0.526584,-0.23409 z m 15.778879,0.55655 c 0.15007,0.0421 0.39895,0.56402 0.97823,1.85209 0.54679,1.2158 1.00985,2.27025 1.0294,2.34301 0.0195,0.0728 0.37228,0.59621 0.78341,1.16375 0.41111,0.56754 0.74724,1.16583 0.74724,1.32912 0,0.16329 0.34516,0.71519 0.76688,1.2268 0.4217,0.5116 0.941,1.34715 1.15394,1.85673 0.21291,0.50959 0.55236,1.10059 0.75447,1.3131 0.54989,0.57817 1.82263,2.31346 1.82263,2.48512 0,0.27932 -0.39292,0.13803 -1.92081,-0.69092 -1.79816,-0.97558 -3.87884,-3.41701 -5.14542,-6.03787 -0.90469,-1.87204 -1.51679,-5.21401 -1.18339,-6.46059 0.0691,-0.25834 0.12337,-0.40561 0.21342,-0.38034 z m -16.793805,0.10801 c 0.128223,-0.0287 0.58133,0.31406 1.296562,0.99942 0.647859,0.6208 1.386001,1.20832 1.64021,1.30587 0.254209,0.0975 0.461986,0.30001 0.461986,0.4501 0,0.15008 -0.111895,0.27285 -0.248562,0.27285 -0.307203,0 -2.711744,-2.04784 -3.016872,-2.56935 -0.170222,-0.29095 -0.210259,-0.44166 -0.133324,-0.45889 z m 76.842855,0.0847 c 0.0297,0.0292 0.066,0.0999 0.11007,0.20929 0.12874,0.3193 0.13161,0.90475 0.006,1.32291 -0.19442,0.64816 -0.22584,0.57052 -0.231,-0.57257 -0.003,-0.75805 0.0256,-1.04709 0.11473,-0.95963 z m -74.121057,0.56274 c 0.22687,0 0.412377,0.11907 0.412377,0.26459 0,0.14552 -0.112149,0.26458 -0.249081,0.26458 -0.136933,0 -0.322443,-0.11906 -0.412377,-0.26458 -0.08994,-0.14552 0.0222,-0.26459 0.249081,-0.26459 z m 18.426267,0 c -0.36357,0 -0.35968,0.15722 0.031,1.23766 0.17476,0.48327 0.41587,0.87901 0.53589,0.87901 0.12001,0 0.0532,-0.32742 -0.14883,-0.7276 -0.20206,-0.40019 -0.31453,-0.87644 -0.2496,-1.05834 0.0649,-0.1819 -0.0108,-0.33073 -0.16846,-0.33073 z m -9.845911,0.0434 c -0.342133,0.0486 -0.66167,0.29649 -0.710036,0.55036 -0.07202,0.37785 0.0213,0.4212 0.513146,0.23926 0.840581,-0.31096 0.987885,-0.90203 0.19689,-0.78962 z m 8.472351,0.74983 c 0.12996,0 0.30351,0.17498 0.3855,0.3886 0.1591,0.41463 -0.16991,0.76852 -0.45217,0.48628 -0.25214,-0.25215 -0.20482,-0.87488 0.0667,-0.87488 z m -16.129766,0.15451 c 0.115316,0.0131 0.257217,0.0471 0.397907,0.0982 0.281381,0.10215 0.394994,0.25797 0.252182,0.34623 -0.272939,0.16868 -1.103492,-0.22268 -0.888317,-0.41858 0.03427,-0.0312 0.122909,-0.0389 0.238228,-0.0259 z m 8.579321,0.44236 c -0.425344,0.10116 -0.402344,0.15333 0.170532,0.39067 0.746283,0.30919 1.032314,0.20395 0.605647,-0.22272 -0.156739,-0.15675 -0.50604,-0.23219 -0.776179,-0.16795 z m 8.231025,0.99064 c 0.53993,0 1.03605,0.9653 0.62631,1.21853 -0.20634,0.12752 -0.11759,0.26293 0.26407,0.40411 0.31591,0.11686 0.57412,0.32269 0.57412,0.45733 0,0.13465 -0.15982,0.30627 -0.35553,0.38138 -0.22577,0.0866 -0.56425,-0.2925 -0.92604,-1.03715 -0.67675,-1.39297 -0.68104,-1.4242 -0.18293,-1.4242 z m 53.96879,5.3e-4 c -0.0642,0 -0.11679,0.11906 -0.11679,0.26458 0,0.14552 0.126,0.26458 0.28009,0.26458 0.15412,0 0.20672,-0.11906 0.11679,-0.26458 -0.0899,-0.14552 -0.21593,-0.26458 -0.28009,-0.26458 z m -62.577569,0.0145 c -0.04872,-0.0447 -0.114617,0.0931 -0.230994,0.3824 -0.117078,0.29105 -0.161341,0.61847 -0.09819,0.72761 0.240769,0.4162 0.521605,0.1731 0.45837,-0.39688 -0.04891,-0.44105 -0.08047,-0.66839 -0.129191,-0.71313 z m -7.679118,0.2713 c 0.287885,0.0325 0.647774,0.16606 0.93586,0.38395 0.496237,0.37533 0.491768,0.38761 -0.132292,0.36742 -0.825007,-0.0267 -1.307414,-0.22221 -1.307414,-0.5302 0,-0.18533 0.215958,-0.25372 0.503846,-0.22117 z m 72.356307,0.0279 c 0.018,-0.007 0.038,2.4e-4 0.0599,0.0222 0.0879,0.0879 0.0976,0.31595 0.0212,0.50694 -0.0845,0.21107 -0.14698,0.14855 -0.15968,-0.15968 -0.009,-0.20918 0.0244,-0.34955 0.0786,-0.36948 z m -21.50774,0.0558 c -0.21677,0.089 -0.27432,0.51816 -0.0134,0.83251 0.3682,0.44366 0.78393,0.5079 0.78393,0.12092 0,-0.14552 -0.12596,-0.26458 -0.28008,-0.26458 -0.15412,0 -0.21187,-0.11103 -0.12816,-0.2465 0.0837,-0.13547 0.0397,-0.31582 -0.0982,-0.40101 -0.10168,-0.0628 -0.19181,-0.071 -0.26407,-0.0413 z m -47.91283,0.15917 c 0.145521,0 0.264583,0.17859 0.264583,0.39687 0,0.21828 -0.119062,0.39688 -0.264583,0.39688 -0.145521,0 -0.264583,-0.1786 -0.264583,-0.39688 0,-0.21828 0.119062,-0.39687 0.264583,-0.39687 z m -0.756026,1.13068 c 0.07375,0.0101 0.170638,0.0354 0.294556,0.0729 0.326506,0.0986 0.669607,0.255 0.762227,0.34778 0.09262,0.0928 0.09262,0.36853 0,0.61237 -0.134517,0.35414 -0.251751,0.38076 -0.581877,0.13229 -0.227298,-0.17108 -0.49404,-0.52751 -0.593246,-0.79168 -0.112953,-0.30079 -0.102894,-0.40402 0.11834,-0.37362 z m 69.655696,0.62166 c 0.10329,-0.0159 0.14471,0.0383 0.13797,0.1602 -0.0102,0.18525 -0.0995,0.53648 -0.19843,0.78031 -0.15172,0.37404 -0.25291,0.38917 -0.64751,0.0992 -0.43725,-0.32126 -0.42431,-0.37176 0.19844,-0.77979 0.24111,-0.15799 0.40623,-0.24404 0.50953,-0.25994 z m 0.49867,0.154 c 0.048,0.007 0.11431,0.0336 0.18707,0.0785 0.14552,0.0899 0.26459,0.26259 0.26459,0.38395 0,0.12137 -0.19186,0.2945 -0.42633,0.38448 -0.31205,0.11974 -0.38299,0.0506 -0.26459,-0.25787 0.089,-0.23183 0.16175,-0.47832 0.16175,-0.54777 0,-0.0347 0.0296,-0.0481 0.0775,-0.0413 z m -68.505371,0.31161 c 0.444367,0.20715 2.238637,1.94203 2.504757,2.47892 0.162296,0.32742 0.255257,0.59531 0.206706,0.59531 -0.167243,0 -2.810682,-2.87915 -2.810682,-3.06131 0,-0.0407 0.03574,-0.0425 0.09922,-0.0129 z m 5.176946,0.16381 c -0.136922,0 -0.249082,0.11906 -0.249082,0.26458 0,0.14552 0.185526,0.26458 0.41238,0.26458 0.226877,0 0.33901,-0.11906 0.249079,-0.26458 -0.08993,-0.14552 -0.275455,-0.26458 -0.412377,-0.26458 z m 8.486305,0.0718 c 0.0628,-0.009 0.14861,-0.008 0.25993,5.3e-4 0.31739,0.0239 0.52968,0.2298 0.52968,0.51314 0,0.62546 -0.44088,0.60264 -0.78496,-0.0403 -0.17302,-0.32328 -0.19313,-0.44611 -0.005,-0.47336 z m 1.39216,0.0315 c 0.0694,-0.0694 0.19649,0.0576 0.28267,0.28215 0.17891,0.46623 0.0263,0.54822 -0.23461,0.12609 -0.0959,-0.1552 -0.11743,-0.33888 -0.0481,-0.40824 z m -8.820132,0.42581 c -0.15412,0 -0.206722,0.11907 -0.11679,0.26459 0.08993,0.14552 0.215927,0.26458 0.280088,0.26458 0.06419,0 0.116787,-0.11906 0.116787,-0.26458 0,-0.14552 -0.125965,-0.26459 -0.280085,-0.26459 z m 41.621742,0.53692 c 0.0505,-0.005 0.14765,0.12132 0.33848,0.37362 0.21365,0.28248 0.38861,0.6099 0.38861,0.72761 0,0.25886 -0.37353,0.2812 -0.61753,0.0372 -0.097,-0.097 -0.17258,-0.42443 -0.16795,-0.7276 0.004,-0.27078 0.008,-0.40604 0.0584,-0.41083 z m -33.82325,0.53434 c 0.17333,0.10861 0.70808,0.82417 1.22524,1.72806 0.46109,0.80592 0.79213,1.5111 0.73588,1.56734 -0.10195,0.10194 -1.18854,-1.55366 -1.80145,-2.74505 -0.23773,-0.46212 -0.26368,-0.61552 -0.15967,-0.55035 z m 51.93068,0.78083 c -0.21199,0 -0.44928,0.24464 -0.52762,0.54416 -0.10618,0.40606 -0.0309,0.52299 0.29662,0.45992 0.55348,-0.10659 0.75995,-1.00408 0.231,-1.00408 z m -50.14372,0.0404 c 0.0777,0.0214 0.1722,0.0747 0.27958,0.16382 0.18541,0.15389 0.4363,0.27984 0.55758,0.28009 0.12126,2.4e-4 0.29986,0.0892 0.39688,0.1974 0.097,0.10821 0.0274,0.1114 -0.15451,0.007 -0.18191,-0.10468 -0.33073,-0.0647 -0.33073,0.0894 0,0.44698 -0.72025,0.32385 -0.90382,-0.15451 -0.16191,-0.42189 -0.0782,-0.64697 0.15502,-0.58291 z m -9.394251,0.25631 c -0.08754,0.0513 -0.05486,0.22799 0.104389,0.52555 0.224734,0.41991 0.373086,0.48216 0.602032,0.25321 0.22894,-0.22895 0.20677,-0.36554 -0.0904,-0.55345 -0.320843,-0.20285 -0.528438,-0.27662 -0.615981,-0.22531 z m 41.893051,0.23255 c 0.29104,0 0.52916,0.10622 0.52916,0.23617 0,0.2974 -0.68824,0.57473 -0.9002,0.36276 -0.3185,-0.31849 -0.14469,-0.59893 0.37104,-0.59893 z m 19.51302,0.57361 c 0.30526,-0.0609 0.59531,0.032 0.59531,0.33383 0,0.2284 -0.10927,0.41548 -0.24288,0.41548 -0.13361,0 -0.44338,0.0765 -0.68833,0.17053 -0.33565,0.1288 -0.42195,0.0473 -0.34985,-0.33073 0.0598,-0.31374 0.38048,-0.52823 0.68575,-0.58911 z m -63.095372,0.37821 c 0.103121,-0.0587 0.414689,0.2804 1.209744,1.16478 0.954828,1.0621 1.235188,1.54455 1.03818,1.78594 -0.148458,0.1819 -0.378299,0.33073 -0.510564,0.33073 -0.274767,0 -0.428167,-0.37478 -0.541568,-1.32292 -0.05487,-0.45869 -0.241281,-0.66145 -0.608232,-0.66145 -0.394123,0 -0.549267,-0.20256 -0.607713,-0.79375 -0.02863,-0.28944 -0.04172,-0.4681 0.02016,-0.50333 z m 11.959472,0.0124 c 0.37007,-0.14201 0.75278,0.4492 0.47232,0.72967 -0.26405,0.26403 -0.53506,0.17831 -0.68678,-0.21704 -0.0792,-0.20624 0.0174,-0.43702 0.21446,-0.51263 z m 32.12104,0.0941 c 0.2758,0 0.56006,0.23629 0.63665,0.52917 0.15481,0.592 -0.31542,0.71344 -0.81752,0.21135 -0.45924,-0.45923 -0.39045,-0.74052 0.18087,-0.74052 z m -40.82128,0.2067 c -0.44018,0.0409 -0.95188,0.40391 -0.95188,0.7829 0,0.46455 0.51341,0.41783 0.69815,-0.0636 0.0838,-0.21828 0.34796,-0.39889 0.58704,-0.40101 0.35756,-0.003 0.36844,-0.046 0.0615,-0.24029 -0.10924,-0.0692 -0.24809,-0.0917 -0.39481,-0.078 z m 12.75839,0.58705 c -0.17544,0 -0.15547,0.15162 0.0532,0.40308 0.18407,0.22179 0.38919,0.34874 0.45578,0.28215 0.18349,-0.18349 -0.18926,-0.68523 -0.50901,-0.68523 z m 46.57649,0.0134 c 0.29687,-0.01 0.83199,0.63099 0.83199,1.07694 0,0.27322 -0.10003,0.49712 -0.22221,0.49712 -0.27493,0 -0.90668,-1.3402 -0.71985,-1.52703 0.0304,-0.0304 0.0677,-0.0456 0.11007,-0.047 z m -55.86636,0.30489 c -0.048,0.007 -0.11431,0.0336 -0.18707,0.0786 -0.14552,0.0899 -0.26458,0.33498 -0.26458,0.54467 0,0.20969 0.19146,0.38137 0.42529,0.38137 0.27901,0 0.36997,-0.14394 0.26459,-0.41858 -0.0883,-0.23018 -0.16072,-0.47574 -0.16072,-0.54518 0,-0.0347 -0.0296,-0.0476 -0.0775,-0.0408 z m 6.22753,0.11834 c 0.0758,0.0308 0.12762,0.11734 0.15864,0.25993 0.13894,0.63851 -0.42969,1.08598 -0.65009,0.5116 -0.10803,-0.2815 -0.0325,-0.56024 0.18966,-0.69918 0.12596,-0.0788 0.22597,-0.10317 0.30179,-0.0724 z m 31.6854,0.62167 c 0.14552,0 0.26458,0.17116 0.26458,0.38085 0,0.2097 -0.11906,0.45525 -0.26458,0.54519 -0.14552,0.0899 -0.26458,-0.0817 -0.26458,-0.38137 0,-0.29963 0.11906,-0.54467 0.26458,-0.54467 z m -40.0327,0.29352 c -0.11154,0.0138 -0.25956,0.13987 -0.45268,0.37259 -0.27295,0.32885 -0.24715,0.49705 0.14107,0.92604 0.6259,0.69161 0.64678,0.67818 0.60617,-0.40153 -0.0237,-0.63039 -0.10866,-0.92007 -0.29456,-0.8971 z m 10.29653,0.0491 c 0.36806,-0.12268 1.23965,1.16811 1.02423,1.5167 -0.0874,0.14141 -0.28556,0.25735 -0.44029,0.25735 -0.17743,0 -0.15963,-0.1466 0.0481,-0.39687 0.32409,-0.3905 0.2599,-0.45177 -0.52916,-0.50385 -0.45839,-0.0302 -0.54046,-0.72745 -0.10284,-0.87333 z m 47.25862,0.27854 c 0.30246,0.007 0.6209,0.1771 0.68367,0.50333 0.0662,0.3441 -0.0857,0.46302 -0.59169,0.46302 -0.48784,0 -0.6811,-0.13973 -0.6811,-0.493 0,-0.32474 0.28665,-0.48049 0.58912,-0.47335 z m -16.92094,0.44855 c 0.0573,0 0.10455,0.13054 0.19741,0.39119 0.10252,0.2878 0.13071,0.67231 0.0625,0.85421 -0.0682,0.1819 -0.22066,0.33073 -0.33848,0.33073 -0.36664,0 -0.46382,-0.63735 -0.18087,-1.18494 0.13468,-0.26065 0.2021,-0.39119 0.25941,-0.39119 z m -31.03634,0.002 c 0.0359,0.019 0.002,0.13234 -0.0796,0.35088 -0.12181,0.32453 -0.0345,0.60726 0.25167,0.81649 0.24082,0.1761 0.38472,0.47932 0.31988,0.67386 -0.0773,0.23184 -0.31647,0.0747 -0.69454,-0.4563 -0.53504,-0.7514 -0.545,-0.83608 -0.13384,-1.17048 0.19504,-0.15863 0.30047,-0.23351 0.33642,-0.21445 z m -11.33988,0.52296 c 0.2758,-0.0153 0.6547,0.32603 0.71572,0.85473 0.0461,0.39894 -0.0196,0.72554 -0.14573,0.72554 -0.39507,0 -0.86403,-0.6138 -0.86403,-1.13068 0,-0.30253 0.12856,-0.44038 0.29404,-0.44959 z m 59.76638,0.25735 c 0.33517,0 0.33323,0.17082 -0.009,0.8108 -0.33898,0.63342 -1.44988,0.71933 -1.20974,0.0935 0.0883,-0.23018 0.16071,-0.48305 0.16071,-0.56172 0,-0.0787 0.17859,0.005 0.39687,0.18655 0.32505,0.26976 0.39688,0.25132 0.39688,-0.10025 0,-0.2361 0.11906,-0.42892 0.26458,-0.42892 z m -4.14807,0.0538 c -0.0545,-0.007 -0.0853,0.0308 -0.0853,0.11368 0,0.15038 0.0792,0.35258 0.17622,0.44959 0.097,0.097 0.23799,0.11497 0.31316,0.0398 0.0752,-0.0752 -0.004,-0.27739 -0.17622,-0.44959 -0.0949,-0.0949 -0.17335,-0.14656 -0.22789,-0.15347 z m -49.35771,0.48524 c -0.15879,0.008 -0.36946,0.0406 -0.62373,0.10438 -0.36352,0.0912 -0.59612,0.27057 -0.51677,0.39894 0.0804,0.13007 0.50022,0.0994 0.94826,-0.0698 0.6782,-0.25599 0.6686,-0.45687 0.19224,-0.43356 z m 2.45566,0.67541 c -0.61713,-0.005 -1.23242,0.24313 -0.84904,0.48007 0.17277,0.10678 0.24549,0.30482 0.16175,0.44028 -0.0837,0.13547 0.0894,0.2465 0.38447,0.2465 0.36817,0 0.48847,-0.12451 0.38396,-0.39687 -0.10801,-0.28142 0.0291,-0.40205 0.47128,-0.41393 l 0.62374,-0.0165 -0.59531,-0.23926 c -0.16916,-0.068 -0.37514,-0.0984 -0.58085,-0.10025 z m -5.6658,0.3731 c 0.20526,0 0.86882,0.84737 0.88057,1.12448 0.0127,0.30077 -0.37609,0.2373 -0.73278,-0.11937 -0.33567,-0.3357 -0.43399,-1.00511 -0.14779,-1.00511 z m -1.47846,0.0357 c 0.22508,0.0286 0.51521,0.27488 0.51521,0.50901 0,0.13693 -0.11213,0.24908 -0.24908,0.24908 -0.31215,0 -0.64585,-0.51638 -0.4563,-0.7059 0.0474,-0.0474 0.11514,-0.0617 0.19017,-0.0522 z m 56.56398,0.0238 c 0.40151,-0.0563 1.2159,0.15232 1.30638,0.42374 0.0602,0.18055 -0.16411,0.31058 -0.53588,0.31058 -0.66601,0 -0.99219,-0.19152 -0.99219,-0.58239 0,-0.0851 0.0879,-0.13318 0.22169,-0.15193 z m -2.16059,0.0496 c -0.0726,0.0224 -0.15088,0.11625 -0.24546,0.28525 -0.18743,0.33493 -0.31317,0.37492 -0.45578,0.14418 -0.13309,-0.21534 -0.24428,-0.13662 -0.34365,0.24339 -0.12483,0.47742 -0.0604,0.53642 0.42633,0.38964 0.79364,-0.23931 1.06503,-0.53955 0.83095,-0.91829 -0.0726,-0.11749 -0.13977,-0.16654 -0.21239,-0.14417 z m -37.71707,0.15554 c -0.14553,0 -0.33847,0.11906 -0.4284,0.26458 -0.0899,0.14553 -0.0442,0.26459 0.10129,0.26459 0.14552,0 0.33794,-0.11906 0.42788,-0.26459 0.0899,-0.14552 0.0447,-0.26458 -0.10077,-0.26458 z m -5.79035,0.0377 c 0.0391,-0.0466 0.18471,-0.0374 0.45889,0.003 0.34544,0.0504 0.67752,0.24081 0.73742,0.42272 0.15679,0.47603 -0.60056,0.40729 -1.01492,-0.092 -0.153,-0.18434 -0.22049,-0.28672 -0.18139,-0.33331 z m 2.63447,0.24649 c 0.021,-0.021 0.13729,0.0861 0.36587,0.30438 0.26299,0.25119 0.40546,0.52936 0.31677,0.61805 -0.0887,0.0887 -0.3037,-0.11694 -0.478,-0.45682 -0.15149,-0.29539 -0.22569,-0.44457 -0.20464,-0.46561 z m 27.78021,0.37672 c 0.14224,0.0113 0.21498,0.14758 0.21498,0.40566 0,0.60206 -0.40473,0.69766 -0.6165,0.14573 -0.0792,-0.20624 0.0271,-0.44066 0.23616,-0.5209 0.0628,-0.0241 0.11795,-0.0342 0.16536,-0.0305 z m 15.03164,0.13281 c 0.14552,0 0.26459,0.0521 0.26459,0.11627 0,0.0642 -0.11907,0.19067 -0.26459,0.28061 -0.14552,0.0899 -0.26458,0.0373 -0.26458,-0.11679 0,-0.15411 0.11906,-0.28009 0.26458,-0.28009 z m -52.95025,0.11989 c 0.0789,0.0123 0.13623,0.10421 0.20412,0.28112 0.22333,0.582 -0.26612,1.04861 -0.63148,0.60203 -0.20119,-0.24593 -0.17458,-0.43825 0.094,-0.68575 0.15438,-0.14222 0.25444,-0.20971 0.33332,-0.1974 z m 54.05458,0.15503 c 0.13509,-0.0248 0.23399,0.11127 0.17208,0.43047 -0.047,0.2426 -0.22539,0.4874 -0.39584,0.54415 -0.19714,0.0656 -0.25797,-0.0946 -0.16743,-0.4408 0.0846,-0.32335 0.25609,-0.50906 0.39119,-0.53382 z m -49.4869,0.0527 c -0.1015,-0.0125 -0.18641,-10e-4 -0.23254,0.045 -0.0665,0.0665 -0.0427,0.24787 0.0532,0.40307 0.21109,0.34155 0.93689,0.3772 0.93689,0.046 0,-0.20116 -0.45308,-0.45656 -0.75757,-0.49403 z m 47.53043,0.36949 c 0.14457,-0.0893 0.41031,0.0148 0.59014,0.23151 0.35701,0.43018 0.0767,0.52026 -0.49402,0.15864 -0.21807,-0.13816 -0.2558,-0.29147 -0.0961,-0.39015 z m -42.68938,0.0966 c 0.20849,0 0.4571,0.2468 0.55293,0.54881 0.23879,0.75228 0.0337,0.87345 -0.49299,0.29145 -0.53922,-0.59582 -0.55641,-0.84026 -0.0599,-0.84026 z m -8.18348,0.18242 c 0.21985,0.059 0.39584,0.23472 0.39584,0.49144 0,0.51188 -0.33956,0.64353 -0.88005,0.34107 -0.36243,-0.20284 -0.4029,-0.34748 -0.17364,-0.62374 0.17425,-0.20994 0.43799,-0.2678 0.65785,-0.20877 z m 47.67874,0.18087 c -0.048,-0.0211 -0.11431,-0.0114 -0.18707,0.0336 -0.14552,0.0899 -0.26458,0.21591 -0.26458,0.28008 0,0.0642 0.11906,0.11679 0.26458,0.11679 0.14552,0 0.26458,-0.12649 0.26458,-0.2806 0,-0.0771 -0.0296,-0.12871 -0.0775,-0.14986 z m -37.34759,0.0527 c 0.23247,0.0304 0.68618,0.28511 1.3038,0.75654 0.68027,0.51928 1.09621,0.94413 0.92397,0.94413 -0.17222,0 -0.245,0.17859 -0.16123,0.39687 0.17727,0.462 0.17629,0.4618 -0.41548,0.11679 -0.24863,-0.14494 -0.3879,-0.42915 -0.31006,-0.632 0.0904,-0.23568 -0.0709,-0.40058 -0.447,-0.4563 -0.32369,-0.048 -0.71603,-0.28976 -0.87126,-0.53744 -0.26668,-0.42549 -0.25521,-0.61902 -0.0227,-0.58859 z m 4.68292,0.12142 c 0.36163,-0.0153 0.20526,0.79917 -0.18191,0.94775 -0.2091,0.0802 -0.31532,0.31466 -0.23616,0.5209 0.14515,0.37827 -0.0453,0.44059 -0.62528,0.20464 -0.5479,-0.2229 0.33781,-1.64337 1.04335,-1.67329 z m 22.16919,0.008 c 0.13689,0.0303 0.2668,0.1644 0.35501,0.39429 0.0904,0.23544 0.0461,0.34177 -0.10387,0.24908 -0.14385,-0.0889 -0.26148,-0.0321 -0.26148,0.1266 0,0.15868 0.17786,0.35685 0.39532,0.44029 0.21744,0.0834 0.3296,0.25833 0.24909,0.3886 -0.0805,0.13028 -0.23937,0.2372 -0.35295,0.2372 -0.29978,0 -0.85431,-1.31903 -0.67593,-1.60766 0.11439,-0.18508 0.25791,-0.25867 0.39481,-0.2284 z m 13.46946,0.28783 c 0.20648,0.0688 0.18553,0.25118 -0.0687,0.59893 -0.27154,0.37133 -0.41803,0.41545 -0.56844,0.17208 -0.2363,-0.38233 0.20431,-0.9153 0.63717,-0.77101 z m -43.89138,0.22531 c -0.13692,0 -0.32245,0.11906 -0.41238,0.26458 -0.0899,0.14553 0.0222,0.26459 0.24908,0.26459 0.22688,0 0.41238,-0.11906 0.41238,-0.26459 0,-0.14552 -0.11213,-0.26458 -0.24908,-0.26458 z m 9.45627,0.10232 c 0.34314,-0.0569 0.62555,0.19699 0.47904,0.57878 -0.0766,0.19971 0.026,0.45545 0.2279,0.56844 0.2019,0.11299 0.402,0.32473 0.44441,0.47025 0.0424,0.14552 0.25903,0.22952 0.48163,0.18707 0.33959,-0.0648 0.34448,-0.0366 0.03,0.17518 -0.23429,0.15773 -0.61817,0.15956 -1.02423,0.005 -0.42132,-0.16018 -0.76551,-0.15054 -0.97927,0.0269 -0.2337,0.19394 -0.42652,0.1571 -0.66197,-0.12661 -0.27895,-0.3361 -0.24079,-0.39998 0.23874,-0.39998 0.47834,0 0.52767,-0.0817 0.30283,-0.50177 -0.19804,-0.37005 -0.16914,-0.5839 0.1111,-0.81649 0.11422,-0.0948 0.23547,-0.14796 0.34985,-0.16692 z m -15.15256,0.19276 c 0.46416,0.009 1.18287,0.2656 1.18287,0.50332 0,0.14275 -0.20836,0.25792 -0.46302,0.2558 -0.60031,-0.005 -1.29288,-0.445 -1.06299,-0.67489 0.0622,-0.0622 0.18842,-0.0871 0.34314,-0.0842 z m 8.34057,0.005 c 0.22509,0.0286 0.51522,0.27489 0.51522,0.50902 0,0.13693 -0.11213,0.24908 -0.24908,0.24908 -0.31216,0 -0.64585,-0.51638 -0.45631,-0.7059 0.0474,-0.0474 0.11515,-0.0617 0.19017,-0.0522 z m 6.71742,0.22893 c -0.22688,0 -0.33791,0.12082 -0.24649,0.26872 0.0914,0.14789 0.27691,0.20051 0.41237,0.11679 0.36701,-0.22681 0.29886,-0.38551 -0.16588,-0.38551 z m 30.42709,0 c -0.22688,0 -0.33902,0.11906 -0.24909,0.26458 0.0899,0.14552 0.27546,0.26459 0.41238,0.26459 0.13695,0 0.24908,-0.11907 0.24908,-0.26459 0,-0.14552 -0.18549,-0.26458 -0.41237,-0.26458 z m -25.49457,0.004 c 1.0505,0.002 1.56054,0.0908 1.33842,0.23152 -0.28028,0.17757 -0.28681,0.27184 -0.031,0.42994 0.19135,0.11826 0.42062,0.0369 0.55087,-0.19585 0.2508,-0.44817 0.31189,-0.44233 4.60179,0.45372 4.4033,0.91973 6.77581,1.28762 7.8574,1.21801 0.86921,-0.0559 1.1488,0.1048 2.51354,1.44384 0.84458,0.82865 2.03651,1.73378 2.64894,2.01125 1.06955,0.48456 1.66568,0.99403 1.21698,1.04025 -0.11772,0.0121 -0.48331,0.0519 -0.81287,0.0884 -0.47337,0.0524 -0.56711,-0.0352 -0.44545,-0.41858 0.16771,-0.52842 0.10767,-0.56637 -0.51987,-0.32556 -0.22937,0.088 -0.3579,0.25537 -0.28577,0.37207 0.0721,0.1167 -0.13694,0.14335 -0.46457,0.0589 -0.63169,-0.16281 -1.28664,-0.85808 -1.09709,-1.16478 0.23733,-0.384 -0.38075,-0.45973 -0.69195,-0.0847 -0.18669,0.22494 -0.7671,0.39429 -1.35289,0.39429 -0.88757,0 -1.02583,-0.0803 -1.02578,-0.59531 3e-5,-0.54794 -0.11022,-0.59179 -1.38906,-0.54622 -0.76401,0.0272 -1.91003,0.19457 -2.54661,0.37155 -1.01354,0.28178 -1.18762,0.26729 -1.40198,-0.11576 -0.13462,-0.24057 -0.42478,-0.43718 -0.64441,-0.43718 -0.22561,0 -0.32027,0.12784 -0.21756,0.29404 0.1,0.16179 0.0181,0.39801 -0.18242,0.52503 -0.29456,0.18658 -0.28245,0.23185 0.0646,0.23513 0.34383,0.003 0.39472,0.17507 0.25425,0.86196 -0.12007,0.58699 -0.33932,0.87512 -0.69402,0.91106 -0.40444,0.041 -0.418,0.0228 -0.062,-0.0827 0.32171,-0.0953 0.37736,-0.22775 0.18914,-0.44804 -0.1469,-0.17192 -0.44523,-0.55025 -0.66301,-0.84129 -0.39598,-0.52917 -0.3958,-0.52917 -0.32815,0 0.16516,1.29191 -0.98303,1.63316 -1.40663,0.41806 -0.29705,-0.85209 -0.9639,-1.24783 -1.38803,-0.82372 -0.47553,0.47553 -1.16238,0.29777 -1.75441,-0.45424 -0.32499,-0.41277 -0.50997,-0.52726 -0.42737,-0.26458 0.17471,0.55561 -0.18098,0.60874 -0.6103,0.0915 -0.23659,-0.28508 -0.22841,-0.39944 0.0341,-0.493 0.54078,-0.19272 0.058,-0.51123 -1.30793,-0.86351 -1.49288,-0.38504 -1.85996,-0.25723 -1.23713,0.43098 0.46884,0.51808 0.25186,0.6699 -0.38293,0.26769 -0.21971,-0.13922 -0.29191,-0.43796 -0.18655,-0.76998 0.11568,-0.36443 0.0269,-0.62434 -0.27026,-0.79065 -0.91528,-0.51221 0.12503,-0.54533 1.43918,-0.046 1.61782,0.61472 1.92086,0.64203 1.73478,0.15709 -0.0838,-0.21848 0.0896,-0.42173 0.43718,-0.51263 0.52721,-0.13786 0.56382,-0.074 0.42943,0.75396 -0.0807,0.49763 -0.0442,0.96865 0.0816,1.04645 0.29626,0.18309 0.56162,-0.25668 0.65216,-1.08159 0.0904,-0.82326 0.37313,-1.1217 0.64544,-0.68109 0.13586,0.21983 0.45922,0.27567 0.92346,0.15916 l 0.71468,-0.17932 -0.70125,-0.3638 c -0.38563,-0.20006 -0.78385,-0.31276 -0.88521,-0.25011 -0.22098,0.13657 -4.14029,-0.9684 -4.41731,-1.24541 -0.10662,-0.10664 0.57002,-0.19228 1.50379,-0.19017 z m 30.58056,0.10388 c 0.0961,0.0324 0.12049,0.22137 -0.003,0.54208 -0.0861,0.22456 -0.28353,0.40876 -0.43874,0.40876 -0.19566,0 -0.19135,-0.16927 0.0134,-0.5519 0.16422,-0.30684 0.33174,-0.43136 0.42789,-0.39894 z m -8.60619,0.0326 c -0.0842,0.0842 0.0221,0.26408 0.23616,0.39946 0.56012,0.35423 0.63335,0.31056 0.25166,-0.14934 -0.18409,-0.2218 -0.40363,-0.33431 -0.48782,-0.25012 z m 2.34507,0.12454 c -0.14552,0 -0.26458,0.11906 -0.26458,0.26458 0,0.14553 0.11906,0.26459 0.26458,0.26459 0.14552,0 0.26459,-0.11906 0.26459,-0.26459 0,-0.14552 -0.11907,-0.26458 -0.26459,-0.26458 z m -27.91354,0.008 c 0.14552,0 0.44318,0.11577 0.66146,0.25683 0.21828,0.14107 0.27781,0.25632 0.13229,0.25632 -0.14552,0 -0.44318,-0.11525 -0.66146,-0.25632 -0.21828,-0.14106 -0.27781,-0.25683 -0.13229,-0.25683 z m 22.10976,0.0476 c 0.27276,0.0162 0.51212,0.28451 0.51212,0.65267 0,0.27854 0.16738,0.36784 0.51676,0.27647 0.2843,-0.0743 0.73078,0.027 0.99219,0.22531 0.2844,0.21566 0.34257,0.36394 0.14469,0.36897 -0.1819,0.005 -0.33073,0.18738 -0.33073,0.40566 0,0.56695 -0.46061,0.49018 -0.79375,-0.1323 -0.15576,-0.29104 -0.42905,-0.52916 -0.60719,-0.52916 -0.45093,0 -1.03974,-0.99048 -0.71004,-1.19424 0.0907,-0.0561 0.18504,-0.0788 0.27595,-0.0734 z m -36.51405,0.20928 c 0.13695,0 0.24908,0.11907 0.24908,0.26459 0,0.14552 -0.18549,0.26458 -0.41237,0.26458 -0.22688,0 -0.33902,-0.11906 -0.24908,-0.26458 0.0899,-0.14552 0.27545,-0.26459 0.41237,-0.26459 z m 45.9481,0.031 c 0.11214,-0.007 0.20114,0.008 0.24081,0.0476 0.0793,0.0793 0.10402,0.33819 0.0548,0.57515 -0.0798,0.38425 -0.14663,0.38872 -0.61857,0.0398 -0.49775,-0.36802 -0.50104,-0.4022 -0.0548,-0.57516 0.13046,-0.0506 0.26561,-0.0802 0.37775,-0.0873 z m -38.51651,0.26304 c 0.0636,0.0191 0.11922,0.0774 0.15245,0.17053 0.0653,0.18281 0.22761,0.26519 0.3607,0.18293 0.13311,-0.0822 0.24184,-0.0301 0.24184,0.11628 0,0.34217 2.69182,2.13332 3.55534,2.36574 0.43051,0.11588 0.59019,0.29004 0.45941,0.50126 -0.14545,0.23488 -0.63905,0.0536 -1.80144,-0.66145 -2.31812,-1.42608 -3.43994,-2.3504 -3.16932,-2.61121 0.0657,-0.0633 0.13743,-0.0832 0.20102,-0.0641 z m -6.7691,0.0553 c 0.13642,-0.0442 0.38578,0.21622 0.55398,0.57878 0.16822,0.36256 0.28728,0.64469 0.26458,0.62683 -0.0227,-0.0179 -0.30973,-0.16575 -0.63769,-0.32814 -0.58433,-0.28934 -0.6727,-0.718 -0.18087,-0.87747 z m 15.66158,0.0253 c 0.0735,0.0174 0.14035,0.0629 0.18294,0.13177 0.0852,0.13784 0.0422,0.32048 -0.0956,0.40566 -0.13782,0.0852 -0.32046,0.0417 -0.40565,-0.0961 -0.0852,-0.13784 -0.0422,-0.31996 0.0956,-0.40515 0.0689,-0.0426 0.14923,-0.0535 0.22272,-0.0362 z m 6.2668,0.15451 c -0.22688,0 -0.33901,0.11906 -0.24908,0.26458 0.0899,0.14553 0.27546,0.26459 0.41238,0.26459 0.13695,0 0.24908,-0.11906 0.24908,-0.26459 0,-0.14552 -0.1855,-0.26458 -0.41238,-0.26458 z m 12.70414,0 c 0.21439,0 0.50628,0.21794 0.64905,0.48473 0.19032,0.35558 0.16716,0.48524 -0.0868,0.48524 -0.19058,0 -0.48245,-0.21845 -0.64906,-0.48524 -0.24228,-0.38795 -0.22497,-0.48473 0.0868,-0.48473 z m -33.71112,0.007 c 0.017,-0.037 0.12723,-0.005 0.34054,0.0754 0.26657,0.10001 0.59399,0.1819 0.72761,0.1819 0.13361,0 0.24288,0.11907 0.24288,0.26459 0,0.42197 -0.69492,0.30617 -1.09193,-0.1819 -0.15983,-0.19649 -0.23611,-0.303 -0.2191,-0.34004 z m 16.13493,0.25735 c 0.34039,0 0.45555,0.12949 0.35295,0.39688 -0.15645,0.40767 -0.67002,0.52785 -0.97049,0.22738 -0.27418,-0.2742 0.0722,-0.62426 0.61754,-0.62426 z m 29.87518,0 c 0.13692,0 0.30064,0.0893 0.3638,0.19844 0.1764,0.30493 -0.20708,1.17734 -0.42271,0.9617 -0.27742,-0.27743 -0.23258,-1.16014 0.0589,-1.16014 z m -22.71644,0.0326 c -0.0919,0.004 -0.17103,0.0279 -0.21498,0.0718 -0.0879,0.0879 0.0683,0.15049 0.34727,0.13901 0.30821,-0.0127 0.37076,-0.0752 0.15968,-0.15968 -0.0955,-0.0382 -0.20006,-0.0549 -0.29197,-0.0512 z m -13.91285,0.20567 0.85989,0.41651 c 0.47295,0.22922 0.8599,0.47358 0.8599,0.54261 0,0.28536 -0.50976,0.0911 -1.09502,-0.41703 z m 33.00677,0.045 c 0.73242,-0.0137 0.99219,0.0897 0.99219,0.39584 0,0.30402 0.1522,0.36653 0.56947,0.2341 0.46136,-0.14643 0.53655,-0.0958 0.39688,0.2682 -0.0948,0.24697 -0.1726,0.55463 -0.1726,0.68368 0,0.12905 -0.17777,0.16649 -0.39481,0.0832 -0.68175,-0.26161 -0.77647,0.6533 -0.12248,1.18287 0.47636,0.38573 0.50953,0.48473 0.16124,0.48473 -0.24059,0 -0.38201,-0.0557 -0.3142,-0.12351 0.13677,-0.13677 -1.02245,-1.11105 -1.32188,-1.11105 -0.10401,0 -0.0529,0.16459 0.11421,0.36587 0.23553,0.2838 0.20568,0.40373 -0.13333,0.53382 -0.59687,0.22905 -1.25828,-0.33481 -0.89969,-0.76688 0.20685,-0.24925 -0.19504,-0.40866 -1.7079,-0.67747 -2.11495,-0.37579 -2.96323,-1.04284 -1.32602,-1.04284 0.50475,0 0.91777,0.12436 0.91777,0.27647 0,0.26121 0.91642,0.19512 2.64584,-0.19017 0.62002,-0.13813 0.6283,-0.16061 0.13229,-0.36276 -0.41476,-0.16905 -0.31467,-0.21952 0.46302,-0.2341 z m -9.51776,0.0842 c 0.0693,-0.0693 0.19649,0.0576 0.28267,0.28216 0.17891,0.46622 0.0263,0.54874 -0.23462,0.12661 -0.0959,-0.15521 -0.11743,-0.33941 -0.048,-0.40877 z m -29.79198,0.16175 c 0.30231,0 0.69785,0.17859 0.87901,0.39688 0.18116,0.21828 0.28518,0.38274 0.23099,0.36586 -0.0542,-0.0169 -0.33682,-0.0881 -0.62786,-0.15812 -0.7978,-0.1919 -1.12701,-0.60462 -0.48214,-0.60462 z m 1.55132,0 c 0.39362,0 1.97352,0.87124 1.97352,1.08831 0,0.28541 0.0503,0.29295 -0.96014,-0.14676 -0.76343,-0.33223 -1.41933,-0.94155 -1.01338,-0.94155 z m -2.78898,0.26458 c 0.14552,0 0.26459,0.11907 0.26459,0.26459 0,0.14552 -0.11907,0.26458 -0.26459,0.26458 -0.14552,0 -0.26458,-0.11906 -0.26458,-0.26458 0,-0.14552 0.11906,-0.26459 0.26458,-0.26459 z m 40.7541,0.14005 c -0.14581,0.0337 -0.27285,0.1327 -0.27285,0.27233 0,0.0642 0.18553,0.11679 0.41238,0.11679 0.22688,0 0.33791,-0.12134 0.2465,-0.26923 -0.0755,-0.12219 -0.24021,-0.15359 -0.38603,-0.11989 z m -18.26451,0.12454 c -0.14552,0 -0.26459,0.11906 -0.26459,0.26458 0,0.14552 0.11907,0.26458 0.26459,0.26458 0.14552,0 0.26458,-0.11906 0.26458,-0.26458 0,-0.14552 -0.11906,-0.26458 -0.26458,-0.26458 z m -12.18169,0.0114 c 0.28718,0.0125 0.61092,0.12056 0.87023,0.31936 0.37569,0.28802 0.38195,0.37471 0.0476,0.67438 -0.31761,0.28464 -0.41137,0.2732 -0.54157,-0.0661 -0.0866,-0.22565 -0.38981,-0.4098 -0.67386,-0.4098 -0.28406,0 -0.44289,-0.11906 -0.35296,-0.26458 0.11288,-0.18262 0.36343,-0.26571 0.65061,-0.25322 z m 15.35669,0.25323 c -0.14552,0 -0.26459,0.11906 -0.26459,0.26459 0,0.14552 0.11907,0.26458 0.26459,0.26458 0.14552,0 0.26458,-0.11906 0.26458,-0.26458 0,-0.14553 -0.11906,-0.26459 -0.26458,-0.26459 z m 14.27199,0 c -0.13692,0 -0.24908,0.11906 -0.24908,0.26459 0,0.14552 0.18553,0.26458 0.41238,0.26458 0.22688,0 0.33901,-0.11906 0.24908,-0.26458 -0.0899,-0.14553 -0.27545,-0.26459 -0.41238,-0.26459 z m -10.0893,0.004 c -0.24606,-0.002 -0.52089,0.11544 -0.61082,0.26096 -0.20696,0.33486 0.14333,0.33486 0.66146,0 0.34203,-0.22103 0.33494,-0.25747 -0.0506,-0.26096 z m 14.07201,0.12867 -0.11214,0.66146 c -0.0615,0.3638 -0.12044,0.75076 -0.13126,0.8599 -0.0108,0.10914 -0.19823,0.19843 -0.41651,0.19843 -0.52652,0 -0.49254,-0.26065 0.13746,-1.05833 z m -10.52339,0.0837 c 0.10956,-0.0482 0.38299,0.0774 0.8015,0.37103 0.90061,0.63179 1.24586,0.99901 1.25264,1.33119 0.002,0.10914 -0.11493,0.19844 -0.26045,0.19844 -0.14552,0 -0.26459,-0.1113 -0.26459,-0.24702 0,-0.13571 -0.26789,-0.33035 -0.59531,-0.43253 -0.64513,-0.20133 -0.98165,-0.5811 -0.98805,-1.11466 -5.3e-4,-0.0549 0.0177,-0.0904 0.0543,-0.10645 z m -14.3459,0.0486 c -0.30821,0 -0.4868,0.11907 -0.39687,0.26459 0.0899,0.14552 0.26852,0.26458 0.39687,0.26458 0.12835,0 0.30695,-0.11906 0.39688,-0.26458 0.0899,-0.14552 -0.0887,-0.26459 -0.39688,-0.26459 z m 2.38125,0 c -0.14552,0 -0.26458,0.11907 -0.26458,0.26459 0,0.14552 0.11906,0.26458 0.26458,0.26458 0.14552,0 0.26459,-0.11906 0.26459,-0.26458 0,-0.14552 -0.11907,-0.26459 -0.26459,-0.26459 z m 6.10092,0 c -0.13692,0 -0.32244,0.11907 -0.41238,0.26459 -0.0899,0.14552 0.0222,0.26458 0.24909,0.26458 0.22688,0 0.41237,-0.11906 0.41237,-0.26458 0,-0.14552 -0.11213,-0.26459 -0.24908,-0.26459 z m -25.27959,0.12506 c 0.0444,-0.0186 0.1298,-0.007 0.24753,0.0382 0.22585,0.0867 0.41031,0.20429 0.41031,0.26148 0,0.21429 -0.504,0.0938 -0.65939,-0.15761 -0.0463,-0.075 -0.0429,-0.12357 0.002,-0.14211 z m 2.64222,0.41186 c 0.14552,0 0.44317,0.11577 0.66145,0.25683 0.21828,0.14107 0.27782,0.25632 0.1323,0.25632 -0.14553,0 -0.44318,-0.11525 -0.66146,-0.25632 -0.21828,-0.14106 -0.27782,-0.25683 -0.13229,-0.25683 z m 32.21973,0.21446 c 0.65654,0.0153 1.10986,0.19635 1.6335,0.60823 0.5526,0.43468 0.63755,0.61773 0.36638,0.78962 -0.19415,0.12308 -0.6506,0.22375 -1.01441,0.22375 -0.48514,0 -0.56282,-0.0626 -0.29197,-0.23409 0.50615,-0.32048 0.16468,-1.08055 -0.48524,-1.08055 -0.34494,0 -0.47974,0.129 -0.38706,0.37052 0.18381,0.47901 -0.73403,0.42621 -1.04283,-0.06 -0.26916,-0.42371 -0.19915,-0.50672 0.48731,-0.57981 0.27415,-0.0292 0.51548,-0.0428 0.73432,-0.0377 z m -13.15423,0.0424 c -0.22685,0 -0.41238,0.11907 -0.41238,0.26459 0,0.14552 0.11216,0.26458 0.24908,0.26458 0.13692,0 0.32245,-0.11906 0.41238,-0.26458 0.0899,-0.14552 -0.0222,-0.26459 -0.24908,-0.26459 z m 6.08542,0 c -0.54695,0 -0.8092,0.54836 -0.38706,0.80926 0.21511,0.13294 0.43804,0.0949 0.55914,-0.0956 0.30578,-0.48101 0.2495,-0.71366 -0.17208,-0.71366 z m -10.82053,0.0481 c -1.41872,0.0242 -1.75942,0.10703 -1.64641,0.40153 0.0785,0.20449 0.0247,0.29882 -0.11938,0.20981 -0.14385,-0.0889 -0.26148,-0.0427 -0.26148,0.10283 0,0.51382 0.56046,0.60079 1.19424,0.18552 0.62685,-0.41074 0.65511,-0.39613 1.24489,0.63665 0.66939,1.17218 1.12557,1.42478 0.73949,0.40928 -0.27313,-0.71837 -0.0208,-1.02697 0.63407,-0.77566 0.25789,0.099 0.41889,0.0221 0.41651,-0.19792 -0.009,-0.81714 -0.42912,-1.00225 -2.20193,-0.97204 z m -9.23355,0.0687 c 0.18957,0.079 0.32711,0.32159 0.32711,0.69247 0,0.53303 -0.42071,0.65844 -0.99218,0.29558 -0.26221,-0.16649 -0.257,-0.31134 0.0258,-0.69814 0.20788,-0.2843 0.44967,-0.36886 0.63923,-0.28991 z m 4.11758,0.0351 c 0.15648,0.0444 0.37427,0.23968 0.55242,0.5116 0.5076,0.77468 0.17457,0.88228 -0.48266,0.15606 -0.2581,-0.28519 -0.34545,-0.57024 -0.20205,-0.65887 0.0348,-0.0215 0.0801,-0.0236 0.13229,-0.009 z m 6.03064,0.11266 c 0.14552,0 0.1907,0.11906 0.10077,0.26458 -0.0899,0.14552 -0.28236,0.26458 -0.42788,0.26458 -0.14552,0 -0.19122,-0.11906 -0.10129,-0.26458 0.0899,-0.14552 0.28288,-0.26458 0.4284,-0.26458 z m -8.66045,0.36845 c 0.17757,0.0454 0.32296,0.30893 0.37827,0.77618 0.0821,0.6932 -0.17666,0.84252 -0.92966,0.5364 -0.23977,-0.0975 -0.24491,-0.28766 -0.0207,-0.7798 0.18489,-0.40579 0.39448,-0.57821 0.57205,-0.53278 z m 2.26032,0.68988 c 0.31819,0 1.07694,0.75873 1.07694,1.07694 0,0.13512 0.13193,0.24598 0.293,0.24598 0.16111,0 0.22667,-0.17257 0.14573,-0.38344 -0.0983,-0.25625 -0.0201,-0.33502 0.23616,-0.23668 0.21085,0.0809 0.38344,0.37255 0.38344,0.64802 0,0.6974 -0.89742,0.64533 -1.61592,-0.0941 -0.4641,-0.4776 -0.54533,-0.50135 -0.41031,-0.11886 0.10004,0.28343 0.062,0.41133 -0.0935,0.31523 -0.33139,-0.2048 -0.34465,-1.45314 -0.0155,-1.45314 z m 12.8509,0 c 0.65484,0 1.19062,0.11906 1.19062,0.26458 0,0.14552 -0.53578,0.26459 -1.19062,0.26459 -0.65484,0 -1.19063,-0.11907 -1.19063,-0.26459 0,-0.14552 0.53579,-0.26458 1.19063,-0.26458 z m 19.91196,0.31729 c 0.58222,0.11478 0.97284,0.85347 0.75344,1.42524 -0.14867,0.38739 -0.23528,0.41587 -0.40927,0.13436 -0.31142,-0.50389 -0.80926,-0.114 -0.80926,0.63407 0,0.4114 -0.19717,0.69078 -0.57206,0.80977 -0.51125,0.16227 -0.52518,0.20822 -0.12712,0.43098 0.24503,0.13713 0.37692,0.36107 0.29249,0.49764 -0.2182,0.35307 -0.53775,0.30786 -0.89917,-0.12764 -0.31036,-0.37394 -0.24718,-0.60066 0.55707,-2.00504 0.12502,-0.21828 0.35857,-0.73031 0.51883,-1.13792 0.17235,-0.43843 0.456,-0.70858 0.69505,-0.66146 z m -4.14445,0.0532 c 0.0775,-0.0495 0.15209,0.0119 0.25012,0.16743 0.16385,0.26001 0.12522,0.47711 -0.11679,0.65888 -0.19857,0.14915 -0.40728,0.50634 -0.46406,0.79375 -0.0776,0.39284 -0.15784,0.43633 -0.32246,0.17415 -0.12044,-0.19182 -0.38557,-0.28482 -0.58911,-0.20671 -0.20357,0.0781 -0.37,0.0267 -0.37,-0.11421 0,-0.14095 0.24124,-0.25631 0.53588,-0.25631 0.33933,0 0.63568,-0.2636 0.80874,-0.71882 0.10956,-0.28818 0.19016,-0.44863 0.26768,-0.49816 z m -29.65814,0.15865 c 0.14552,0 0.26459,0.11906 0.26459,0.26458 0,0.14552 -0.11907,0.26458 -0.26459,0.26458 -0.14552,0 -0.26458,-0.11906 -0.26458,-0.26458 0,-0.14552 0.11906,-0.26458 0.26458,-0.26458 z m 10.76782,0.0207 c 0.1392,-0.0153 0.33904,0.0785 0.60927,0.27285 0.33499,0.24098 0.32469,0.26215 -0.0662,0.13643 -0.34009,-0.10941 -0.46302,-0.003 -0.46302,0.39997 0,0.38547 0.12162,0.50285 0.40721,0.39326 0.22929,-0.088 0.471,0.0112 0.55397,0.22738 0.22167,0.57763 0.028,0.80755 -0.6041,0.71727 -0.45127,-0.0645 -0.58925,-0.29689 -0.66817,-1.12448 -0.0638,-0.66884 -0.001,-0.99717 0.23099,-1.02268 z m 17.24029,0.10129 c 0.074,0.0177 0.16619,0.0579 0.27234,0.1235 0.22749,0.14059 0.25425,0.27719 0.0765,0.38706 -0.151,0.0933 -0.35426,0.0408 -0.45165,-0.11679 -0.18227,-0.2949 -0.11925,-0.4469 0.10283,-0.39377 z m -1.12758,0.0372 c 0.21548,-0.0827 0.45571,0.0161 0.53382,0.21963 0.0781,0.20353 0.10304,0.67468 0.0558,1.04696 -0.0673,0.53002 -0.17188,0.62181 -0.48266,0.42323 -0.21828,-0.13948 -0.31069,-0.25575 -0.20515,-0.25786 0.10554,-0.002 0.083,-0.29144 -0.0506,-0.64286 -0.18378,-0.48333 -0.14754,-0.67537 0.14882,-0.7891 z m -2.33319,0.23306 c 0.0839,0.0109 0.18104,0.0976 0.31833,0.26304 0.41495,0.49996 0.29912,0.65981 -0.31574,0.43563 -0.28996,-0.10573 -0.37701,-0.28898 -0.24133,-0.5085 0.0844,-0.13653 0.15487,-0.2011 0.23874,-0.19017 z m -19.09599,0.0889 c 0.39479,-0.0169 0.93299,0.57169 0.72709,0.90485 -0.19571,0.3167 -0.5272,0.23769 -0.90331,-0.21549 -0.28612,-0.34473 -0.2828,-0.45657 0.0186,-0.64286 0.0479,-0.0296 0.10122,-0.0441 0.15762,-0.0465 z m 7.2161,0.0481 c 0.32276,0 0.56172,0.16875 0.56172,0.39687 0,0.21828 -0.10434,0.39688 -0.23203,0.39688 -0.12771,0 -0.38056,-0.1786 -0.56172,-0.39688 -0.27517,-0.33158 -0.23716,-0.39687 0.23203,-0.39687 z m 1.24592,0.33486 c 0.53525,0.0343 1.43247,0.30055 1.43247,0.49196 0,0.12733 -0.14883,0.22369 -0.33073,0.21446 -0.52178,-0.0265 -1.61173,-0.51011 -1.46968,-0.65216 0.0513,-0.0513 0.18952,-0.0657 0.36794,-0.0543 z m -9.77563,0.0119 c 0.17075,10e-6 0.39801,0.10656 0.57464,0.28319 0.39452,0.39451 0.38332,0.42839 -0.14211,0.42839 -0.65977,0 -1.01104,-0.4087 -0.58033,-0.67489 0.0405,-0.025 0.0909,-0.0367 0.1478,-0.0367 z m 26.22992,0.0935 c 0.10782,-0.0184 0.25877,-0.006 0.45113,0.0455 0.36103,0.0966 0.65868,0.265 0.66146,0.37414 0.003,0.10914 0.005,0.3175 0.005,0.46302 0,0.35662 -0.30133,0.32013 -0.85989,-0.10387 -0.51475,-0.39075 -0.58133,-0.72358 -0.25787,-0.77877 z m -14.11955,0.0889 c 0.54435,0 1.21439,0.74016 1.21439,1.34152 0,1.00795 -1.14364,0.51341 -1.41955,-0.61392 -0.13232,-0.54068 -0.0794,-0.7276 0.20516,-0.7276 z m 6.67711,0.32091 c 0.25029,-0.0122 0.53692,0.0842 0.77411,0.32143 0.44445,0.44445 0.49613,0.94516 0.0977,0.94516 -0.15412,0 -0.21187,-0.11104 -0.12816,-0.2465 0.0837,-0.13547 0.0411,-0.31531 -0.0951,-0.39946 -0.13618,-0.0841 -0.4244,0.0239 -0.64027,0.23978 -0.34698,0.34695 -0.41158,0.34168 -0.55914,-0.0429 -0.18232,-0.47509 0.13372,-0.79713 0.55087,-0.81752 z m -4.82245,0.0512 c 0.0902,-0.0171 0.27891,0.12137 0.54881,0.41961 0.406,0.44864 0.41698,0.53123 0.0708,0.53123 -0.22526,0 -0.48443,-0.196 -0.57619,-0.43511 -0.125,-0.32576 -0.13358,-0.4986 -0.0434,-0.51573 z m 1.5012,0.15709 c 0.13193,0 0.23978,0.0497 0.23978,0.11059 0,0.0609 0.0724,0.29899 0.16072,0.52917 0.0883,0.23018 0.0428,0.41858 -0.10129,0.41858 -0.14412,0 -0.3244,-0.23813 -0.40049,-0.52917 -0.0761,-0.29104 -0.0306,-0.52917 0.10128,-0.52917 z m -12.42818,0.0336 c 0.14387,-0.002 0.2971,0.014 0.42582,0.0476 0.25744,0.0671 0.111,0.12637 -0.32557,0.13177 -0.43656,0.005 -0.64731,-0.0495 -0.46818,-0.12196 0.0896,-0.0362 0.22407,-0.0556 0.36793,-0.0574 z m 18.52239,0.1447 c 0.18849,-0.0478 0.35898,0.11023 0.63923,0.53795 0.26144,0.39899 0.69333,0.95905 0.95963,1.24488 0.26628,0.28584 0.48421,0.73531 0.48421,0.99891 0,0.2636 -0.16031,0.47956 -0.35605,0.47956 -0.5003,0 -1.31082,-0.95836 -1.1622,-1.37408 0.18926,-0.52945 -0.32607,-1.33141 -0.75086,-1.1684 -0.48046,0.18437 -0.48931,-0.21019 -0.0134,-0.60513 0.0714,-0.0593 0.13664,-0.0978 0.19947,-0.11369 z m -12.7491,0.0863 c 0.13693,0 0.32245,0.11906 0.41238,0.26458 0.0899,0.14552 -0.0222,0.26458 -0.24908,0.26458 -0.22685,0 -0.41238,-0.11906 -0.41238,-0.26458 0,-0.14552 0.11216,-0.26458 0.24908,-0.26458 z m 14.91382,0.0315 c 0.0566,0.009 0.15654,0.12935 0.33487,0.36535 0.21992,0.29104 0.50827,0.52917 0.64027,0.52917 0.13197,0 0.38343,0.14362 0.55913,0.31936 0.24964,0.24963 0.2455,0.40877 -0.0191,0.7276 -0.4363,0.52571 -0.6254,0.51392 -1.15549,-0.0718 -0.33499,-0.37016 -0.36201,-0.55162 -0.11989,-0.79375 0.24212,-0.24212 0.24079,-0.31367 -0.004,-0.31367 -0.17462,0 -0.31365,-0.20836 -0.30902,-0.46302 0.004,-0.2065 0.0168,-0.30837 0.0734,-0.29921 z m 1.73633,0.12196 c 0.13142,-0.0812 0.38602,0.0293 0.56586,0.24598 0.26582,0.32032 0.24952,0.39429 -0.0868,0.39429 -0.49395,0 -0.81678,-0.43154 -0.47904,-0.64027 z m -8.23412,0.22427 c 0.28159,0.0404 0.49583,0.34238 0.54673,0.7705 0.099,0.83212 -0.22105,0.91577 -0.68161,0.17828 -0.45344,-0.72606 -0.41059,-1.02702 0.13488,-0.94878 z m -2.57969,0.71469 c 0.11989,0 0.23978,0.0181 0.33073,0.0548 0.1819,0.0734 0.0331,0.13385 -0.33073,0.13385 -0.3638,0 -0.51263,-0.0604 -0.33073,-0.13385 0.0909,-0.0367 0.21084,-0.0548 0.33073,-0.0548 z m 1.30741,0.23047 c 0.15412,0 0.28009,0.11907 0.28009,0.26459 0,0.14552 -0.0526,0.26458 -0.11679,0.26458 -0.0642,0 -0.19015,-0.11906 -0.28009,-0.26458 -0.0899,-0.14552 -0.0373,-0.26459 0.11679,-0.26459 z m 4.54753,0.44391 c 0.29824,-0.01 0.62986,0.10677 0.76326,0.35605 0.14362,0.26834 0.26097,0.55536 0.26097,0.63768 0,0.0823 -0.17491,0.14986 -0.38861,0.14986 -0.24903,0 -0.32939,-0.15344 -0.22427,-0.42736 0.13038,-0.33983 0.0474,-0.39065 -0.40515,-0.24701 -0.31305,0.0994 -0.56947,0.0675 -0.56947,-0.0708 0,-0.25353 0.26503,-0.38893 0.56327,-0.39842 z m 6.53242,0.40152 c 0.23597,-0.0417 0.28213,0.13118 0.45217,0.80874 0.13435,0.53524 0.0842,0.72708 -0.19017,0.72708 -0.8813,0 -1.33721,-1.14029 -0.57309,-1.4335 0.13245,-0.0508 0.23243,-0.0884 0.31109,-0.10232 z m -1.59009,1.00872 c 0.25641,0.003 0.81405,1.26282 0.63717,1.43971 -0.32623,0.32623 -0.79826,0.1106 -0.93947,-0.42943 -0.15343,-0.5867 -0.0258,-1.01398 0.3023,-1.01028 z m -1.36425,1.10433 c 0.23094,0.04 0.34581,0.21882 0.41858,0.59945 0.071,0.3715 0.11592,0.67339 0.0997,0.67127 -0.0162,-0.002 -0.32711,-0.15443 -0.69091,-0.33848 -0.80931,-0.40945 -0.85354,-0.82055 -0.0997,-0.92811 0.10552,-0.0151 0.19536,-0.0175 0.27234,-0.004 z" />
  </g>
</svg>
