<?xml version="1.0" encoding="UTF-8"?>
<!-- Created with Inkscape (http://www.inkscape.org/) -->
<svg width="89.576mm" height="62.945mm" version="1.1" viewBox="0 0 89.576 62.945" xmlns="http://www.w3.org/2000/svg">
 <g transform="matrix(-1 0 0 1 163.39 -212.46)" stroke-width=".26458">
  <path d="m91.682 212.47c-0.43141 0.0728-0.78356 0.41412-0.98237 0.79013-0.27428 0.61856-0.03671 1.3006 0.13821 1.9118 0.45927 1.4199 1.0462 2.7954 1.4797 4.2243 1.0025 3.197 1.8385 6.4463 2.526 9.7253 0.33671 1.6541 0.65973 3.3239 0.66914 5.0182-0.0047 0.64606 0.03462 1.3575-0.3374 1.9203-0.37921 0.49155-0.97048 0.74756-1.5125 1.0159-0.91658 0.40954-1.9794 0.69834-2.9685 0.38274-0.59825-0.1826-1.0308-0.67649-1.3098-1.2165-0.60045-1.1446-0.91816-2.409-1.2534-3.6498-0.68139-2.655-1.2293-5.3619-1.8321-8.0474-0.33037-1.4338-0.62242-2.8776-1.0124-4.2967-0.12829-0.43262-0.5493-0.81775-1.0237-0.72812-0.57669 0.10636-0.88779 0.69978-1.0073 1.2232-0.16572 0.87276-0.13952 1.768-0.15923 2.6526-0.0011 2.6572 0.09751 5.3156 0.31792 7.9638 0.07619 0.87946 0.16338 1.7637 0.40729 2.6154-0.6892-1.3796-1.3318-2.7876-1.8113-4.2552-0.36708-1.0257-0.82081-2.017-1.2907-2.9987-0.50967-1.1442-0.91529-2.3331-1.2827-3.5227-0.67239-1.9918-1.5109-3.9376-2.6091-5.7338-0.4191-0.64331-0.84647-1.3227-1.4962-1.7572-0.41454-0.27255-1.085-0.25442-1.3643 0.20154-0.23821 0.45471-0.12606 0.98939-0.09474 1.4783 0.17767 1.5111 0.36037 3.0232 0.62482 4.522 0.40788 2.1802 1.1694 4.271 1.8455 6.3773 0.8632 2.5195 1.907 4.9737 3.0062 7.3981 0.64622 1.3824 1.2804 2.7769 2.0782 4.0802 0.16146 0.27008 0.36947 0.5069 0.60926 0.70745 0.53172 0.61188 0.85172 1.3741 1.3993 1.9739 1.2528 1.4358 2.6905 2.6983 4.1687 3.896 1.0973 0.90501 2.3054 1.66 3.4362 2.5203 0.58851 0.52034 1.2457 0.95288 1.8931 1.3948 0.91013 0.72525 1.7082 1.5808 2.4806 2.4481 1.4598 1.6815 2.8662 3.4185 4.482 4.9558 0.80453 0.76724 1.7266 1.3974 2.6937 1.9409 1.4963 0.87213 2.9781 1.7698 4.4841 2.6249 2.2486 1.2173 4.6464 2.1454 7.094 2.8759 1.6328 0.46884 3.3004 0.88294 5.0042 0.9591 0.79506-0.0163 1.5451 0.30757 2.2585 0.62261 1.2395 0.62787 2.4897 1.2481 3.8124 1.6837 1.8861 0.64565 3.8778 0.86871 5.8438 1.1308 1.9393 0.23139 3.8826 0.46036 5.8356 0.53204 1.2882-0.0181 2.5797 0.0291 3.8554 0.21956 0.61408 0.0869 1.2026 0.1887 1.7903 0.30298 1.4872 0.30051 2.9718 0.61933 4.4748 0.83414 0.89741 0.13734 1.8189 0.17498 2.6804 0.48781 0.55217 0.20337 1.1439 0.43559 1.5195 0.91051 0.11795 0.15732-0.0267 0.35035 0.015 0.52762 0.0319 0.78952 0.63235 1.5532 1.4358 1.6594 0.3508 0.0707 0.74304-5e-3 1.0457 0.2281 0.31107 0.20979 0.71509 0.27564 1.0633 0.11845 1.08-0.3693 1.9351-1.163 2.785-1.8935 0.82576-0.74853 1.6634-1.4866 2.4489-2.2775 0.40855-0.46604 0.76997-0.97469 1.0976-1.5003 0.57528-1.0366 0.86093-2.305 0.51211-3.4634-0.178-0.545-0.48714-1.0846-1.0144-1.3553-0.4009-0.24434-0.85553-0.47294-1.3403-0.38588-0.0977-0.0258-0.37905 0.14665-0.3121-7e-3 0.40104-1.201 0.94692-2.3451 1.4644-3.4983 0.93204-2.1804 1.4308-4.5095 1.9889-6.8048 0.22817-1.0332 0.5193-2.0622 0.58752-3.1221 0.0169-0.47339 0.1379-0.93725 0.18096-1.4094 0.21709-1.6769 0.24734-3.3751 0.10824-5.0599-0.12734-1.6192-0.33001-3.2194-0.45851-4.8366-0.16069-1.4336-0.37177-2.862-0.61979-4.2827-0.19565-0.90484-0.39786-1.7989-0.52268-2.7234-0.043-0.75352-0.30779-1.4714-0.52311-2.1884-0.45967-1.3834-0.9525-2.7621-1.5984-4.0709-0.30834-0.59718-0.73556-1.1636-1.3147-1.5191-0.4019-0.2609-1.0166-0.11244-1.1973 0.34843-0.20627 0.54716-0.0872 1.1465-0.0438 1.7124 0.18554 1.6341 0.52901 3.2452 0.73779 4.8758 0.099 1.0829 0.14967 2.17 0.23164 3.2475 0.10989 1.7646 0.18631 3.5337 0.13423 5.3019-0.0138 0.43432-0.0366 0.92604-0.065 1.3821-0.0282 0.46506-0.0683 0.93767-0.1113 1.427-0.0497 0.50662-0.10044 1.0074-0.16623 1.4931-0.15124 0.93598-0.31606 1.9097-0.49513 2.8163-0.0983 0.47916-0.19037 0.91673-0.30548 1.3975-0.53259 2.2583-1.2438 4.4826-2.253 6.5756-0.16884 0.36028-0.31069 0.73532-0.4668 1.0986-0.15494 0.25534-0.32787 0.51293-0.48018 0.73421-0.43169 0.68871-1.0244 1.3222-1.8115 1.5907-0.9752 0.35039-2.0614 0.0919-2.9419-0.39401-0.89932-0.52942-1.401-1.493-1.8511-2.3956-0.85467-1.7956-1.492-3.6827-2.2843-5.5054-1.2508-2.9292-2.5996-5.8224-4.1698-8.5956-1.2175-2.1678-2.7424-4.1678-4.5386-5.8886-0.61882-0.56794-1.2565-1.1566-2.0422-1.482-0.39156-0.17002-0.93153-0.11294-1.1554 0.29062-0.22346 0.36057-0.12367 0.80473 0.042 1.1666 0.58308 1.4138 1.276 2.7804 1.9982 4.1277 0.23282 0.42999 0.48247 0.8525 0.78359 1.2374 0.48032 0.85326 0.84558 1.7689 1.1571 2.6959 0.14247 0.34886 0.10171 0.73749 0.25612 1.0824 0.17687 0.46794 0.50962 0.855 0.69042 1.3222 0.79249 1.7722 1.4117 3.6162 2.0079 5.462 0.48917 1.5094 0.89113 3.0446 1.2861 4.5806 0.46371 1.7418 0.95971 3.4745 1.454 5.2078-0.89233 0.0118-1.8077-0.0175-2.6534-0.33135-0.81501-0.2325-1.6944-0.38338-2.5028-0.51356-1.2945-0.22775-2.5495-0.51013-3.8289-0.80781-2.4386-0.48858-4.9281-0.6401-7.4076-0.75715-0.70609-0.0365-1.4122-0.0729-2.1183-0.10936-1.1193-0.6834-2.264-1.3338-3.293-2.1524-0.97268-0.72028-1.7929-1.6152-2.6693-2.444-1.6204-1.5898-3.2647-3.1578-4.8133-4.8186-0.40676-0.41506-0.72992-0.8976-1.034-1.3901-0.50799-0.75423-0.98063-1.5422-1.5968-2.2151-0.11712-0.12702-0.26496-0.22828-0.41709-0.30092-0.31265-0.7467-0.76659-1.4248-1.1833-2.1164-1.0422-1.6354-2.1082-3.2607-2.9848-4.9936-0.53386-1.05-1.0981-2.0864-1.576-3.1635-0.18729-0.39809-0.2636-0.8487-0.1563-1.2803 0.37457-1.7714 0.54954-3.5769 0.74777-5.3743 0.20388-2.076 0.40905-4.1552 0.45533-6.2418-9e-3 -0.85709 2e-3 -1.7483-0.32409-2.5557-0.18182-0.46321-0.65743-0.83831-1.1725-0.75781-0.52084 0.10535-0.77228 0.64087-0.96847 1.0808-0.60714 1.4682-0.71922 3.0692-1.0826 4.6022-0.10577 0.45999-0.21293 0.92848-0.34989 1.3752-0.0846-0.26285-0.15213-0.47989-0.22884-0.75361-0.37386-1.3866-0.67235-2.7921-1.0379-4.1808-0.24991-0.95544-0.4523-1.9226-0.62771-2.894-0.10061-0.44318-0.32932-0.97094-0.82682-1.0625-0.47449-0.0937-0.86365 0.31016-1.0459 0.70641-0.36235 0.76156-0.47029 1.6136-0.5333 2.4458-0.11999-0.2359-0.22399-0.469-0.31928-0.69046-0.47555-1.0984-0.94414-2.2093-1.5829-3.2251-0.4235-0.60807-0.74941-1.2752-1.09-1.9307-0.53118-0.88637-1.2054-1.7048-2.0422-2.3182-0.21394-0.13899-0.46862-0.23505-0.72657-0.19534zm10.623 31.625c0.36926 0.8198 0.72848 1.6452 1.0924 2.4666 0.44839 0.7576 1.0665 1.413 1.4263 2.222 0.0844 0.46342 0.40138 0.84244 0.6657 1.219 0.57881 0.7022 1.0849 1.4702 1.4334 2.3136 0.23985 0.51353 0.53922 1.0022 0.93737 1.4088 0.25566 0.30671 0.50154 0.62144 0.73949 0.94206-1.2301-0.59155-2.2362-1.5504-3.1087-2.5832-0.98559-1.1861-1.8339-2.4978-2.4425-3.9171-0.54051-1.3837-0.87216-2.8502-0.99568-4.3301 6e-3 -0.0774-0.0543-0.45911 0.0278-0.23491 0.0748 0.16443 0.14959 0.32886 0.22439 0.49329z" fill="#fff"/>
  <path d="m158.3 244.89-0.26097 1.527c-0.55644 3.2556-1.4902 6.4374-2.5657 8.7436-0.35814 0.76796-0.65113 1.4491-0.65113 1.5136 0 0.0645-0.37306 0.64628-0.82889 1.293-1.0049 1.4257-2.5114 1.9598-4.1444 1.4697-1.9324-0.58-2.6649-1.5891-4.4054-6.0694-1.8238-4.6946-4.3469-9.914-6.071-12.559-2.3524-3.6089-5.9816-6.8411-5.9816-5.3273 0 0.4423 2.266 5.0248 2.7239 5.5087 0.39727 0.41981 1.5095 3.1159 1.5095 3.6587 0 0.21947 0.16124 0.63384 0.35812 0.92087 0.73625 1.0734 2.5783 6.3004 3.4473 9.7824 0.21791 0.87313 0.74367 2.8079 1.1684 4.2995l0.77205 2.712h-1.2681c-0.69752 0-1.5878-0.12166-1.9787-0.27027-0.39084-0.1486-1.4407-0.38338-2.3327-0.52141-0.89191-0.13804-2.6336-0.49562-3.8706-0.79478-1.3485-0.32615-3.785-0.62332-6.0854-0.74208l-3.8364-0.19792-1.7167-1.0434c-0.94426-0.57383-2.254-1.5631-2.9104-2.1983-4.8731-4.7152-6.6311-6.4998-7.0554-7.1618-1.3803-2.1539-1.9744-2.945-2.2112-2.945-0.1437 0-0.26148-0.126-0.26148-0.27957s-0.62508-1.2533-1.3891-2.4438c-1.8048-2.8124-2.0863-3.3021-3.5285-6.1402-1.1803-2.3228-1.2032-2.4137-0.92449-3.7042 0.40804-1.8891 1.0813-8.6028 1.1074-11.044 0.0208-1.9468-0.24677-2.8463-0.84697-2.8463-0.42217 0-0.96823 1.4511-1.294 3.4396-0.17881 1.0914-0.5068 2.5692-0.72915 3.2846-0.39482 1.2702-0.41235 1.2857-0.73795 0.66146-0.18335-0.3515-0.52799-1.4722-0.76636-2.4908-0.23836-1.0186-0.60331-2.5069-0.8108-3.3073-0.20746-0.80037-0.44696-1.9017-0.53226-2.4474-0.27062-1.7309-1.1149-1.0397-1.371 1.1224-0.12192 1.0294-0.06941 1.4369 0.20774 1.6159 0.2654 0.17148 0.188 0.21365-0.27285 0.14882-0.52298-0.0736-0.80136-0.46541-1.4857-2.0924-0.46315-1.1011-1.0797-2.3405-1.3699-2.7544-0.29022-0.41385-0.72766-1.1801-0.97204-1.7027-0.24437-0.5226-0.85154-1.3448-1.3493-1.8273-0.76144-0.73801-0.96953-0.82368-1.3126-0.53898-0.59247 0.49171-0.52193 0.93356 0.63976 4.0163 1.5594 4.1381 3.6911 12.813 3.8819 15.797 0.18645 2.9158-0.03719 3.5204-1.6133 4.3594-2.2149 1.1791-4.1621 1.0614-5.1387-0.31006-0.85884-1.2061-1.4815-3.2931-2.8153-9.434-0.80342-3.699-1.4244-6.4222-1.6139-7.0776-0.21959-0.75966-0.83578-0.52563-1.0449 0.39687-0.34326 1.5143-0.0052 10.765 0.45682 12.502 0.43963 1.6528 0.53997 2.84 0.22324 2.6443-0.40077-0.24769-2.2249-3.9852-2.7755-5.687-0.25897-0.80037-0.8004-2.1142-1.203-2.9197s-0.99995-2.347-1.3276-3.4256c-1.174-3.8652-3.4185-7.9422-4.3723-7.9422-0.52624 0-0.53168 0.13037-0.13281 3.175 0.43824 3.3451 0.59082 3.9615 2.1611 8.7312 1.3195 4.008 4.7485 11.536 5.4581 11.983 0.18249 0.11479 0.64741 0.74711 1.033 1.4051 0.7405 1.2636 3.9866 4.2372 6.4911 5.9469 0.82125 0.56063 1.6547 1.1729 1.8521 1.3601 0.19739 0.18726 0.85264 0.66101 1.4562 1.0532 0.60359 0.39215 1.9365 1.7016 2.9621 2.9099 3.5374 4.1677 4.6064 5.2198 6.3557 6.2523 0.96538 0.56983 2.932 1.7269 4.3698 2.5714 3.6435 2.1402 9.6667 4.0876 12.646 4.0886 0.58286 1.8e-4 1.6437 0.34857 2.6458 0.86868 2.0398 1.0586 3.6277 1.65 5.3868 2.0066 2.3112 0.46856 8.1275 1.1177 9.7798 1.0914 2.1075-0.0335 3.7954 0.16541 6.7381 0.79426 1.342 0.2868 3.2198 0.60155 4.1729 0.69919 2.1102 0.21619 3.8883 1.2162 3.667 2.0624-0.076 0.2905 0.047 0.73226 0.27286 0.98186 0.43043 0.57963 1.1263 0.37403 1.5394 0.51418 0.38465 0.13048 0.5745 0.39228 0.87023 0.30747 1.0473-0.30035 1.9418-1.0547 4.6064-3.5336l0.31419-0.30128c0.40645-0.36941 0.7016-0.82574 1.0216-1.2671 0.66148-0.90704 1.0861-2.3805 0.67577-3.5148-0.16418-0.38491-0.27982-0.71355-0.78193-0.98214-0.47131-0.25213-0.68357-0.48089-1.5992-0.11827-0.25466 0.10086-0.46302 0.0901-0.46302-0.0243 0-0.41444 0.64171-2.1326 1.3808-3.6974 0.7539-1.5962 1.2287-3.0724 1.9528-6.073 0.76867-3.185 0.89969-3.8591 0.89969-4.6188 0 0 0.36798-1.9437 0.36956-4.0842 2e-3 -2.1953-0.36477-4.6103-0.49528-6.3699-0.11543-1.5563-0.63496-4.6385-0.63496-4.6385-0.31125-1.3824-0.56485-2.7344-0.56379-3.004 3e-3 -0.85326-1.5857-5.2894-2.2645-6.3226-0.35851-0.54571-0.84551-0.99219-1.0821-0.99219-0.48009 0-0.50286 0.58945 0.293 5.2632 0.22849 1.3418 0.22438 1.7874 0.30809 3.0404 0.0373 0.55836 0.25861 3.2037 0.2541 5.7115-5e-3 2.9409-0.37926 5.5531-0.37926 5.5531zm-66.387-30.959c0.14872-0.0796 0.34462 0.0982 0.75138 0.61702 1.1596 1.4792 2.2341 3.42 3.2546 5.8792 0.54348 1.3097 1.1777 2.798 1.4097 3.3073 0.23204 0.50933 0.45477 1.4916 0.49506 2.1828 0.07445 1.2771-0.24151 1.6933-0.54932 0.72347-0.09303-0.29316-0.27992-0.46484-0.41496-0.38137-0.13504 0.0835-0.24546-0.0894-0.24546-0.38448 0-0.36542 0.12494-0.48858 0.39222-0.38602 0.33168 0.12727 0.34728 0.0213 0.10077-0.68575-0.1837-0.527-0.4235-0.78585-0.64802-0.6997-0.26866 0.1031-0.31788-0.0559-0.19999-0.64543 0.09911-0.49556 0.04754-0.78187-0.14108-0.78187-0.1637 0-0.29766-0.18024-0.29766-0.40049 0-0.22026-0.11055-0.60721-0.24546-0.8599-0.13488-0.25268-0.32812-0.69753-0.42943-0.98857-0.16328-0.46902-0.20997-0.43895-0.41341 0.26459-0.16992 0.58761-0.132 0.86655 0.14676 1.0744 0.51758 0.3858 0.64356 1.7461 0.17673 1.9089-0.27665 0.0965-0.32658-0.0377-0.20051-0.54002 0.11163-0.44478 0.04732-0.71474-0.19224-0.80667-0.44865-0.17217-0.73261-1.5336-0.40308-1.9322 0.15669-0.18953 0.0986-0.41695-0.16174-0.63304-0.24289-0.20158-0.34132-0.54224-0.24443-0.84749 0.11933-0.37594 0.0114-0.54963-0.41031-0.65991-0.44498-0.11636-0.538-0.28642-0.41806-0.76429 0.11062-0.44079 0.0098-0.69252-0.35605-0.88832-0.62427-0.3341-1.2036-1.9586-0.89504-2.5099 0.04514-0.0807 0.08944-0.13572 0.13901-0.16226zm-16.641 3.189c0.53789 0 2.4354 4.0722 3.2055 6.8792 0.25951 0.94588 0.79871 2.3746 1.1979 3.175 0.39915 0.80036 0.99281 2.2678 1.3198 3.2613 0.57537 1.7481 1.6668 4.0331 2.8887 6.0477 0.7737 1.2756 3.8094 3.8535 5.3206 4.5186 0.65568 0.28855 1.687 0.53007 2.2918 0.5364 1.5476 0.0162 3.9519-1.2478 4.794-2.5203 0.36256-0.54788 0.82167-0.99581 1.0206-0.99581 0.24381 0 0.36174-0.33531 0.36174-1.0278 0-0.80496 0.11462-1.0574 0.52917-1.1658 0.34393-0.0899 0.52917-8e-3 0.52917 0.23358 0 0.20466 0.2482 0.37258 0.55139 0.37258 0.30363 0 0.50495 0.13883 0.44804 0.30955-0.1315 0.39449-1.2627 0.49177-1.2681 0.10903-0.0081-0.57162-0.51696 0.52388-0.5209 1.1214-0.0021 0.33782-0.1916 0.80191-0.42065 1.031-0.23987 0.23987-0.30883 0.48403-0.16278 0.57619 0.13944 0.088 0.29768 0.39401 0.35192 0.68006 0.07734 0.40777 0.31289 0.51932 1.0893 0.51625 0.63783-3e-3 0.99012 0.11814 0.99012 0.33951 0 0.18905-0.18276 0.34417-0.40618 0.34417-0.32975 0-0.35035 0.10339-0.11059 0.55139 0.16243 0.3035 0.24145 0.60604 0.1757 0.67179-0.2467 0.24668-1.4715-0.51381-1.5963-0.99116-0.16354-0.62536-0.60837-0.64472-0.76688-0.0336-0.17391 0.67054 0.03736 1.1156 0.4532 0.95601 0.19823-0.0761 0.72242 0.20822 1.1653 0.63149 0.63566 0.60745 0.7375 0.83864 0.48266 1.0971-0.2545 0.25812-0.22418 0.40042 0.14314 0.67179 0.41254 0.30477 0.42013 0.38215 0.06615 0.67593-0.51493 0.42736-0.51698 0.82454-0.0031 0.62735 0.48376-0.18563 0.55066 0.70249 0.08785 1.1653-0.23537 0.23538-0.2007 0.35031 0.14418 0.48266 0.67755 0.26 0.81024-0.0314 0.7705-1.6898l-0.0362-1.509 0.34882 1.2537c0.19174 0.68978 0.60509 1.7468 0.91881 2.3487 0.47633 0.91384 0.49947 1.0669 0.13901 0.92862-0.23741-0.0911-0.54126-0.16537-0.6749-0.16537-0.13361 0-0.24288-0.17859-0.24288-0.39687 0-0.32883-0.0837-0.31749-0.48731 0.0661-0.59155 0.56219-0.49266 0.85901 0.22324 0.67179 0.40693-0.10642 0.52866-8e-3 0.52866 0.42685 0 0.3109 0.2927 1.0293 0.6506 1.5963 0.68014 1.0774 1.2015 1.5573 1.2015 1.1064 0-0.14552-0.12059-0.33924-0.2682-0.43046-0.38979-0.24091-1.3839-2.2701-1.2015-2.4526 0.0851-0.0851 0.55613 0.23429 1.0464 0.70952 0.65143 0.63139 0.85147 1.0184 0.74362 1.4371-0.12739 0.49464-0.0908 0.52628 0.26769 0.23254 0.35412-0.2902 0.49464-0.21229 0.95446 0.52916 1.0786 1.7392 3.0103 3.1662 5.2798 3.9005 1.3404 0.43372 2.7614 1.6793 2.0727 1.817-0.50892 0.1017-0.54483 0.3538-0.1111 0.78754 0.35266 0.35267 0.77776 0.42796 0.67489 0.11938-0.21328-0.63985 0.47996-0.29956 1.6624 0.81649 1.3728 1.2956 1.448 1.5373 0.52296 1.6784-0.36155 0.0552-0.46826-0.0376-0.36174-0.31523 0.0831-0.21657 0.0622-0.39378-0.0465-0.39378v-5.2e-4c-0.10869 0-0.33257 0.18508-0.49765 0.41082-0.25958 0.35501-0.38082 0.30141-0.8971-0.39687-0.32827-0.44402-0.72675-0.8077-0.88573-0.8077-0.18905 0-0.17344 0.13982 0.0455 0.40359 0.39555 0.47663 0.18537 0.7846-0.38602 0.56534-0.23254-0.0892-0.33744-0.32742-0.24753-0.56173 0.0984-0.25652 7e-3 -0.4072-0.24753-0.4072-0.22196 0-0.61153-0.0798-0.86558-0.17725-0.34192-0.1312-0.40505-0.0851-0.24288 0.17725 0.16219 0.26239 0.099 0.30844-0.24288 0.17724-0.25405-0.0975-0.57123-0.17724-0.70487-0.17724-0.13361 0-0.24288-0.11907-0.24288-0.26459s0.13396-0.23482 0.29766-0.19844c0.16372 0.0364 0.35237-0.0826 0.4191-0.26458 0.0777-0.21203-0.0292-0.27304-0.29766-0.17001-0.23045 0.0884-0.4191 0.0573-0.4191-0.0687 0-0.12608-0.26789-0.39605-0.59531-0.59996-0.54758-0.341-0.56574-0.3351-0.22686 0.0749 0.20272 0.24518 0.29462 0.5198 0.20464 0.60979-0.22193 0.22191-0.96997-0.42462-0.96997-0.8382 0-0.50066-0.7138-1.033-0.84749-0.632-0.0746 0.22393-0.31791 0.17733-0.83302-0.1602-0.44927-0.29436-0.66999-0.62597-0.57723-0.86764 0.15764-0.41081-0.2817-1.1183-0.69453-1.1183-0.13282 0-0.1139 0.23812 0.0419 0.52917 0.37502 0.70071 0.0711 0.67587-0.51005-0.0419-0.28263-0.34905-0.5913-0.4917-0.79323-0.3669-0.23797 0.14708-0.24952 0.28482-0.0424 0.49195 0.34123 0.34124 0.37636 0.71056 0.0677 0.71056-0.12084 0-0.57958-0.50602-1.0196-1.1245-0.77158-1.0845-0.84672-1.7147-0.25011-2.1022 0.56451-0.36662-0.11602-0.55736-0.75965-0.21291-0.36335 0.19447-0.70009 0.30374-0.74827 0.24288-0.0482-0.0608-0.61403-0.69266-1.2573-1.4046-0.93009-1.0293-1.0475-1.2562-0.57412-1.1069 0.71924 0.22681 0.77416-0.13317 0.11162-0.73278-0.5584-0.50534-0.86812-0.56449-0.77308-0.14779 0.03638 0.15951-0.20174 0.39353-0.52917 0.52038-0.53306 0.20652-0.59531 0.1506-0.59531-0.53278 0-0.41975-0.14883-0.81612-0.33073-0.88109-0.1819-0.065-0.24515-0.21006-0.14056-0.32246 0.10462-0.11239 0.49039-8e-3 0.85731 0.23255 0.65257 0.42757 0.66613 0.4232 0.6134-0.21394-0.03926-0.47448-0.14035-0.5799-0.37207-0.38758-0.22783 0.18907-0.37284 0.0914-0.51108-0.34416-0.10618-0.33453-0.38404-0.76493-0.61753-0.95653-0.33353-0.27369-0.34988-0.3789-0.07545-0.49196 0.25374-0.10454 0.19485-0.25261-0.21549-0.54002-0.31065-0.21759-0.63638-0.32376-0.72399-0.23616-0.0876 0.0876-0.03694 0.15916 0.11265 0.15916 0.1496 0 0.21474 0.29766 0.14521 0.66146-0.09533 0.49862-0.01405 0.66146 0.3297 0.66146 0.30715 0 0.40375 0.13671 0.29559 0.41858-0.08832 0.23018-0.16071 0.65381-0.16071 0.94154 0 0.74473-0.336 0.44107-1.0516-0.95033-0.36179-0.70345-0.78045-1.1786-1.003-1.139-0.2101 0.0374-0.56259-0.20019-0.78342-0.52761-0.36262-0.53769-0.35972-0.59531 0.02791-0.59531 0.23601 0 0.42891 0.17859 0.42891 0.39687s0.23122 0.39688 0.51366 0.39688c0.59092 0 1.0575-0.57855 0.5917-0.73381-0.17129-0.0571-0.31161-0.21284-0.31161-0.34623 0-0.3656 0.73216-0.29151 0.86765 0.0879 0.06495 0.18189 0.19962 0.25563 0.29921 0.16381 0.09962-0.0918-0.0114-0.35971-0.24702-0.59531-0.45395-0.45395-2.2428-0.59896-2.2428-0.1819 0 0.14616-0.34922 0.13499-0.8599-0.0274-0.47294-0.15038-1.1159-0.26335-1.4289-0.25115-0.31294 0.0122-0.64233-0.16853-0.73174-0.40152-0.1291-0.33644-0.03925-0.38904 0.43666-0.2558 1.3097 0.36666 2.8484 0.49051 2.8484 0.22944 0-0.14711 0.37188-0.34164 0.82631-0.43253 0.71638-0.14328 0.78024-0.22071 0.48007-0.58239-0.28697-0.34577-0.28126-0.45861 0.03359-0.65785 0.20894-0.1322 0.52865-0.24231 0.71055-0.24443 0.1819-2e-3 0.34044-0.21249 0.35192-0.46715 0.01363-0.30241 0.06898-0.34233 0.15968-0.11575 0.10866 0.27154 0.24392 0.25183 0.6227-0.0909 0.26614-0.24085 0.41957-0.60568 0.34106-0.81029-0.07853-0.20461-0.01122-0.37207 0.14986-0.37207 0.1611 0 0.293-0.11906 0.293-0.26458 0-0.48067-0.57855-0.27592-1.4955 0.52916-0.56973 0.50023-1.1944 0.79375-1.6888 0.79375-0.92022 0-1.0511 0.43276-0.18914 0.62529 0.32742 0.0731-0.15079 0.10377-1.0625 0.0677-1.8189-0.072-1.8844 0.31333-0.09405 0.55346 1.2206 0.16372 1.3333 0.32692 0.56017 0.80977-0.42529 0.26571-0.51686 0.26501-0.46302-3e-3 0.04852-0.24125-0.34461-0.32018-1.4216-0.28474-1.0034 0.033-1.4864-0.0533-1.48-0.26458 0.02405-0.80009-0.09594-1.2392-0.33848-1.2392-0.14552 0-0.26458 0.23391-0.26458 0.52038 0 0.35428-0.12693 0.47256-0.39688 0.36897-0.21828-0.0838-0.39688-0.3251-0.39688-0.5364s-0.11931-0.31077-0.2651-0.22066c-0.14579 0.0901-0.37979-0.13872-0.52038-0.5085-0.17078-0.44918-0.39013-0.62068-0.66094-0.51676-0.22294 0.0855-0.40566 0.0326-0.40566-0.11782s0.20836-0.32826 0.46302-0.39481c0.25466-0.0666 0.01654-0.13453-0.52917-0.15141-0.5457-0.0169-0.99219-0.14562-0.99219-0.28629s-0.41672-0.67252-0.92604-1.1818c-0.50932-0.50932-0.92604-1.0527-0.92604-1.2077s-0.18201-0.35176-0.40463-0.43718c-0.24356-0.0935-0.34593-0.34095-0.25683-0.62167 0.0891-0.28072-0.01326-0.52872-0.25683-0.62218-0.22262-0.0854-0.40463-0.33314-0.40463-0.55087s-0.24751-0.5286-0.54984-0.6904c-0.31996-0.17124-0.48802-0.45375-0.40256-0.67645 0.08075-0.21042-0.08063-0.61031-0.35863-0.88831-0.43335-0.43335-0.45168-0.55032-0.12661-0.82011 0.53507-0.44407 0.47071-0.77876-0.14986-0.77876-0.29104 0-0.52917-0.11536-0.52917-0.25632 0-0.14095-0.17859-0.18814-0.39688-0.10438-0.25131 0.0964-0.39688-4e-3 -0.39688-0.27285 0-0.23386 0.0893-0.42479 0.19844-0.42479 0.10914 0 0.19844-0.29765 0.19844-0.66145 0-0.36381-0.01998-0.66146-0.04444-0.66146-0.52762 0-0.75766 0.41366-0.66611 1.1979 0.11989 1.027-0.18103 1.1937-0.68833 0.38137-0.28959-0.46371-0.2417-0.66072 0.35088-1.4376l0.68678-0.9002-0.54674-0.54674c-0.33699-0.33699-0.54725-0.89017-0.54725-1.4407 0-0.4915-0.18099-1.0439-0.40256-1.2278-0.24034-0.19946-0.33753-0.54019-0.24081-0.84491 0.09543-0.30068-0.01558-0.7072-0.26975-0.98805-0.23747-0.2624-0.40784-0.58113-0.37827-0.70849 0.02957-0.12735-0.10098-0.58869-0.29042-1.0253l-0.34468-0.79375-0.17311 0.66146c-0.15211 0.57994-0.19637 0.60167-0.35967 0.17674-0.28555-0.74303-0.22244-1.4412 0.14418-1.5906 0.23064-0.094 0.16082-0.281-0.23099-0.61753-0.63912-0.54893-1.059-2.4665-0.54002-2.4665zm23.738 3.9687c0.28699 0 1.0793 4.2359 0.89865 4.8049-0.11065 0.34859-0.07507 0.49079 0.09612 0.38499 0.29056-0.17958 0.7023 0.87688 1.2351 3.1688 0.23787 1.0232 0.24762 1.445 0.0346 1.5338-0.17741 0.074-0.0733 0.3137 0.26303 0.60513 0.60394 0.52337 1.3295 2.7765 1.0434 3.2396-0.0971 0.15701-0.0519 0.28577 0.10025 0.28577 0.33147 0 1.1319 1.8145 0.93844 2.1275-0.0746 0.12066 0.16414 0.51915 0.53072 0.88573 0.8041 0.8041 0.84506 1.2226 0.13746 1.4077-0.76861 0.20099-0.65033 0.69088 0.13074 0.54157 0.95605-0.18277 1.4782 0.51665 0.78548 1.0521-0.50561 0.39083-0.50372 0.39741 0.0822 0.2589 0.45715-0.10809 0.5842-0.0366 0.52917 0.29765-0.0456 0.27668 0.1356 0.46953 0.48834 0.51987 0.63111 0.09 2.2398 2.7347 1.7606 2.8944-0.15451 0.0515-0.21999 0.32623-0.14572 0.61029 0.14716 0.5627 0.50164 0.6867 0.65422 0.22893 0.0527-0.1581 0.41575 0.16213 0.80667 0.71158 0.57663 0.81044 0.64998 1.0738 0.38912 1.3953-0.26601 0.32788-0.24355 0.36749 0.12919 0.22789 0.5859-0.21943 1.89 1.2789 1.7105 1.9652-0.0852 0.326 0.017 0.48666 0.3111 0.48938 0.24106 2e-3 0.61681 0.12369 0.83509 0.26975 0.34284 0.2294 0.32483 0.32294-0.13229 0.68781-0.51231 0.40896-0.50541 0.41844 0.22169 0.29198 0.76671-0.13336 1.1391 0.14837 3.1047 2.3502 0.37417 0.41915 1.384 1.3575 2.2443 2.0852 2.6084 2.206 2.9754 2.6171 2.4329 2.7249-0.25466 0.0506-0.46302 0.32115-0.46302 0.60152 0 0.51608-0.12978 0.57557-0.7276 0.33434-0.4948-0.19965-0.39926-0.56064 0.19843-0.75034 0.29105-0.0924 0.52917-0.33878 0.52917-0.54725 0-0.56806-0.88244-0.45658-1.2676 0.1602-0.18529 0.29668-0.45424 0.46725-0.59738 0.37878-0.14314-0.0885-0.18843-0.27673-0.10077-0.41857 0.2245-0.36326-0.41264-1.0594-0.77618-0.84802-0.16542 0.0962-0.0924-0.0634 0.16226-0.35449 0.50046-0.57213 0.61101-1.1488 0.22014-1.1488-0.58769 0-1.0351 0.33841-0.90278 0.68316 0.16266 0.42394-0.32267 0.51746-0.57413 0.11059-0.0899-0.14552-0.38165-0.26459-0.64854-0.26459-0.26688 0-0.56047-0.19573-0.65215-0.4346-0.13576-0.3538-0.0959-0.37519 0.21549-0.11678 0.29826 0.24754 0.50307 0.24146 0.93276-0.0269 0.63135-0.39428 0.59916-0.79973-0.0713-0.89813-0.35435-0.052-0.42294 0.0637-0.29972 0.50591 0.15232 0.54677 0.13592 0.54384-0.35088-0.0615-0.28086-0.34921-0.45281-0.85523-0.38241-1.1245 0.14015-0.53592-0.11471-0.61797-0.72347-0.23306-0.44402 0.28074-1.6864-0.6828-1.4252-1.1054 0.19743-0.31945-0.69563-1.2991-1.0082-1.1059-0.13745 0.0849-0.10422 0.316 0.077 0.53434 0.24172 0.29126 0.24493 0.45892 0.0129 0.69091-0.23199 0.23199-0.30644 0.20505-0.30644-0.1111 0-0.22957-0.17596-0.56346-0.39119-0.74208-0.28427-0.23592-0.32047-0.45766-0.1323-0.80925 0.35232-0.65832 0.32783-0.7829-0.15347-0.7829-0.22688 0-0.34208-0.11465-0.2558-0.25425 0.1802-0.29158-0.40327-1.3332-0.74673-1.3332-0.1261 0-0.1644 0.16842-0.0853 0.37466 0.0791 0.20623-0.0271 0.44066-0.23617 0.52089-0.44971 0.17257-0.45672 0.13329-0.12764-0.73225 0.2067-0.54367 0.16557-0.69244-0.22686-0.81701-0.26386-0.0837-0.69589-0.63056-0.95963-1.2154-0.31408-0.69651-0.6068-1.0147-0.84852-0.9219-0.26834 0.10297-0.32328-2e-3 -0.20154-0.38603 0.1193-0.37585 0.0468-0.5271-0.2527-0.5271-0.23122 0-0.56186-0.32742-0.73484-0.7276s-0.53154-1.0164-0.79633-1.3689c-0.37076-0.49366-0.40468-0.68833-0.14883-0.84646 0.23312-0.14407 0.13665-0.27804-0.32298-0.4501-0.50657-0.18961-0.68952-0.15223-0.80719 0.16536-0.13551 0.36575-0.1705 0.36387-0.31625-0.016-0.09-0.23462-0.0475-0.46492 0.094-0.51212 0.1416-0.0472-0.11552-1.0009-0.57103-2.1192-0.65487-1.6079-0.89763-1.9685-1.1617-1.7219-0.24104 0.22516-0.26452 0.53403-0.0842 1.11 0.13737 0.43891 0.31325 1.0068 0.39119 1.2614 0.078 0.25467 0.24713 0.46302 0.37569 0.46302 0.30673 0 0.30118-0.0381-0.1633-1.1498-0.21828-0.52241-0.39127-1.1028-0.38447-1.2893 7e-3 -0.18658 0.24177 0.24773 0.52193 0.96531 0.31306 0.8018 0.41723 1.4157 0.27079 1.5922-0.14904 0.17959 0.10528 1.0663 0.67903 2.3673 0.50453 1.144 0.87517 2.1226 0.8232 2.1745-0.15097 0.15097-2.8365-5.3106-2.8365-5.7686 0-0.22796-0.17859-0.84184-0.39687-1.3643s-0.39187-1.4599-0.38602-2.0831l0.0103-1.1328 0.40618 0.74931c0.22341 0.41222 0.34295 0.91462 0.26561 1.1162-0.0774 0.20159-0.027 0.43644 0.11214 0.52245 0.22609 0.13974 0.36475-0.20902 0.28784-0.72502-0.0155-0.1039 0.14882-0.12082 0.36535-0.0377 0.21654 0.0831 0.39378 0.019 0.39378-0.14211 0-0.16109-0.17779-0.29249-0.39533-0.29249-0.82558 0-3.0872-6.5868-2.5032-7.2905 0.24186-0.29141 0.24335-0.38241 5e-3 -0.38241-0.17195 0-0.22812-0.13729-0.12454-0.30489s-0.02694-0.46194-0.2899-0.65422c-0.37158-0.2717-0.50049-0.8064-0.57878-2.3978-0.05982-1.2155-0.23141-2.1308-0.4222-2.2521-0.2419-0.15371-0.23261-0.20521 0.03721-0.20825 0.25826-3e-3 0.33006-0.29956 0.25735-1.062-0.05551-0.58208-0.02878-1.0583 0.05943-1.0583zm5.0958 0.13901c0.062-0.0216 0.1295 0.0347 0.2067 0.15658 0.30367 0.47944 0.30677 2.542 4e-3 2.729-0.12972 0.0801-0.18884 0.80138-0.13177 1.603 0.083 1.166 0.0243 1.4578-0.29352 1.4578-0.21852 0-0.3974 0.11906-0.3974 0.26458s0.11906 0.26458 0.26459 0.26458c0.14552 0 0.26458 0.24505 0.26458 0.54468 0 0.29962-0.11906 0.4713-0.26458 0.38137-0.14553-0.09-0.40137-0.0788-0.56896 0.0248-0.2123 0.13122-0.16267 0.29212 0.16433 0.53123 0.43278 0.31646 0.43612 0.37624 0.0403 0.77205-0.23604 0.23602-0.44126 0.3314-0.45579 0.21187-0.0145-0.11954-0.11622 0.0806-0.22634 0.44442l-0.20051 0.66146-0.1912-0.69764c-0.12687-0.46233 0.028-1.3985 0.4594-2.7781 0.35788-1.1444 0.7318-2.9139 0.83096-3.9326 0.1759-1.8068 0.30917-2.5742 0.49506-2.6391zm-19.786 1.0258c0.01828-6e-3 0.03905 3e-3 0.06201 0.0259 0.44523 0.436 1.1491 4.0746 0.97152 5.0214-0.12637 0.67363-0.05766 0.9377 0.29456 1.1348 0.3356 0.18781 0.46656 0.62165 0.48731 1.6128 0.01561 0.74568 0.10588 1.3568 0.2005 1.3575 0.16023 2e-3 0.8709 2.4554 0.8816 3.0443 0.0026 0.14552 0.08202 0.32411 0.17673 0.39687 0.09471 0.0728 0.4519 0.82504 0.79375 1.6717 0.60507 1.4986 0.93162 1.8143 2.606 2.5213 0.63171 0.26673 0.62125 0.27688-0.23564 0.22583-0.52175-0.0311-0.94638 0.0852-1.0144 0.2775-0.07362 0.20813 0.13055 0.33073 0.55087 0.33073 0.36734 0 0.72199 0.0893 0.78807 0.19844 0.06607 0.10914-0.03466 0.34108-0.22376 0.51573-0.27002 0.24938-0.46707 0.21034-0.91932-0.1819-0.31673-0.27471-0.74487-0.43478-0.95136-0.35554-0.49475 0.18986-0.4826-0.2883 0.0181-0.70383 0.50436-0.41858 0.23968-0.86458-0.39377-0.66353-0.59743 0.18962-0.94298-0.29554-0.5488-0.77049 0.21516-0.25926 0.19302-0.43111-0.08578-0.66249-0.26968-0.22381-0.42764-0.23049-0.55604-0.0227-0.32235 0.52157-1.6989 0.0808-1.7157-0.54932-0.0021-0.0839 0.35305-0.10025 0.78961-0.0362 1.0134 0.14873 1.049-0.38834 0.14625-2.2092-0.56412-1.1379-0.64932-1.2146-0.66146-0.59428-0.0077 0.39159-0.12135 0.77872-0.2527 0.85989-0.31278 0.19331-0.78594-1.1939-0.98495-2.8872-0.12407-1.0557-0.06574-1.4256 0.2682-1.7027 0.53511-0.4441 0.54844-0.81803 0.02946-0.81803-0.2919 0-0.39688-0.30451-0.39688-1.1503 0-0.63249-0.07498-2.2696-0.1664-3.638-0.09888-1.4801-0.08551-2.2101 0.04237-2.249zm-7.8135 0.42271c0.14552 0 0.26458 0.11906 0.26458 0.26458 0 0.14553-0.11906 0.26459-0.26458 0.26459-0.14552 0-0.26458-0.11906-0.26458-0.26459 0-0.14552 0.11906-0.26458 0.26458-0.26458zm-0.04444 1.0273c0.05232-0.0121 0.11895 0.0171 0.19689 0.0951 0.08371 0.0837 0.11163 0.49034 0.06253 0.90382l-0.08888 0.7519-0.20826-0.75913c-0.151-0.55066-0.11924-0.95532 0.03772-0.99167zm19.271 0.56844c0.04579 0.0295 0.0662 0.0909 0.04392 0.19017-0.04612 0.20551 0.25931 1.9658 0.48214 2.7781 0.06988 0.25467 0.0021 0.46302-0.15038 0.46302-0.34983 0-0.66346-1.193-0.41806-1.5901 0.10104-0.16347-0.02619-0.45065-0.28267-0.6382-0.28136-0.20574-0.39996-0.51366-0.29921-0.77618 0.12174-0.31727 0.4869-0.51527 0.62425-0.42685zm-18.461 1.8438c0.2974 0 0.57473 0.68825 0.36277 0.90021-0.3185 0.31849-0.59893 0.14468-0.59893-0.37104 0-0.29104 0.10621-0.52917 0.23616-0.52917zm19.84 1.08c0.14962 0.0263 0.36584 0.19661 0.632 0.50746 0.24918 0.29105 0.36509 0.51505 0.25735 0.49816-0.76996-0.12066-1.1219-0.32453-1.1219-0.65008 0-0.26416 0.08292-0.38179 0.23254-0.35554zm61.375 0.63976 0.52865 0.6537c0.29096 0.35974 0.46345 0.75988 0.38344 0.88935-0.08 0.12948-0.0188 0.31416 0.13591 0.4098 0.15472 0.0956 0.35146 0.75805 0.43718 1.4723 0.0857 0.71421 0.2962 1.4677 0.46767 1.6743 0.24561 0.29595 0.21642 0.42924-0.13849 0.62787-0.24778 0.13866-0.44092 0.45433-0.42943 0.70176 0.0126 0.27182 0.0733 0.31984 0.15348 0.12144 0.1007-0.2492 0.22719-0.23378 0.52503 0.0641 0.21587 0.21587 0.31851 0.51275 0.22789 0.65939-0.0906 0.14664-0.0389 0.26665 0.11524 0.26665 0.15412 0 0.27807 0.38695 0.27595 0.8599-3e-3 0.57148-0.0787 0.74149-0.22737 0.50694-0.38254-0.60347-0.57741 0.3629-0.25787 1.2795 0.20513 0.58847 0.19801 1.0128-0.0264 1.5544-0.17661 0.42639-0.22681 1.069-0.11782 1.5033 0.16989 0.67692 0.21201 0.70282 0.39325 0.23926 0.11174-0.28574 0.22603-1.2337 0.25373-2.1068l0.0501-1.5875 0.26975 1.1214c0.21691 0.90171 0.18034 1.3558-0.18603 2.3151-0.25067 0.65638-0.55181 1.1937-0.66973 1.1937s-0.28828 0.19184-0.37827 0.42633c-0.1198 0.31218-0.0506 0.38264 0.25838 0.26407 0.27006-0.10363 0.3805-0.0428 0.30644 0.16898-0.0636 0.182-0.32355 0.29312-0.57774 0.24701-0.28051-0.0509-0.39224 0.0301-0.2837 0.20567 0.0983 0.15912 0.36606 0.25625 0.59479 0.21601 0.27649-0.0486 0.4502 0.16921 0.5178 0.64957 0.0792 0.5628 0.0118 0.68802-0.30386 0.56689-0.31131-0.11946-0.41224 0.0505-0.43563 0.73278-0.0168 0.48851-9e-3 1.0967 0.0165 1.3513 0.0419 0.41199-0.24626 0.58506-0.66095 0.39688-0.30456-0.13823-0.96698 1.6574-0.77876 2.111 0.16767 0.40404 0.2375 0.36728 0.50901-0.26562 0.32261-0.75194 0.68007-0.71416 0.68007 0.0718 0 0.24219 0.29765 0.60008 0.66145 0.79478 0.79637 0.4262 0.85762 0.79375 0.1323 0.79375-0.30287 0-0.52917-0.1768-0.52917-0.4129 0-0.71913-0.45194-0.16544-0.60151 0.73691-0.24196 1.4598-1.2683 3.9093-1.6382 3.9093-0.19227 0-0.41801 0.17859-0.50177 0.39688-0.0891 0.23214-4e-3 0.39687 0.20515 0.39687 0.2989 0 0.29746 0.17468-9e-3 1.065-0.54359 1.5778-1.7731 3.4194-1.8945 2.8376-0.15693-0.7521-0.50076-0.53498-0.95653 0.60409-0.23484 0.58695-0.57541 1.1056-0.75654 1.1529-0.18114 0.0473-0.7459 0.21194-1.2552 0.36535-0.50932 0.15341-1.1642 0.33926-1.4552 0.41341-0.59978 0.15281-1.7077-0.28843-2.1446-0.85421-0.16084-0.20834-0.47665-0.30807-0.70176-0.2217-0.55504 0.21299-0.78818-0.0734-0.42065-0.51624 0.37955-0.45732 0.0576-0.81674-0.35863-0.40049-0.42527 0.42526-1.257-0.33482-1.0852-0.99168 0.0697-0.26635-2e-3 -0.5642-0.16072-0.66197-0.15917-0.0984-0.28784 3e-3 -0.28784 0.22634 0 0.23332-0.1532 0.34583-0.36225 0.26562-0.21669-0.0832-0.44497 0.10607-0.56896 0.47129-0.19174 0.56476-0.21545 0.54617-0.31626-0.2496-0.0599-0.47294-0.22028-0.8599-0.35656-0.8599-0.13632 0-0.24805-0.22579-0.24805-0.50126 0-0.57401-0.59246-0.88265-1.2268-0.63924-0.29795 0.11434-0.3937 0.0499-0.30747-0.2067 0.0767-0.22809 0.39865-0.33979 0.82889-0.28784 0.57475 0.0694 0.67103 1e-3 0.5271-0.37414-0.11991-0.31244-0.0774-0.39788 0.13332-0.26768 0.17026 0.10522 0.30954 0.41432 0.30954 0.6873s0.12346 0.82156 0.2744 1.2185c0.19984 0.5256 0.35361 0.64221 0.56586 0.42995 0.21228-0.21227 0.12419-0.63728-0.32504-1.5642-0.33928-0.70012-0.62419-1.3621-0.63252-1.4712-8e-3 -0.10914-0.11367-0.16867-0.23462-0.13229-0.12093 0.0364-0.38466-0.23151-0.586-0.59531-0.40736-0.73608-0.51794-1.4137-0.13075-0.8015 0.13536 0.21406 0.33829 0.2968 0.45114 0.18397 0.1846-0.18462-0.20906-0.56892-0.7953-0.77567-0.12237-0.0432-0.24143-0.69941-0.26458-1.4588-0.0248-0.81496-0.16358-1.3811-0.33797-1.3813-0.33459-2.6e-4 -1.4242-2.4568-1.4242-3.2106 0-0.27164-0.1755-0.49351-0.39016-0.49351-0.2962 0-0.35014 0.19952-0.22427 0.82889 0.12337 0.61686 0.0773 0.79987-0.17984 0.71417-0.42309-0.14104-0.88559-1.2785-0.51986-1.2785 0.14084 0 0.2558-0.11906 0.2558-0.26458s-0.23813-0.26459-0.52917-0.26459c-0.66024 0-0.67865-0.55108-0.0444-1.3343 0.55324-0.68321 0.45844-1.8407-0.1509-1.8407-0.33036 0-0.34041 0.0698-0.0574 0.41083 0.28559 0.34413 0.24837 0.49643-0.22841 0.93018-0.31342 0.28513-0.52339 0.44835-0.46664 0.36328 0.0568-0.0851-0.0547-0.4583-0.24753-0.82992-0.35943-0.6928-0.26773-1.4035 0.18087-1.4035 0.13854 0 0.1772-0.12134 0.0858-0.26924-0.0914-0.14789-0.25313-0.21539-0.35915-0.14986-0.10604 0.0655-0.36538 8e-3 -0.57671-0.12764-0.3344-0.21506-0.33298-0.28125 0.0124-0.50798 0.35695-0.23431 0.19333-0.38247-0.33073-0.29972-0.10914 0.0172-0.19843-0.21357-0.19843-0.51315 0-0.52059-0.89674-1.8474-2.404-3.5564-0.38502-0.43656-0.76238-1.0548-0.83871-1.3736-0.22349-0.93328 0.48197-0.30831 2.8091 2.4887 2.4668 2.9649 4.4777 6.736 7.5887 14.231 2.1494 5.1782 2.4513 5.7333 3.4969 6.426 0.84024 0.55665 1.3414 0.66707 3.2225 0.709 1.8168 0.0405 2.256-0.0275 2.3828-0.36794 0.18875-0.50684 0.62197-1.226 1.371-2.2748 0.51527-0.72149 1.6445-3.3458 2.0836-4.8431 0.19773-0.67436 0.39707-0.62619 0.50695 0.12247 0.0389 0.26496-0.10363 0.65605-0.31678 0.8692-0.34036 0.34035-0.32759 0.40952 0.10749 0.56844 0.34345 0.12545 0.56875 0.0287 0.73432-0.31574 0.13139-0.27327 0.33975-0.49661 0.46302-0.49661 0.1233 0 0.22428-0.17489 0.22428-0.38861 0-0.2368-0.15513-0.32944-0.39688-0.23668-0.30128 0.11562-0.39687-0.0493-0.39687-0.68523 0-0.51259-0.10651-0.77173-0.27492-0.66766-0.29078 0.17973-0.22348-0.2626 0.40411-2.652 0.19111-0.7276 0.4263-1.8885 0.52245-2.5797 0.12353-0.88797 0.29572-1.2568 0.58756-1.2568 0.33165 0 0.35026-0.0762 0.0935-0.3855-0.17587-0.21191-0.24012-0.51454-0.14262-0.67232 0.23783-0.3848 0.34441-7.2054 0.11782-7.5411-0.0982-0.14552-0.25303-1.5743-0.34365-3.175-0.0907-1.6007-0.23472-3.4462-0.32039-4.101zm-80.631 0.14933c0.07599 0.0148 0.16749 0.0703 0.27027 0.17311 0.1939 0.1939 0.2025 0.43962 0.02687 0.75345-0.238 0.42529-0.27682 0.41447-0.44855-0.12661-0.16533-0.52091-0.07657-0.84439 0.15141-0.79995zm18.439 0.51211c0.13806 0 0.32246 0.44018 0.4098 0.97824 0.25829 1.5917-0.12989 1.4952-0.47594-0.11834-0.10626-0.49543-0.07845-0.8599 0.06615-0.8599zm1.232 0.27595c0.217-0.0171 0.48586 0.16213 0.69143 0.54622 0.33798 0.63153 0.07511 0.98955-0.61082 0.83251-0.28464-0.0652-0.46302-0.35356-0.46302-0.74827 0-0.40028 0.16541-0.61338 0.3824-0.63046zm0.30748 1.8408c0.279 0 0.36997 0.14395 0.26458 0.41858-0.08832 0.23018-0.16071 0.46831-0.16071 0.52917 0 0.0609-0.11906 0.11059-0.26458 0.11059s-0.26458-0.23813-0.26458-0.52917c0-0.30964 0.17651-0.52917 0.4253-0.52917zm-0.94103 0.31471c0.0074 0.045 0.07814 0.58818 0.1571 1.2066 0.15946 1.2496-0.07053 1.5349-0.31988 0.39687-0.08771-0.40018-0.20363-0.87283-0.25787-1.0501-0.05427-0.17725 0.01482-0.39252 0.154-0.47853 0.13917-0.086 0.25927-0.1199 0.26665-0.0749zm-11.591 0.54622c-0.06234 0.0252-0.0646 0.19981-0.0646 0.54777 0 0.7233 0.17175 0.84949 0.68885 0.5054 0.19909-0.13248 0.13589-0.35672-0.19844-0.70384-0.24118-0.2504-0.36347-0.37455-0.42582-0.34933zm12.973 9e-3c0.13484-0.0954 0.4187 0.31529 0.53071 0.90123 0.09274 0.48507-0.0053 0.83063-0.2992 1.0542-0.27935 0.21252-0.31786 0.33518-0.10646 0.34055 0.47929 0.0122 0.40658 0.98126-0.08785 1.171-0.23016 0.0883-0.45652 0.16071-0.50333 0.16071-0.04683 0-0.1263-0.61088-0.17673-1.357-0.06173-0.91334 0.01611-1.3977 0.23874-1.4831 0.1819-0.0698 0.33073-0.29978 0.33073-0.51108 0-0.15667 0.02843-0.24467 0.07338-0.27647zm-18.581 0.54467c0.25612 0.0888 0.50646 0.48096 0.5116 0.9002 0.0062 0.50549-0.47255 0.39361-0.78083-0.18242-0.19399-0.36247-0.18815-0.56682 0.02016-0.69556 0.07776-0.0481 0.16371-0.0518 0.24908-0.0222zm22.212 1.4955c-0.14552 0-0.26458 0.11906-0.26458 0.26458 0 0.14553 0.11906 0.26459 0.26458 0.26459s0.26458-0.11906 0.26458-0.26459c0-0.14552-0.11906-0.26458-0.26458-0.26458zm-21.377 0.37207c0.07324 3e-3 0.15538 0.0624 0.23926 0.19482 0.1251 0.19744 0.22929 0.62704 0.23151 0.95447 0.0054 0.79656-0.47328 0.76036-0.67696-0.0512-0.1509-0.60125-0.01352-1.1065 0.20619-1.0981zm18.527 0.7875c0.03975-0.0505 0.10419 9e-3 0.20412 0.16329 0.14108 0.21829 0.25823 0.54571 0.26045 0.72761 0.0021 0.1819-0.11493 0.33073-0.26045 0.33073s-0.26267-0.32742-0.26045-0.72761c0.0016-0.28349 0.01656-0.44356 0.05633-0.49402zm-13.12 0.44235c0.19694 0.0469 0.35915 0.2136 0.35915 0.47025 0 0.26679-0.18356 0.48525-0.40824 0.48525-0.49162 0-0.74261-0.34164-0.5178-0.70539 0.13827-0.22373 0.36995-0.297 0.56689-0.25011zm-4.33 0.35347c0.06936-0.0694 0.1965 0.0576 0.28267 0.28215 0.17891 0.46622 0.02627 0.54822-0.23461 0.12609-0.09592-0.1552-0.11742-0.33889-0.04806-0.40824zm-0.51573 0.95342c0.16155-0.0712 0.51102 0.16423 0.71934 0.55346 0.16243 0.3035 0.24516 0.60182 0.18397 0.66301-0.12903 0.12903-0.99012-0.77343-0.99012-1.0377 0-0.0975 0.03297-0.15505 0.08682-0.1788zm14.592 0.55708c0.24462-0.0509 0.40256 0.0649 0.40256 0.36226 0 0.25236-0.15316 0.32944-0.43667 0.22066-0.36129-0.13865-0.40586-0.0456-0.25942 0.53795 0.10493 0.41812 0.06741 0.70486-0.0925 0.70486-0.1483 0-0.26975-0.19738-0.26975-0.43821 0-0.38911-0.06094-0.3828-0.54674 0.0568-0.49668 0.44947-0.50721 0.52377-0.11679 0.80925 0.38708 0.28305 0.36985 0.35624-0.17363 0.73691-0.69366 0.48586-1.0149 0.53596-1.0149 0.15813 0-0.14552 0.11906-0.26458 0.26458-0.26458s0.26458-0.13395 0.26458-0.29766c0-0.18962-0.2881-0.24014-0.79375-0.13901-1.2203 0.24406-1.0272-0.53872 0.21549-0.87333 0.55518-0.1495 1.2907-0.57094 1.634-0.93638 0.3472-0.36958 0.67832-0.58678 0.92294-0.63769zm3.577 1.1358c0.43619 0.0155 0.75435 0.14749 0.70693 0.29301-0.10533 0.32328-1.0536 0.49048-1.3126 0.23151-0.37507-0.37508-0.17069-0.55209 0.60565-0.52452zm-12.378 0.28009c0.07276-0.0728 0.28533 0.0522 0.47232 0.2775 0.18699 0.22531 0.2805 0.46881 0.20774 0.54157-0.07276 0.0728-0.28533-0.0517-0.47232-0.27699-0.187-0.22531-0.2805-0.46932-0.20774-0.54208zm-4.1507 0.53483c0.10602-0.0282 0.28628 0.13902 0.51211 0.48369 0.26324 0.40175 0.42206 0.78717 0.35295 0.85628-0.22022 0.22022-1.0634-0.89125-0.94516-1.2459 0.01786-0.0536 0.04476-0.0846 0.0801-0.0941zm1.4397 0.40411c0.1435 0 0.45301 0.29353 0.68833 0.65267 0.23532 0.35914 0.38699 0.77138 0.33693 0.91571-0.05006 0.14434-0.36009-0.14972-0.68884-0.65319s-0.47992-0.91519-0.33642-0.91519zm15.095 0.0341c0.14682 5.3e-4 0.30267 0.0284 0.45734 0.0884 0.43151 0.16728 0.42799 0.20534-0.05064 0.55759-0.67032 0.49333-1.2061 0.48157-1.2061-0.0269 0-0.37564 0.35897-0.62106 0.79944-0.61908zm-7.1339 1.0242c0.29963 0 0.4713 0.11907 0.38137 0.26459-0.08994 0.14552-0.33498 0.26458-0.54467 0.26458-0.20969 0-0.38137-0.11906-0.38137-0.26458s0.24504-0.26459 0.54467-0.26459zm-7.8533 0.57878c0.01804-7e-3 0.03796-2.6e-4 0.05995 0.0217 0.08792 0.0879 0.09762 0.31646 0.02119 0.50746-0.08446 0.21106-0.14698 0.14803-0.15968-0.1602-0.0086-0.20918 0.02442-0.34903 0.07855-0.36897zm1.7498 0.49041c0.28568 0.0328 0.61614 0.1689 0.79633 0.38602 0.26578 0.32025 0.25942 0.39064-0.03359 0.36587-0.74809-0.0632-1.2893-0.28051-1.2893-0.5178 0-0.19646 0.2409-0.26685 0.52658-0.23409zm15.779 0.55655c0.15007 0.0421 0.39895 0.56402 0.97823 1.8521 0.54679 1.2158 1.0098 2.2702 1.0294 2.343 0.0195 0.0728 0.37228 0.59621 0.78341 1.1638 0.41111 0.56754 0.74724 1.1658 0.74724 1.3291s0.34516 0.71519 0.76688 1.2268c0.4217 0.5116 0.941 1.3472 1.1539 1.8567 0.21291 0.50959 0.55236 1.1006 0.75447 1.3131 0.54989 0.57817 1.8226 2.3135 1.8226 2.4851 0 0.27932-0.39292 0.13803-1.9208-0.69092-1.7982-0.97558-3.8788-3.417-5.1454-6.0379-0.90469-1.872-1.5168-5.214-1.1834-6.4606 0.0691-0.25834 0.12337-0.40561 0.21342-0.38034zm-16.794 0.10801c0.12822-0.0287 0.58133 0.31406 1.2966 0.99942 0.64786 0.6208 1.386 1.2083 1.6402 1.3059 0.25421 0.0975 0.46199 0.30001 0.46199 0.4501 0 0.15008-0.1119 0.27285-0.24856 0.27285-0.3072 0-2.7117-2.0478-3.0169-2.5694-0.17022-0.29095-0.21026-0.44166-0.13332-0.45889zm76.843 0.0847c0.0297 0.0292 0.066 0.0999 0.11007 0.20929 0.12874 0.3193 0.13161 0.90475 6e-3 1.3229-0.19442 0.64816-0.22584 0.57052-0.231-0.57257-3e-3 -0.75805 0.0256-1.0471 0.11473-0.95963zm-74.121 0.56274c0.22687 0 0.41238 0.11907 0.41238 0.26459s-0.11215 0.26458-0.24908 0.26458c-0.13693 0-0.32244-0.11906-0.41238-0.26458-0.08994-0.14552 0.0222-0.26459 0.24908-0.26459zm18.426 0c-0.36357 0-0.35968 0.15722 0.031 1.2377 0.17476 0.48327 0.41587 0.87901 0.53589 0.87901 0.12001 0 0.0532-0.32742-0.14883-0.7276-0.20206-0.40019-0.31453-0.87644-0.2496-1.0583 0.0649-0.1819-0.0108-0.33073-0.16846-0.33073zm-9.8459 0.0434c-0.34213 0.0486-0.66167 0.29649-0.71004 0.55036-0.07202 0.37785 0.0213 0.4212 0.51315 0.23926 0.84058-0.31096 0.98788-0.90203 0.19689-0.78962zm8.4724 0.74983c0.12996 0 0.30351 0.17498 0.3855 0.3886 0.1591 0.41463-0.16991 0.76852-0.45217 0.48628-0.25214-0.25215-0.20482-0.87488 0.0667-0.87488zm-16.13 0.15451c0.11532 0.0131 0.25722 0.0471 0.39791 0.0982 0.28138 0.10215 0.39499 0.25797 0.25218 0.34623-0.27294 0.16868-1.1035-0.22268-0.88832-0.41858 0.03427-0.0312 0.12291-0.0389 0.23823-0.0259zm8.5793 0.44236c-0.42534 0.10116-0.40234 0.15333 0.17053 0.39067 0.74628 0.30919 1.0323 0.20395 0.60565-0.22272-0.15674-0.15675-0.50604-0.23219-0.77618-0.16795zm8.231 0.99064c0.53993 0 1.036 0.9653 0.62631 1.2185-0.20634 0.12752-0.11759 0.26293 0.26407 0.40411 0.31591 0.11686 0.57412 0.32269 0.57412 0.45733 0 0.13465-0.15982 0.30627-0.35553 0.38138-0.22577 0.0866-0.56425-0.2925-0.92604-1.0372-0.67675-1.393-0.68104-1.4242-0.18293-1.4242zm53.969 5.3e-4c-0.0642 0-0.11679 0.11906-0.11679 0.26458s0.126 0.26458 0.28009 0.26458c0.15412 0 0.20672-0.11906 0.11679-0.26458-0.0899-0.14552-0.21593-0.26458-0.28009-0.26458zm-62.578 0.0145c-0.04872-0.0447-0.11462 0.0931-0.23099 0.3824-0.11708 0.29105-0.16134 0.61847-0.09819 0.72761 0.24077 0.4162 0.5216 0.1731 0.45837-0.39688-0.04891-0.44105-0.08047-0.66839-0.12919-0.71313zm-7.6791 0.2713c0.28788 0.0325 0.64777 0.16606 0.93586 0.38395 0.49624 0.37533 0.49177 0.38761-0.13229 0.36742-0.82501-0.0267-1.3074-0.22221-1.3074-0.5302 0-0.18533 0.21596-0.25372 0.50385-0.22117zm72.356 0.0279c0.018-7e-3 0.038 2.4e-4 0.0599 0.0222 0.0879 0.0879 0.0976 0.31595 0.0212 0.50694-0.0845 0.21107-0.14698 0.14855-0.15968-0.15968-9e-3 -0.20918 0.0244-0.34955 0.0786-0.36948zm-21.508 0.0558c-0.21677 0.089-0.27432 0.51816-0.0134 0.83251 0.3682 0.44366 0.78393 0.5079 0.78393 0.12092 0-0.14552-0.12596-0.26458-0.28008-0.26458s-0.21187-0.11103-0.12816-0.2465c0.0837-0.13547 0.0397-0.31582-0.0982-0.40101-0.10168-0.0628-0.19181-0.071-0.26407-0.0413zm-47.913 0.15917c0.14552 0 0.26458 0.17859 0.26458 0.39687s-0.11906 0.39688-0.26458 0.39688-0.26458-0.1786-0.26458-0.39688 0.11906-0.39687 0.26458-0.39687zm-0.75603 1.1307c0.07375 0.0101 0.17064 0.0354 0.29456 0.0729 0.32651 0.0986 0.66961 0.255 0.76223 0.34778 0.09262 0.0928 0.09262 0.36853 0 0.61237-0.13452 0.35414-0.25175 0.38076-0.58188 0.13229-0.2273-0.17108-0.49404-0.52751-0.59325-0.79168-0.11295-0.30079-0.10289-0.40402 0.11834-0.37362zm69.656 0.62166c0.10329-0.0159 0.14471 0.0383 0.13797 0.1602-0.0102 0.18525-0.0995 0.53648-0.19843 0.78031-0.15172 0.37404-0.25291 0.38917-0.64751 0.0992-0.43725-0.32126-0.42431-0.37176 0.19844-0.77979 0.24111-0.15799 0.40623-0.24404 0.50953-0.25994zm0.49867 0.154c0.048 7e-3 0.11431 0.0336 0.18707 0.0785 0.14552 0.0899 0.26459 0.26259 0.26459 0.38395 0 0.12137-0.19186 0.2945-0.42633 0.38448-0.31205 0.11974-0.38299 0.0506-0.26459-0.25787 0.089-0.23183 0.16175-0.47832 0.16175-0.54777 0-0.0347 0.0296-0.0481 0.0775-0.0413zm-68.505 0.31161c0.44437 0.20715 2.2386 1.942 2.5048 2.4789 0.1623 0.32742 0.25526 0.59531 0.20671 0.59531-0.16724 0-2.8107-2.8792-2.8107-3.0613 0-0.0407 0.03574-0.0425 0.09922-0.0129zm5.1769 0.16381c-0.13692 0-0.24908 0.11906-0.24908 0.26458s0.18553 0.26458 0.41238 0.26458c0.22688 0 0.33901-0.11906 0.24908-0.26458-0.08993-0.14552-0.27546-0.26458-0.41238-0.26458zm8.4863 0.0718c0.0628-9e-3 0.14861-8e-3 0.25993 5.3e-4 0.31739 0.0239 0.52968 0.2298 0.52968 0.51314 0 0.62546-0.44088 0.60264-0.78496-0.0403-0.17302-0.32328-0.19313-0.44611-5e-3 -0.47336zm1.3922 0.0315c0.0694-0.0694 0.19649 0.0576 0.28267 0.28215 0.17891 0.46623 0.0263 0.54822-0.23461 0.12609-0.0959-0.1552-0.11743-0.33888-0.0481-0.40824zm-8.8201 0.42581c-0.15412 0-0.20672 0.11907-0.11679 0.26459 0.08993 0.14552 0.21593 0.26458 0.28009 0.26458 0.06419 0 0.11679-0.11906 0.11679-0.26458s-0.12596-0.26459-0.28008-0.26459zm41.622 0.53692c0.0505-5e-3 0.14765 0.12132 0.33848 0.37362 0.21365 0.28248 0.38861 0.6099 0.38861 0.72761 0 0.25886-0.37353 0.2812-0.61753 0.0372-0.097-0.097-0.17258-0.42443-0.16795-0.7276 4e-3 -0.27078 8e-3 -0.40604 0.0584-0.41083zm-33.823 0.53434c0.17333 0.10861 0.70808 0.82417 1.2252 1.7281 0.46109 0.80592 0.79213 1.5111 0.73588 1.5673-0.10195 0.10194-1.1885-1.5537-1.8014-2.745-0.23773-0.46212-0.26368-0.61552-0.15967-0.55035zm51.931 0.78083c-0.21199 0-0.44928 0.24464-0.52762 0.54416-0.10618 0.40606-0.0309 0.52299 0.29662 0.45992 0.55348-0.10659 0.75995-1.0041 0.231-1.0041zm-50.144 0.0404c0.0777 0.0214 0.1722 0.0747 0.27958 0.16382 0.18541 0.15389 0.4363 0.27984 0.55758 0.28009 0.12126 2.4e-4 0.29986 0.0892 0.39688 0.1974 0.097 0.10821 0.0274 0.1114-0.15451 7e-3 -0.18191-0.10468-0.33073-0.0647-0.33073 0.0894 0 0.44698-0.72025 0.32385-0.90382-0.15451-0.16191-0.42189-0.0782-0.64697 0.15502-0.58291zm-9.3943 0.25631c-0.08754 0.0513-0.05486 0.22799 0.10439 0.52555 0.22473 0.41991 0.37309 0.48216 0.60203 0.25321 0.22894-0.22895 0.20677-0.36554-0.0904-0.55345-0.32084-0.20285-0.52844-0.27662-0.61598-0.22531zm41.893 0.23255c0.29104 0 0.52916 0.10622 0.52916 0.23617 0 0.2974-0.68824 0.57473-0.9002 0.36276-0.3185-0.31849-0.14469-0.59893 0.37104-0.59893zm19.513 0.57361c0.30526-0.0609 0.59531 0.032 0.59531 0.33383 0 0.2284-0.10927 0.41548-0.24288 0.41548s-0.44338 0.0765-0.68833 0.17053c-0.33565 0.1288-0.42195 0.0473-0.34985-0.33073 0.0598-0.31374 0.38048-0.52823 0.68575-0.58911zm-63.095 0.37821c0.10312-0.0587 0.41469 0.2804 1.2097 1.1648 0.95483 1.0621 1.2352 1.5446 1.0382 1.7859-0.14846 0.1819-0.3783 0.33073-0.51056 0.33073-0.27477 0-0.42817-0.37478-0.54157-1.3229-0.05487-0.45869-0.24128-0.66145-0.60823-0.66145-0.39412 0-0.54927-0.20256-0.60771-0.79375-0.02863-0.28944-0.04172-0.4681 0.02016-0.50333zm11.959 0.0124c0.37007-0.14201 0.75278 0.4492 0.47232 0.72967-0.26405 0.26403-0.53506 0.17831-0.68678-0.21704-0.0792-0.20624 0.0174-0.43702 0.21446-0.51263zm32.121 0.0941c0.2758 0 0.56006 0.23629 0.63665 0.52917 0.15481 0.592-0.31542 0.71344-0.81752 0.21135-0.45924-0.45923-0.39045-0.74052 0.18087-0.74052zm-40.821 0.2067c-0.44018 0.0409-0.95188 0.40391-0.95188 0.7829 0 0.46455 0.51341 0.41783 0.69815-0.0636 0.0838-0.21828 0.34796-0.39889 0.58704-0.40101 0.35756-3e-3 0.36844-0.046 0.0615-0.24029-0.10924-0.0692-0.24809-0.0917-0.39481-0.078zm12.758 0.58705c-0.17544 0-0.15547 0.15162 0.0532 0.40308 0.18407 0.22179 0.38919 0.34874 0.45578 0.28215 0.18349-0.18349-0.18926-0.68523-0.50901-0.68523zm46.576 0.0134c0.29687-0.01 0.83199 0.63099 0.83199 1.0769 0 0.27322-0.10003 0.49712-0.22221 0.49712-0.27493 0-0.90668-1.3402-0.71985-1.527 0.0304-0.0304 0.0677-0.0456 0.11007-0.047zm-55.866 0.30489c-0.048 7e-3 -0.11431 0.0336-0.18707 0.0786-0.14552 0.0899-0.26458 0.33498-0.26458 0.54467s0.19146 0.38137 0.42529 0.38137c0.27901 0 0.36997-0.14394 0.26459-0.41858-0.0883-0.23018-0.16072-0.47574-0.16072-0.54518 0-0.0347-0.0296-0.0476-0.0775-0.0408zm6.2275 0.11834c0.0758 0.0308 0.12762 0.11734 0.15864 0.25993 0.13894 0.63851-0.42969 1.086-0.65009 0.5116-0.10803-0.2815-0.0325-0.56024 0.18966-0.69918 0.12596-0.0788 0.22597-0.10317 0.30179-0.0724zm31.685 0.62167c0.14552 0 0.26458 0.17116 0.26458 0.38085 0 0.2097-0.11906 0.45525-0.26458 0.54519-0.14552 0.0899-0.26458-0.0817-0.26458-0.38137 0-0.29963 0.11906-0.54467 0.26458-0.54467zm-40.033 0.29352c-0.11154 0.0138-0.25956 0.13987-0.45268 0.37259-0.27295 0.32885-0.24715 0.49705 0.14107 0.92604 0.6259 0.69161 0.64678 0.67818 0.60617-0.40153-0.0237-0.63039-0.10866-0.92007-0.29456-0.8971zm10.297 0.0491c0.36806-0.12268 1.2396 1.1681 1.0242 1.5167-0.0874 0.14141-0.28556 0.25735-0.44029 0.25735-0.17743 0-0.15963-0.1466 0.0481-0.39687 0.32409-0.3905 0.2599-0.45177-0.52916-0.50385-0.45839-0.0302-0.54046-0.72745-0.10284-0.87333zm47.259 0.27854c0.30246 7e-3 0.6209 0.1771 0.68367 0.50333 0.0662 0.3441-0.0857 0.46302-0.59169 0.46302-0.48784 0-0.6811-0.13973-0.6811-0.493 0-0.32474 0.28665-0.48049 0.58912-0.47335zm-16.921 0.44855c0.0573 0 0.10455 0.13054 0.19741 0.39119 0.10252 0.2878 0.13071 0.67231 0.0625 0.85421-0.0682 0.1819-0.22066 0.33073-0.33848 0.33073-0.36664 0-0.46382-0.63735-0.18087-1.1849 0.13468-0.26065 0.2021-0.39119 0.25941-0.39119zm-31.036 2e-3c0.0359 0.019 2e-3 0.13234-0.0796 0.35088-0.12181 0.32453-0.0345 0.60726 0.25167 0.81649 0.24082 0.1761 0.38472 0.47932 0.31988 0.67386-0.0773 0.23184-0.31647 0.0747-0.69454-0.4563-0.53504-0.7514-0.545-0.83608-0.13384-1.1705 0.19504-0.15863 0.30047-0.23351 0.33642-0.21445zm-11.34 0.52296c0.2758-0.0153 0.6547 0.32603 0.71572 0.85473 0.0461 0.39894-0.0196 0.72554-0.14573 0.72554-0.39507 0-0.86403-0.6138-0.86403-1.1307 0-0.30253 0.12856-0.44038 0.29404-0.44959zm59.766 0.25735c0.33517 0 0.33323 0.17082-9e-3 0.8108-0.33898 0.63342-1.4499 0.71933-1.2097 0.0935 0.0883-0.23018 0.16071-0.48305 0.16071-0.56172 0-0.0787 0.17859 5e-3 0.39687 0.18655 0.32505 0.26976 0.39688 0.25132 0.39688-0.10025 0-0.2361 0.11906-0.42892 0.26458-0.42892zm-4.1481 0.0538c-0.0545-7e-3 -0.0853 0.0308-0.0853 0.11368 0 0.15038 0.0792 0.35258 0.17622 0.44959 0.097 0.097 0.23799 0.11497 0.31316 0.0398 0.0752-0.0752-4e-3 -0.27739-0.17622-0.44959-0.0949-0.0949-0.17335-0.14656-0.22789-0.15347zm-49.358 0.48524c-0.15879 8e-3 -0.36946 0.0406-0.62373 0.10438-0.36352 0.0912-0.59612 0.27057-0.51677 0.39894 0.0804 0.13007 0.50022 0.0994 0.94826-0.0698 0.6782-0.25599 0.6686-0.45687 0.19224-0.43356zm2.4557 0.67541c-0.61713-5e-3 -1.2324 0.24313-0.84904 0.48007 0.17277 0.10678 0.24549 0.30482 0.16175 0.44028-0.0837 0.13547 0.0894 0.2465 0.38447 0.2465 0.36817 0 0.48847-0.12451 0.38396-0.39687-0.10801-0.28142 0.0291-0.40205 0.47128-0.41393l0.62374-0.0165-0.59531-0.23926c-0.16916-0.068-0.37514-0.0984-0.58085-0.10025zm-5.6658 0.3731c0.20526 0 0.86882 0.84737 0.88057 1.1245 0.0127 0.30077-0.37609 0.2373-0.73278-0.11937-0.33567-0.3357-0.43399-1.0051-0.14779-1.0051zm-1.4785 0.0357c0.22508 0.0286 0.51521 0.27488 0.51521 0.50901 0 0.13693-0.11213 0.24908-0.24908 0.24908-0.31215 0-0.64585-0.51638-0.4563-0.7059 0.0474-0.0474 0.11514-0.0617 0.19017-0.0522zm56.564 0.0238c0.40151-0.0563 1.2159 0.15232 1.3064 0.42374 0.0602 0.18055-0.16411 0.31058-0.53588 0.31058-0.66601 0-0.99219-0.19152-0.99219-0.58239 0-0.0851 0.0879-0.13318 0.22169-0.15193zm-2.1606 0.0496c-0.0726 0.0224-0.15088 0.11625-0.24546 0.28525-0.18743 0.33493-0.31317 0.37492-0.45578 0.14418-0.13309-0.21534-0.24428-0.13662-0.34365 0.24339-0.12483 0.47742-0.0604 0.53642 0.42633 0.38964 0.79364-0.23931 1.065-0.53955 0.83095-0.91829-0.0726-0.11749-0.13977-0.16654-0.21239-0.14417zm-37.717 0.15554c-0.14553 0-0.33847 0.11906-0.4284 0.26458-0.0899 0.14553-0.0442 0.26459 0.10129 0.26459 0.14552 0 0.33794-0.11906 0.42788-0.26459 0.0899-0.14552 0.0447-0.26458-0.10077-0.26458zm-5.7904 0.0377c0.0391-0.0466 0.18471-0.0374 0.45889 3e-3 0.34544 0.0504 0.67752 0.24081 0.73742 0.42272 0.15679 0.47603-0.60056 0.40729-1.0149-0.092-0.153-0.18434-0.22049-0.28672-0.18139-0.33331zm2.6345 0.24649c0.021-0.021 0.13729 0.0861 0.36587 0.30438 0.26299 0.25119 0.40546 0.52936 0.31677 0.61805-0.0887 0.0887-0.3037-0.11694-0.478-0.45682-0.15149-0.29539-0.22569-0.44457-0.20464-0.46561zm27.78 0.37672c0.14224 0.0113 0.21498 0.14758 0.21498 0.40566 0 0.60206-0.40473 0.69766-0.6165 0.14573-0.0792-0.20624 0.0271-0.44066 0.23616-0.5209 0.0628-0.0241 0.11795-0.0342 0.16536-0.0305zm15.032 0.13281c0.14552 0 0.26459 0.0521 0.26459 0.11627 0 0.0642-0.11907 0.19067-0.26459 0.28061-0.14552 0.0899-0.26458 0.0373-0.26458-0.11679 0-0.15411 0.11906-0.28009 0.26458-0.28009zm-52.95 0.11989c0.0789 0.0123 0.13623 0.10421 0.20412 0.28112 0.22333 0.582-0.26612 1.0486-0.63148 0.60203-0.20119-0.24593-0.17458-0.43825 0.094-0.68575 0.15438-0.14222 0.25444-0.20971 0.33332-0.1974zm54.055 0.15503c0.13509-0.0248 0.23399 0.11127 0.17208 0.43047-0.047 0.2426-0.22539 0.4874-0.39584 0.54415-0.19714 0.0656-0.25797-0.0946-0.16743-0.4408 0.0846-0.32335 0.25609-0.50906 0.39119-0.53382zm-49.487 0.0527c-0.1015-0.0125-0.18641-1e-3 -0.23254 0.045-0.0665 0.0665-0.0427 0.24787 0.0532 0.40307 0.21109 0.34155 0.93689 0.3772 0.93689 0.046 0-0.20116-0.45308-0.45656-0.75757-0.49403zm47.53 0.36949c0.14457-0.0893 0.41031 0.0148 0.59014 0.23151 0.35701 0.43018 0.0767 0.52026-0.49402 0.15864-0.21807-0.13816-0.2558-0.29147-0.0961-0.39015zm-42.689 0.0966c0.20849 0 0.4571 0.2468 0.55293 0.54881 0.23879 0.75228 0.0337 0.87345-0.49299 0.29145-0.53922-0.59582-0.55641-0.84026-0.0599-0.84026zm-8.1835 0.18242c0.21985 0.059 0.39584 0.23472 0.39584 0.49144 0 0.51188-0.33956 0.64353-0.88005 0.34107-0.36243-0.20284-0.4029-0.34748-0.17364-0.62374 0.17425-0.20994 0.43799-0.2678 0.65785-0.20877zm47.679 0.18087c-0.048-0.0211-0.11431-0.0114-0.18707 0.0336-0.14552 0.0899-0.26458 0.21591-0.26458 0.28008 0 0.0642 0.11906 0.11679 0.26458 0.11679s0.26458-0.12649 0.26458-0.2806c0-0.0771-0.0296-0.12871-0.0775-0.14986zm-37.348 0.0527c0.23247 0.0304 0.68618 0.28511 1.3038 0.75654 0.68027 0.51928 1.0962 0.94413 0.92397 0.94413-0.17222 0-0.245 0.17859-0.16123 0.39687 0.17727 0.462 0.17629 0.4618-0.41548 0.11679-0.24863-0.14494-0.3879-0.42915-0.31006-0.632 0.0904-0.23568-0.0709-0.40058-0.447-0.4563-0.32369-0.048-0.71603-0.28976-0.87126-0.53744-0.26668-0.42549-0.25521-0.61902-0.0227-0.58859zm4.6829 0.12142c0.36163-0.0153 0.20526 0.79917-0.18191 0.94775-0.2091 0.0802-0.31532 0.31466-0.23616 0.5209 0.14515 0.37827-0.0453 0.44059-0.62528 0.20464-0.5479-0.2229 0.33781-1.6434 1.0434-1.6733zm22.169 8e-3c0.13689 0.0303 0.2668 0.1644 0.35501 0.39429 0.0904 0.23544 0.0461 0.34177-0.10387 0.24908-0.14385-0.0889-0.26148-0.0321-0.26148 0.1266 0 0.15868 0.17786 0.35685 0.39532 0.44029 0.21744 0.0834 0.3296 0.25833 0.24909 0.3886-0.0805 0.13028-0.23937 0.2372-0.35295 0.2372-0.29978 0-0.85431-1.319-0.67593-1.6077 0.11439-0.18508 0.25791-0.25867 0.39481-0.2284zm13.469 0.28783c0.20648 0.0688 0.18553 0.25118-0.0687 0.59893-0.27154 0.37133-0.41803 0.41545-0.56844 0.17208-0.2363-0.38233 0.20431-0.9153 0.63717-0.77101zm-43.891 0.22531c-0.13692 0-0.32245 0.11906-0.41238 0.26458-0.0899 0.14553 0.0222 0.26459 0.24908 0.26459s0.41238-0.11906 0.41238-0.26459c0-0.14552-0.11213-0.26458-0.24908-0.26458zm9.4563 0.10232c0.34314-0.0569 0.62555 0.19699 0.47904 0.57878-0.0766 0.19971 0.026 0.45545 0.2279 0.56844s0.402 0.32473 0.44441 0.47025c0.0424 0.14552 0.25903 0.22952 0.48163 0.18707 0.33959-0.0648 0.34448-0.0366 0.03 0.17518-0.23429 0.15773-0.61817 0.15956-1.0242 5e-3 -0.42132-0.16018-0.76551-0.15054-0.97927 0.0269-0.2337 0.19394-0.42652 0.1571-0.66197-0.12661-0.27895-0.3361-0.24079-0.39998 0.23874-0.39998 0.47834 0 0.52767-0.0817 0.30283-0.50177-0.19804-0.37005-0.16914-0.5839 0.1111-0.81649 0.11422-0.0948 0.23547-0.14796 0.34985-0.16692zm-15.153 0.19276c0.46416 9e-3 1.1829 0.2656 1.1829 0.50332 0 0.14275-0.20836 0.25792-0.46302 0.2558-0.60031-5e-3 -1.2929-0.445-1.063-0.67489 0.0622-0.0622 0.18842-0.0871 0.34314-0.0842zm8.3406 5e-3c0.22509 0.0286 0.51522 0.27489 0.51522 0.50902 0 0.13693-0.11213 0.24908-0.24908 0.24908-0.31216 0-0.64585-0.51638-0.45631-0.7059 0.0474-0.0474 0.11515-0.0617 0.19017-0.0522zm6.7174 0.22893c-0.22688 0-0.33791 0.12082-0.24649 0.26872 0.0914 0.14789 0.27691 0.20051 0.41237 0.11679 0.36701-0.22681 0.29886-0.38551-0.16588-0.38551zm30.427 0c-0.22688 0-0.33902 0.11906-0.24909 0.26458 0.0899 0.14552 0.27546 0.26459 0.41238 0.26459 0.13695 0 0.24908-0.11907 0.24908-0.26459s-0.18549-0.26458-0.41237-0.26458zm-25.495 4e-3c1.0505 2e-3 1.5605 0.0908 1.3384 0.23152-0.28028 0.17757-0.28681 0.27184-0.031 0.42994 0.19135 0.11826 0.42062 0.0369 0.55087-0.19585 0.2508-0.44817 0.31189-0.44233 4.6018 0.45372 4.4033 0.91973 6.7758 1.2876 7.8574 1.218 0.86921-0.0559 1.1488 0.1048 2.5135 1.4438 0.84458 0.82865 2.0365 1.7338 2.6489 2.0112 1.0696 0.48456 1.6657 0.99403 1.217 1.0402-0.11772 0.0121-0.48331 0.0519-0.81287 0.0884-0.47337 0.0524-0.56711-0.0352-0.44545-0.41858 0.16771-0.52842 0.10767-0.56637-0.51987-0.32556-0.22937 0.088-0.3579 0.25537-0.28577 0.37207 0.0721 0.1167-0.13694 0.14335-0.46457 0.0589-0.63169-0.16281-1.2866-0.85808-1.0971-1.1648 0.23733-0.384-0.38075-0.45973-0.69195-0.0847-0.18669 0.22494-0.7671 0.39429-1.3529 0.39429-0.88757 0-1.0258-0.0803-1.0258-0.59531 3e-5 -0.54794-0.11022-0.59179-1.3891-0.54622-0.76401 0.0272-1.91 0.19457-2.5466 0.37155-1.0135 0.28178-1.1876 0.26729-1.402-0.11576-0.13462-0.24057-0.42478-0.43718-0.64441-0.43718-0.22561 0-0.32027 0.12784-0.21756 0.29404 0.1 0.16179 0.0181 0.39801-0.18242 0.52503-0.29456 0.18658-0.28245 0.23185 0.0646 0.23513 0.34383 3e-3 0.39472 0.17507 0.25425 0.86196-0.12007 0.58699-0.33932 0.87512-0.69402 0.91106-0.40444 0.041-0.418 0.0228-0.062-0.0827 0.32171-0.0953 0.37736-0.22775 0.18914-0.44804-0.1469-0.17192-0.44523-0.55025-0.66301-0.84129-0.39598-0.52917-0.3958-0.52917-0.32815 0 0.16516 1.2919-0.98303 1.6332-1.4066 0.41806-0.29705-0.85209-0.9639-1.2478-1.388-0.82372-0.47553 0.47553-1.1624 0.29777-1.7544-0.45424-0.32499-0.41277-0.50997-0.52726-0.42737-0.26458 0.17471 0.55561-0.18098 0.60874-0.6103 0.0915-0.23659-0.28508-0.22841-0.39944 0.0341-0.493 0.54078-0.19272 0.058-0.51123-1.3079-0.86351-1.4929-0.38504-1.86-0.25723-1.2371 0.43098 0.46884 0.51808 0.25186 0.6699-0.38293 0.26769-0.21971-0.13922-0.29191-0.43796-0.18655-0.76998 0.11568-0.36443 0.0269-0.62434-0.27026-0.79065-0.91528-0.51221 0.12503-0.54533 1.4392-0.046 1.6178 0.61472 1.9209 0.64203 1.7348 0.15709-0.0838-0.21848 0.0896-0.42173 0.43718-0.51263 0.52721-0.13786 0.56382-0.074 0.42943 0.75396-0.0807 0.49763-0.0442 0.96865 0.0816 1.0464 0.29626 0.18309 0.56162-0.25668 0.65216-1.0816 0.0904-0.82326 0.37313-1.1217 0.64544-0.68109 0.13586 0.21983 0.45922 0.27567 0.92346 0.15916l0.71468-0.17932-0.70125-0.3638c-0.38563-0.20006-0.78385-0.31276-0.88521-0.25011-0.22098 0.13657-4.1403-0.9684-4.4173-1.2454-0.10662-0.10664 0.57002-0.19228 1.5038-0.19017zm30.581 0.10388c0.0961 0.0324 0.12049 0.22137-3e-3 0.54208-0.0861 0.22456-0.28353 0.40876-0.43874 0.40876-0.19566 0-0.19135-0.16927 0.0134-0.5519 0.16422-0.30684 0.33174-0.43136 0.42789-0.39894zm-8.6062 0.0326c-0.0842 0.0842 0.0221 0.26408 0.23616 0.39946 0.56012 0.35423 0.63335 0.31056 0.25166-0.14934-0.18409-0.2218-0.40363-0.33431-0.48782-0.25012zm2.3451 0.12454c-0.14552 0-0.26458 0.11906-0.26458 0.26458 0 0.14553 0.11906 0.26459 0.26458 0.26459s0.26459-0.11906 0.26459-0.26459c0-0.14552-0.11907-0.26458-0.26459-0.26458zm-27.914 8e-3c0.14552 0 0.44318 0.11577 0.66146 0.25683 0.21828 0.14107 0.27781 0.25632 0.13229 0.25632s-0.44318-0.11525-0.66146-0.25632c-0.21828-0.14106-0.27781-0.25683-0.13229-0.25683zm22.11 0.0476c0.27276 0.0162 0.51212 0.28451 0.51212 0.65267 0 0.27854 0.16738 0.36784 0.51676 0.27647 0.2843-0.0743 0.73078 0.027 0.99219 0.22531 0.2844 0.21566 0.34257 0.36394 0.14469 0.36897-0.1819 5e-3 -0.33073 0.18738-0.33073 0.40566 0 0.56695-0.46061 0.49018-0.79375-0.1323-0.15576-0.29104-0.42905-0.52916-0.60719-0.52916-0.45093 0-1.0397-0.99048-0.71004-1.1942 0.0907-0.0561 0.18504-0.0788 0.27595-0.0734zm-36.514 0.20928c0.13695 0 0.24908 0.11907 0.24908 0.26459s-0.18549 0.26458-0.41237 0.26458-0.33902-0.11906-0.24908-0.26458c0.0899-0.14552 0.27545-0.26459 0.41237-0.26459zm45.948 0.031c0.11214-7e-3 0.20114 8e-3 0.24081 0.0476 0.0793 0.0793 0.10402 0.33819 0.0548 0.57515-0.0798 0.38425-0.14663 0.38872-0.61857 0.0398-0.49775-0.36802-0.50104-0.4022-0.0548-0.57516 0.13046-0.0506 0.26561-0.0802 0.37775-0.0873zm-38.517 0.26304c0.0636 0.0191 0.11922 0.0774 0.15245 0.17053 0.0653 0.18281 0.22761 0.26519 0.3607 0.18293 0.13311-0.0822 0.24184-0.0301 0.24184 0.11628 0 0.34217 2.6918 2.1333 3.5553 2.3657 0.43051 0.11588 0.59019 0.29004 0.45941 0.50126-0.14545 0.23488-0.63905 0.0536-1.8014-0.66145-2.3181-1.4261-3.4399-2.3504-3.1693-2.6112 0.0657-0.0633 0.13743-0.0832 0.20102-0.0641zm-6.7691 0.0553c0.13642-0.0442 0.38578 0.21622 0.55398 0.57878 0.16822 0.36256 0.28728 0.64469 0.26458 0.62683-0.0227-0.0179-0.30973-0.16575-0.63769-0.32814-0.58433-0.28934-0.6727-0.718-0.18087-0.87747zm15.662 0.0253c0.0735 0.0174 0.14035 0.0629 0.18294 0.13177 0.0852 0.13784 0.0422 0.32048-0.0956 0.40566-0.13782 0.0852-0.32046 0.0417-0.40565-0.0961-0.0852-0.13784-0.0422-0.31996 0.0956-0.40515 0.0689-0.0426 0.14923-0.0535 0.22272-0.0362zm6.2668 0.15451c-0.22688 0-0.33901 0.11906-0.24908 0.26458 0.0899 0.14553 0.27546 0.26459 0.41238 0.26459 0.13695 0 0.24908-0.11906 0.24908-0.26459 0-0.14552-0.1855-0.26458-0.41238-0.26458zm12.704 0c0.21439 0 0.50628 0.21794 0.64905 0.48473 0.19032 0.35558 0.16716 0.48524-0.0868 0.48524-0.19058 0-0.48245-0.21845-0.64906-0.48524-0.24228-0.38795-0.22497-0.48473 0.0868-0.48473zm-33.711 7e-3c0.017-0.037 0.12723-5e-3 0.34054 0.0754 0.26657 0.10001 0.59399 0.1819 0.72761 0.1819 0.13361 0 0.24288 0.11907 0.24288 0.26459 0 0.42197-0.69492 0.30617-1.0919-0.1819-0.15983-0.19649-0.23611-0.303-0.2191-0.34004zm16.135 0.25735c0.34039 0 0.45555 0.12949 0.35295 0.39688-0.15645 0.40767-0.67002 0.52785-0.97049 0.22738-0.27418-0.2742 0.0722-0.62426 0.61754-0.62426zm29.875 0c0.13692 0 0.30064 0.0893 0.3638 0.19844 0.1764 0.30493-0.20708 1.1773-0.42271 0.9617-0.27742-0.27743-0.23258-1.1601 0.0589-1.1601zm-22.716 0.0326c-0.0919 4e-3 -0.17103 0.0279-0.21498 0.0718-0.0879 0.0879 0.0683 0.15049 0.34727 0.13901 0.30821-0.0127 0.37076-0.0752 0.15968-0.15968-0.0955-0.0382-0.20006-0.0549-0.29197-0.0512zm-13.913 0.20567 0.85989 0.41651c0.47295 0.22922 0.8599 0.47358 0.8599 0.54261 0 0.28536-0.50976 0.0911-1.095-0.41703zm33.007 0.045c0.73242-0.0137 0.99219 0.0897 0.99219 0.39584 0 0.30402 0.1522 0.36653 0.56947 0.2341 0.46136-0.14643 0.53655-0.0958 0.39688 0.2682-0.0948 0.24697-0.1726 0.55463-0.1726 0.68368s-0.17777 0.16649-0.39481 0.0832c-0.68175-0.26161-0.77647 0.6533-0.12248 1.1829 0.47636 0.38573 0.50953 0.48473 0.16124 0.48473-0.24059 0-0.38201-0.0557-0.3142-0.12351 0.13677-0.13677-1.0224-1.111-1.3219-1.111-0.10401 0-0.0529 0.16459 0.11421 0.36587 0.23553 0.2838 0.20568 0.40373-0.13333 0.53382-0.59687 0.22905-1.2583-0.33481-0.89969-0.76688 0.20685-0.24925-0.19504-0.40866-1.7079-0.67747-2.115-0.37579-2.9632-1.0428-1.326-1.0428 0.50475 0 0.91777 0.12436 0.91777 0.27647 0 0.26121 0.91642 0.19512 2.6458-0.19017 0.62002-0.13813 0.6283-0.16061 0.13229-0.36276-0.41476-0.16905-0.31467-0.21952 0.46302-0.2341zm-9.5178 0.0842c0.0693-0.0693 0.19649 0.0576 0.28267 0.28216 0.17891 0.46622 0.0263 0.54874-0.23462 0.12661-0.0959-0.15521-0.11743-0.33941-0.048-0.40877zm-29.792 0.16175c0.30231 0 0.69785 0.17859 0.87901 0.39688 0.18116 0.21828 0.28518 0.38274 0.23099 0.36586-0.0542-0.0169-0.33682-0.0881-0.62786-0.15812-0.7978-0.1919-1.127-0.60462-0.48214-0.60462zm1.5513 0c0.39362 0 1.9735 0.87124 1.9735 1.0883 0 0.28541 0.0503 0.29295-0.96014-0.14676-0.76343-0.33223-1.4193-0.94155-1.0134-0.94155zm-2.789 0.26458c0.14552 0 0.26459 0.11907 0.26459 0.26459s-0.11907 0.26458-0.26459 0.26458-0.26458-0.11906-0.26458-0.26458 0.11906-0.26459 0.26458-0.26459zm40.754 0.14005c-0.14581 0.0337-0.27285 0.1327-0.27285 0.27233 0 0.0642 0.18553 0.11679 0.41238 0.11679 0.22688 0 0.33791-0.12134 0.2465-0.26923-0.0755-0.12219-0.24021-0.15359-0.38603-0.11989zm-18.265 0.12454c-0.14552 0-0.26459 0.11906-0.26459 0.26458s0.11907 0.26458 0.26459 0.26458 0.26458-0.11906 0.26458-0.26458-0.11906-0.26458-0.26458-0.26458zm-12.182 0.0114c0.28718 0.0125 0.61092 0.12056 0.87023 0.31936 0.37569 0.28802 0.38195 0.37471 0.0476 0.67438-0.31761 0.28464-0.41137 0.2732-0.54157-0.0661-0.0866-0.22565-0.38981-0.4098-0.67386-0.4098-0.28406 0-0.44289-0.11906-0.35296-0.26458 0.11288-0.18262 0.36343-0.26571 0.65061-0.25322zm15.357 0.25323c-0.14552 0-0.26459 0.11906-0.26459 0.26459 0 0.14552 0.11907 0.26458 0.26459 0.26458s0.26458-0.11906 0.26458-0.26458c0-0.14553-0.11906-0.26459-0.26458-0.26459zm14.272 0c-0.13692 0-0.24908 0.11906-0.24908 0.26459 0 0.14552 0.18553 0.26458 0.41238 0.26458 0.22688 0 0.33901-0.11906 0.24908-0.26458-0.0899-0.14553-0.27545-0.26459-0.41238-0.26459zm-10.089 4e-3c-0.24606-2e-3 -0.52089 0.11544-0.61082 0.26096-0.20696 0.33486 0.14333 0.33486 0.66146 0 0.34203-0.22103 0.33494-0.25747-0.0506-0.26096zm14.072 0.12867-0.11214 0.66146c-0.0615 0.3638-0.12044 0.75076-0.13126 0.8599-0.0108 0.10914-0.19823 0.19843-0.41651 0.19843-0.52652 0-0.49254-0.26065 0.13746-1.0583zm-10.523 0.0837c0.10956-0.0482 0.38299 0.0774 0.8015 0.37103 0.90061 0.63179 1.2459 0.99901 1.2526 1.3312 2e-3 0.10914-0.11493 0.19844-0.26045 0.19844s-0.26459-0.1113-0.26459-0.24702c0-0.13571-0.26789-0.33035-0.59531-0.43253-0.64513-0.20133-0.98165-0.5811-0.98805-1.1147-5.3e-4 -0.0549 0.0177-0.0904 0.0543-0.10645zm-14.346 0.0486c-0.30821 0-0.4868 0.11907-0.39687 0.26459 0.0899 0.14552 0.26852 0.26458 0.39687 0.26458s0.30695-0.11906 0.39688-0.26458c0.0899-0.14552-0.0887-0.26459-0.39688-0.26459zm2.3812 0c-0.14552 0-0.26458 0.11907-0.26458 0.26459s0.11906 0.26458 0.26458 0.26458 0.26459-0.11906 0.26459-0.26458-0.11907-0.26459-0.26459-0.26459zm6.1009 0c-0.13692 0-0.32244 0.11907-0.41238 0.26459-0.0899 0.14552 0.0222 0.26458 0.24909 0.26458 0.22688 0 0.41237-0.11906 0.41237-0.26458s-0.11213-0.26459-0.24908-0.26459zm-25.28 0.12506c0.0444-0.0186 0.1298-7e-3 0.24753 0.0382 0.22585 0.0867 0.41031 0.20429 0.41031 0.26148 0 0.21429-0.504 0.0938-0.65939-0.15761-0.0463-0.075-0.0429-0.12357 2e-3 -0.14211zm2.6422 0.41186c0.14552 0 0.44317 0.11577 0.66145 0.25683 0.21828 0.14107 0.27782 0.25632 0.1323 0.25632-0.14553 0-0.44318-0.11525-0.66146-0.25632-0.21828-0.14106-0.27782-0.25683-0.13229-0.25683zm32.22 0.21446c0.65654 0.0153 1.1099 0.19635 1.6335 0.60823 0.5526 0.43468 0.63755 0.61773 0.36638 0.78962-0.19415 0.12308-0.6506 0.22375-1.0144 0.22375-0.48514 0-0.56282-0.0626-0.29197-0.23409 0.50615-0.32048 0.16468-1.0806-0.48524-1.0806-0.34494 0-0.47974 0.129-0.38706 0.37052 0.18381 0.47901-0.73403 0.42621-1.0428-0.06-0.26916-0.42371-0.19915-0.50672 0.48731-0.57981 0.27415-0.0292 0.51548-0.0428 0.73432-0.0377zm-13.154 0.0424c-0.22685 0-0.41238 0.11907-0.41238 0.26459s0.11216 0.26458 0.24908 0.26458 0.32245-0.11906 0.41238-0.26458c0.0899-0.14552-0.0222-0.26459-0.24908-0.26459zm6.0854 0c-0.54695 0-0.8092 0.54836-0.38706 0.80926 0.21511 0.13294 0.43804 0.0949 0.55914-0.0956 0.30578-0.48101 0.2495-0.71366-0.17208-0.71366zm-10.821 0.0481c-1.4187 0.0242-1.7594 0.10703-1.6464 0.40153 0.0785 0.20449 0.0247 0.29882-0.11938 0.20981-0.14385-0.0889-0.26148-0.0427-0.26148 0.10283 0 0.51382 0.56046 0.60079 1.1942 0.18552 0.62685-0.41074 0.65511-0.39613 1.2449 0.63665 0.66939 1.1722 1.1256 1.4248 0.73949 0.40928-0.27313-0.71837-0.0208-1.027 0.63407-0.77566 0.25789 0.099 0.41889 0.0221 0.41651-0.19792-9e-3 -0.81714-0.42912-1.0022-2.2019-0.97204zm-9.2336 0.0687c0.18957 0.079 0.32711 0.32159 0.32711 0.69247 0 0.53303-0.42071 0.65844-0.99218 0.29558-0.26221-0.16649-0.257-0.31134 0.0258-0.69814 0.20788-0.2843 0.44967-0.36886 0.63923-0.28991zm4.1176 0.0351c0.15648 0.0444 0.37427 0.23968 0.55242 0.5116 0.5076 0.77468 0.17457 0.88228-0.48266 0.15606-0.2581-0.28519-0.34545-0.57024-0.20205-0.65887 0.0348-0.0215 0.0801-0.0236 0.13229-9e-3zm6.0306 0.11266c0.14552 0 0.1907 0.11906 0.10077 0.26458-0.0899 0.14552-0.28236 0.26458-0.42788 0.26458s-0.19122-0.11906-0.10129-0.26458c0.0899-0.14552 0.28288-0.26458 0.4284-0.26458zm-8.6604 0.36845c0.17757 0.0454 0.32296 0.30893 0.37827 0.77618 0.0821 0.6932-0.17666 0.84252-0.92966 0.5364-0.23977-0.0975-0.24491-0.28766-0.0207-0.7798 0.18489-0.40579 0.39448-0.57821 0.57205-0.53278zm2.2603 0.68988c0.31819 0 1.0769 0.75873 1.0769 1.0769 0 0.13512 0.13193 0.24598 0.293 0.24598 0.16111 0 0.22667-0.17257 0.14573-0.38344-0.0983-0.25625-0.0201-0.33502 0.23616-0.23668 0.21085 0.0809 0.38344 0.37255 0.38344 0.64802 0 0.6974-0.89742 0.64533-1.6159-0.0941-0.4641-0.4776-0.54533-0.50135-0.41031-0.11886 0.10004 0.28343 0.062 0.41133-0.0935 0.31523-0.33139-0.2048-0.34465-1.4531-0.0155-1.4531zm12.851 0c0.65484 0 1.1906 0.11906 1.1906 0.26458s-0.53578 0.26459-1.1906 0.26459-1.1906-0.11907-1.1906-0.26459 0.53579-0.26458 1.1906-0.26458zm19.912 0.31729c0.58222 0.11478 0.97284 0.85347 0.75344 1.4252-0.14867 0.38739-0.23528 0.41587-0.40927 0.13436-0.31142-0.50389-0.80926-0.114-0.80926 0.63407 0 0.4114-0.19717 0.69078-0.57206 0.80977-0.51125 0.16227-0.52518 0.20822-0.12712 0.43098 0.24503 0.13713 0.37692 0.36107 0.29249 0.49764-0.2182 0.35307-0.53775 0.30786-0.89917-0.12764-0.31036-0.37394-0.24718-0.60066 0.55707-2.005 0.12502-0.21828 0.35857-0.73031 0.51883-1.1379 0.17235-0.43843 0.456-0.70858 0.69505-0.66146zm-4.1444 0.0532c0.0775-0.0495 0.15209 0.0119 0.25012 0.16743 0.16385 0.26001 0.12522 0.47711-0.11679 0.65888-0.19857 0.14915-0.40728 0.50634-0.46406 0.79375-0.0776 0.39284-0.15784 0.43633-0.32246 0.17415-0.12044-0.19182-0.38557-0.28482-0.58911-0.20671-0.20357 0.0781-0.37 0.0267-0.37-0.11421 0-0.14095 0.24124-0.25631 0.53588-0.25631 0.33933 0 0.63568-0.2636 0.80874-0.71882 0.10956-0.28818 0.19016-0.44863 0.26768-0.49816zm-29.658 0.15865c0.14552 0 0.26459 0.11906 0.26459 0.26458s-0.11907 0.26458-0.26459 0.26458-0.26458-0.11906-0.26458-0.26458 0.11906-0.26458 0.26458-0.26458zm10.768 0.0207c0.1392-0.0153 0.33904 0.0785 0.60927 0.27285 0.33499 0.24098 0.32469 0.26215-0.0662 0.13643-0.34009-0.10941-0.46302-3e-3 -0.46302 0.39997 0 0.38547 0.12162 0.50285 0.40721 0.39326 0.22929-0.088 0.471 0.0112 0.55397 0.22738 0.22167 0.57763 0.028 0.80755-0.6041 0.71727-0.45127-0.0645-0.58925-0.29689-0.66817-1.1245-0.0638-0.66884-1e-3 -0.99717 0.23099-1.0227zm17.24 0.10129c0.074 0.0177 0.16619 0.0579 0.27234 0.1235 0.22749 0.14059 0.25425 0.27719 0.0765 0.38706-0.151 0.0933-0.35426 0.0408-0.45165-0.11679-0.18227-0.2949-0.11925-0.4469 0.10283-0.39377zm-1.1276 0.0372c0.21548-0.0827 0.45571 0.0161 0.53382 0.21963 0.0781 0.20353 0.10304 0.67468 0.0558 1.047-0.0673 0.53002-0.17188 0.62181-0.48266 0.42323-0.21828-0.13948-0.31069-0.25575-0.20515-0.25786 0.10554-2e-3 0.083-0.29144-0.0506-0.64286-0.18378-0.48333-0.14754-0.67537 0.14882-0.7891zm-2.3332 0.23306c0.0839 0.0109 0.18104 0.0976 0.31833 0.26304 0.41495 0.49996 0.29912 0.65981-0.31574 0.43563-0.28996-0.10573-0.37701-0.28898-0.24133-0.5085 0.0844-0.13653 0.15487-0.2011 0.23874-0.19017zm-19.096 0.0889c0.39479-0.0169 0.93299 0.57169 0.72709 0.90485-0.19571 0.3167-0.5272 0.23769-0.90331-0.21549-0.28612-0.34473-0.2828-0.45657 0.0186-0.64286 0.0479-0.0296 0.10122-0.0441 0.15762-0.0465zm7.2161 0.0481c0.32276 0 0.56172 0.16875 0.56172 0.39687 0 0.21828-0.10434 0.39688-0.23203 0.39688-0.12771 0-0.38056-0.1786-0.56172-0.39688-0.27517-0.33158-0.23716-0.39687 0.23203-0.39687zm1.2459 0.33486c0.53525 0.0343 1.4325 0.30055 1.4325 0.49196 0 0.12733-0.14883 0.22369-0.33073 0.21446-0.52178-0.0265-1.6117-0.51011-1.4697-0.65216 0.0513-0.0513 0.18952-0.0657 0.36794-0.0543zm-9.7756 0.0119c0.17075 1e-5 0.39801 0.10656 0.57464 0.28319 0.39452 0.39451 0.38332 0.42839-0.14211 0.42839-0.65977 0-1.011-0.4087-0.58033-0.67489 0.0405-0.025 0.0909-0.0367 0.1478-0.0367zm26.23 0.0935c0.10782-0.0184 0.25877-6e-3 0.45113 0.0455 0.36103 0.0966 0.65868 0.265 0.66146 0.37414 3e-3 0.10914 5e-3 0.3175 5e-3 0.46302 0 0.35662-0.30133 0.32013-0.85989-0.10387-0.51475-0.39075-0.58133-0.72358-0.25787-0.77877zm-14.12 0.0889c0.54435 0 1.2144 0.74016 1.2144 1.3415 0 1.008-1.1436 0.51341-1.4196-0.61392-0.13232-0.54068-0.0794-0.7276 0.20516-0.7276zm6.6771 0.32091c0.25029-0.0122 0.53692 0.0842 0.77411 0.32143 0.44445 0.44445 0.49613 0.94516 0.0977 0.94516-0.15412 0-0.21187-0.11104-0.12816-0.2465 0.0837-0.13547 0.0411-0.31531-0.0951-0.39946-0.13618-0.0841-0.4244 0.0239-0.64027 0.23978-0.34698 0.34695-0.41158 0.34168-0.55914-0.0429-0.18232-0.47509 0.13372-0.79713 0.55087-0.81752zm-4.8224 0.0512c0.0902-0.0171 0.27891 0.12137 0.54881 0.41961 0.406 0.44864 0.41698 0.53123 0.0708 0.53123-0.22526 0-0.48443-0.196-0.57619-0.43511-0.125-0.32576-0.13358-0.4986-0.0434-0.51573zm1.5012 0.15709c0.13193 0 0.23978 0.0497 0.23978 0.11059 0 0.0609 0.0724 0.29899 0.16072 0.52917 0.0883 0.23018 0.0428 0.41858-0.10129 0.41858-0.14412 0-0.3244-0.23813-0.40049-0.52917-0.0761-0.29104-0.0306-0.52917 0.10128-0.52917zm-12.428 0.0336c0.14387-2e-3 0.2971 0.014 0.42582 0.0476 0.25744 0.0671 0.111 0.12637-0.32557 0.13177-0.43656 5e-3 -0.64731-0.0495-0.46818-0.12196 0.0896-0.0362 0.22407-0.0556 0.36793-0.0574zm18.522 0.1447c0.18849-0.0478 0.35898 0.11023 0.63923 0.53795 0.26144 0.39899 0.69333 0.95905 0.95963 1.2449 0.26628 0.28584 0.48421 0.73531 0.48421 0.99891s-0.16031 0.47956-0.35605 0.47956c-0.5003 0-1.3108-0.95836-1.1622-1.3741 0.18926-0.52945-0.32607-1.3314-0.75086-1.1684-0.48046 0.18437-0.48931-0.21019-0.0134-0.60513 0.0714-0.0593 0.13664-0.0978 0.19947-0.11369zm-12.749 0.0863c0.13693 0 0.32245 0.11906 0.41238 0.26458 0.0899 0.14552-0.0222 0.26458-0.24908 0.26458-0.22685 0-0.41238-0.11906-0.41238-0.26458s0.11216-0.26458 0.24908-0.26458zm14.914 0.0315c0.0566 9e-3 0.15654 0.12935 0.33487 0.36535 0.21992 0.29104 0.50827 0.52917 0.64027 0.52917 0.13197 0 0.38343 0.14362 0.55913 0.31936 0.24964 0.24963 0.2455 0.40877-0.0191 0.7276-0.4363 0.52571-0.6254 0.51392-1.1555-0.0718-0.33499-0.37016-0.36201-0.55162-0.11989-0.79375 0.24212-0.24212 0.24079-0.31367-4e-3 -0.31367-0.17462 0-0.31365-0.20836-0.30902-0.46302 4e-3 -0.2065 0.0168-0.30837 0.0734-0.29921zm1.7363 0.12196c0.13142-0.0812 0.38602 0.0293 0.56586 0.24598 0.26582 0.32032 0.24952 0.39429-0.0868 0.39429-0.49395 0-0.81678-0.43154-0.47904-0.64027zm-8.2341 0.22427c0.28159 0.0404 0.49583 0.34238 0.54673 0.7705 0.099 0.83212-0.22105 0.91577-0.68161 0.17828-0.45344-0.72606-0.41059-1.027 0.13488-0.94878zm-2.5797 0.71469c0.11989 0 0.23978 0.0181 0.33073 0.0548 0.1819 0.0734 0.0331 0.13385-0.33073 0.13385-0.3638 0-0.51263-0.0604-0.33073-0.13385 0.0909-0.0367 0.21084-0.0548 0.33073-0.0548zm1.3074 0.23047c0.15412 0 0.28009 0.11907 0.28009 0.26459s-0.0526 0.26458-0.11679 0.26458c-0.0642 0-0.19015-0.11906-0.28009-0.26458-0.0899-0.14552-0.0373-0.26459 0.11679-0.26459zm4.5475 0.44391c0.29824-0.01 0.62986 0.10677 0.76326 0.35605 0.14362 0.26834 0.26097 0.55536 0.26097 0.63768 0 0.0823-0.17491 0.14986-0.38861 0.14986-0.24903 0-0.32939-0.15344-0.22427-0.42736 0.13038-0.33983 0.0474-0.39065-0.40515-0.24701-0.31305 0.0994-0.56947 0.0675-0.56947-0.0708 0-0.25353 0.26503-0.38893 0.56327-0.39842zm6.5324 0.40152c0.23597-0.0417 0.28213 0.13118 0.45217 0.80874 0.13435 0.53524 0.0842 0.72708-0.19017 0.72708-0.8813 0-1.3372-1.1403-0.57309-1.4335 0.13245-0.0508 0.23243-0.0884 0.31109-0.10232zm-1.5901 1.0087c0.25641 3e-3 0.81405 1.2628 0.63717 1.4397-0.32623 0.32623-0.79826 0.1106-0.93947-0.42943-0.15343-0.5867-0.0258-1.014 0.3023-1.0103zm-1.3642 1.1043c0.23094 0.04 0.34581 0.21882 0.41858 0.59945 0.071 0.3715 0.11592 0.67339 0.0997 0.67127-0.0162-2e-3 -0.32711-0.15443-0.69091-0.33848-0.80931-0.40945-0.85354-0.82055-0.0997-0.92811 0.10552-0.0151 0.19536-0.0175 0.27234-4e-3z"/>
 </g>
</svg>
